<!DOCTYPE svg PUBLIC "-//W3C//DTD SVG 20010904//EN" "http://www.w3.org/TR/2001/REC-SVG-20010904/DTD/svg10.dtd">
<svg version="1.0" xmlns="http://www.w3.org/2000/svg" width="1246px" height="1246px" viewBox="0 0 12000 12000" preserveAspectRatio="xMidYMid meet">
<g id="layer101" fill="#13689f" stroke="none">
<path d="M0 6000 l0 -6000 6000 0 6000 0 0 6000 0 6000 -6000 0 -6000 0 0 -6000z"/>
</g>
<g id="layer102" fill="#2b7aaa" stroke="none">
<path d="M0 6000 l0 -6000 6000 0 6000 0 0 6000 0 6000 -6000 0 -6000 0 0 -6000z m7861 3611 c13 -5 44 -15 69 -22 101 -30 206 -97 296 -191 110 -113 162 -211 195 -362 32 -152 22 -268 -38 -431 -40 -108 -40 -115 1 -154 20 -19 36 -40 36 -47 0 -6 7 -17 15 -24 21 -17 19 -30 -5 -30 -12 0 -38 18 -59 40 -21 22 -47 40 -58 40 -12 0 -46 -26 -79 -59 -162 -161 -326 -231 -543 -231 -294 1 -548 164 -674 433 -54 115 -62 157 -61 312 1 152 14 220 60 309 15 28 31 61 38 73 6 13 14 23 19 23 4 0 7 6 7 14 0 21 129 150 195 194 97 64 216 113 310 126 48 7 250 -2 276 -13z m-3404 -22 c198 -45 309 -110 444 -260 61 -67 73 -77 92 -70 12 5 42 14 67 21 25 7 56 16 69 22 47 18 57 -32 11 -57 -14 -7 -45 -19 -70 -26 -25 -7 -48 -15 -53 -19 -4 -4 0 -31 9 -61 68 -231 70 -345 11 -524 -57 -175 -196 -339 -357 -420 -59 -30 -180 -70 -254 -85 -107 -22 -308 15 -436 80 -47 24 -149 98 -185 135 -156 159 -246 412 -215 603 15 96 46 205 72 256 104 203 294 348 533 404 57 13 206 14 262 1z m4725 -2364 c15 -44 27 -93 26 -110 l-3 -30 -31 31 c-16 18 -36 52 -44 75 -7 24 -17 48 -22 54 -4 5 -8 22 -8 38 0 25 3 28 26 25 24 -3 30 -13 56 -83z m78 -300 c0 -7 6 -18 14 -22 7 -4 16 -20 20 -35 3 -16 9 -40 12 -55 9 -38 20 -43 86 -43 31 0 67 -4 80 -9 13 -5 43 -14 68 -21 78 -21 203 -88 268 -143 166 -142 254 -327 269 -566 3 -51 1 -100 -7 -125 -6 -23 -16 -57 -21 -76 -11 -36 -24 -71 -40 -102 -5 -10 -9 -22 -9 -28 0 -20 -90 -147 -142 -199 -86 -88 -215 -163 -328 -193 -80 -20 -251 -38 -270 -28 -10 5 -32 10 -48 10 -38 0 -141 34 -217 72 -133 67 -250 183 -320 319 -32 62 -40 79 -65 147 -8 19 -13 87 -13 170 -1 149 21 266 68 364 80 167 244 308 425 367 116 38 126 41 143 41 20 0 22 26 6 66 -11 31 -3 104 12 104 5 0 9 -7 9 -15z m-6467 -124 c6 -29 10 -31 105 -48 18 -3 35 -9 38 -14 3 -5 16 -9 29 -9 13 0 27 -4 30 -10 3 -5 14 -10 22 -10 34 0 161 -87 234 -160 127 -127 184 -244 213 -437 14 -97 -1 -246 -34 -328 -87 -219 -202 -346 -397 -437 -36 -17 -82 -35 -102 -39 -108 -24 -106 -22 -106 -60 1 -18 4 -44 9 -57 7 -21 5 -23 -20 -20 -28 3 -34 11 -54 64 -9 26 -18 32 -69 42 -31 7 -68 12 -81 12 -46 0 -167 43 -249 88 -187 105 -309 272 -370 508 -14 54 -14 225 0 278 23 89 33 121 39 131 4 6 13 26 20 45 22 58 109 177 170 233 122 112 319 197 456 197 37 0 50 5 72 29 35 37 38 37 45 2z m5082 -2878 c116 -30 240 -99 329 -183 144 -136 222 -306 233 -505 7 -132 -12 -229 -68 -350 -63 -137 -196 -277 -327 -343 -42 -21 -88 -42 -102 -46 -116 -33 -144 -37 -257 -37 -112 0 -167 8 -215 32 -10 5 -24 9 -32 9 -35 0 -179 88 -260 160 -29 26 -103 120 -122 155 -11 22 -10 22 -111 4 -78 -14 -88 -11 -79 19 6 18 40 32 110 47 31 7 31 5 0 110 -14 46 -18 95 -18 210 0 132 2 158 23 215 73 204 204 356 381 441 47 23 93 45 102 50 10 5 30 9 45 9 16 0 35 5 43 10 19 13 270 7 325 -7z m-3441 -14 c282 -53 489 -217 594 -469 29 -69 52 -194 52 -278 0 -83 -25 -197 -61 -279 -11 -24 -19 -45 -19 -48 0 -13 -87 -134 -130 -179 -140 -150 -375 -247 -561 -232 -109 8 -163 17 -173 27 -6 5 -18 9 -28 9 -10 0 -26 4 -36 9 -9 5 -46 23 -82 41 -107 54 -219 155 -284 255 -88 136 -140 351 -116 482 17 99 38 166 81 268 22 50 39 95 39 101 0 5 -16 25 -35 44 -19 19 -35 38 -35 44 0 5 -12 22 -27 38 -37 39 -20 49 20 11 17 -17 37 -29 44 -26 15 6 53 -54 53 -84 0 -30 14 -29 33 1 46 69 178 170 273 208 153 61 279 79 398 57z"/>
</g>
<g id="layer103" fill="#3b84b1" stroke="none">
<path d="M0 6000 l0 -6000 6000 0 6000 0 0 6000 0 6000 -6000 0 -6000 0 0 -6000z m7861 3611 c13 -5 44 -15 69 -22 101 -30 206 -97 296 -191 110 -113 162 -211 195 -362 32 -151 22 -267 -38 -431 -40 -110 -40 -112 -1 -153 44 -47 82 -102 71 -103 -27 -4 -50 7 -83 42 -20 21 -46 39 -57 39 -12 0 -46 -26 -79 -59 -162 -161 -326 -231 -543 -231 -294 1 -548 164 -674 433 -54 115 -62 157 -61 312 1 152 14 220 60 309 15 28 31 61 38 73 6 13 14 23 19 23 4 0 7 6 7 14 0 21 129 150 195 194 97 64 216 113 310 126 48 7 250 -2 276 -13z m-3404 -22 c198 -45 309 -110 444 -260 61 -67 73 -77 92 -70 12 5 42 14 67 21 25 7 56 16 69 22 47 18 57 -32 11 -57 -14 -7 -45 -19 -70 -26 -25 -7 -48 -15 -53 -19 -4 -4 0 -31 9 -61 68 -231 70 -345 11 -524 -57 -175 -196 -339 -357 -420 -59 -30 -180 -70 -254 -85 -107 -22 -308 15 -436 80 -47 24 -149 98 -185 135 -156 159 -246 412 -215 603 15 96 46 205 72 256 104 203 294 348 533 404 57 13 206 14 262 1z m2128 -215 c9 -9 15 -24 13 -33 -5 -25 -162 -16 -200 11 -16 11 -28 24 -28 29 0 5 45 9 99 9 79 0 103 -3 116 -16z m-1055 -19 c7 -9 11 -17 9 -18 -14 -10 -86 -28 -152 -38 -67 -11 -80 -11 -87 1 -6 8 -10 20 -10 27 0 34 215 58 240 28z m1380 -54 c30 -14 56 -32 58 -38 8 -26 -170 -9 -215 20 -7 5 -13 19 -13 32 0 23 2 23 58 18 31 -3 82 -17 112 -32z m-3500 -1200 c-8 -6 -17 -8 -21 -6 -3 3 -5 -6 -4 -20 2 -16 -1 -22 -10 -19 -7 3 -23 0 -35 -6 l-22 -12 18 26 c11 14 24 26 29 26 6 0 3 5 -5 10 -11 7 -4 10 25 10 28 0 36 -3 25 -9z m-69 -93 c11 7 24 11 27 8 3 -3 1 -6 -5 -6 -6 0 -25 -14 -42 -32 -29 -30 -52 -34 -35 -6 9 13 10 18 13 41 1 8 4 7 11 -3 8 -13 13 -13 31 -2z m5484 -84 c27 -29 85 -139 85 -161 0 -47 -84 29 -125 113 -22 46 -25 58 -14 65 21 13 28 11 54 -17z m-5648 -131 c-4 -3 -10 -3 -14 0 -3 4 0 7 7 7 7 0 10 -3 7 -7z m30 0 c-4 -3 -10 -3 -14 0 -3 4 0 7 7 7 7 0 10 -3 7 -7z m-35 -33 c18 0 18 -1 4 -16 -9 -8 -14 -20 -11 -24 7 -12 -54 -110 -68 -110 -7 0 -18 4 -26 9 -11 7 -10 18 9 60 13 27 26 48 29 46 4 -2 13 11 21 28 7 17 15 26 18 19 2 -7 13 -12 24 -12z m5867 -202 c56 -118 58 -128 27 -128 -29 0 -48 25 -95 124 -25 54 -29 71 -19 77 33 21 48 8 87 -73z m-6014 -90 c-7 -38 -17 -66 -58 -161 -7 -16 -17 -25 -25 -22 -8 3 -18 5 -24 5 -14 0 1 77 25 125 18 37 69 95 83 95 3 0 3 -19 -1 -42z m6157 -243 c15 -44 27 -93 26 -110 l-3 -30 -31 31 c-16 18 -36 52 -44 75 -7 24 -17 48 -22 54 -4 5 -8 22 -8 38 0 25 3 28 26 25 24 -3 30 -13 56 -83z m88 -311 c0 -8 4 -14 9 -14 5 0 11 -12 14 -27 21 -103 21 -103 99 -103 31 0 67 -4 80 -9 13 -5 43 -14 68 -21 78 -21 203 -88 268 -143 166 -142 254 -327 269 -566 3 -51 1 -100 -7 -125 -6 -23 -16 -57 -21 -76 -11 -36 -24 -71 -40 -102 -5 -10 -9 -22 -9 -28 0 -20 -90 -147 -142 -199 -86 -88 -215 -163 -328 -193 -80 -20 -251 -38 -270 -28 -10 5 -32 10 -48 10 -38 0 -141 34 -217 72 -133 67 -250 183 -320 319 -32 62 -40 79 -65 147 -8 19 -13 87 -13 170 -1 149 21 266 68 364 80 167 244 308 425 367 116 38 126 41 143 41 20 0 22 26 7 66 -6 15 -8 47 -4 71 5 36 9 41 20 32 8 -6 14 -18 14 -25z m-6477 -113 c6 -29 10 -31 105 -48 18 -3 35 -9 38 -14 3 -5 16 -9 29 -9 13 0 27 -4 30 -10 3 -5 14 -10 22 -10 34 0 161 -87 234 -160 127 -127 184 -244 213 -437 14 -97 -1 -246 -34 -328 -87 -219 -202 -346 -397 -437 -36 -17 -82 -35 -102 -39 -108 -24 -106 -22 -106 -60 1 -18 4 -44 9 -57 7 -21 5 -23 -20 -20 -28 3 -34 11 -54 64 -9 26 -18 32 -69 42 -31 7 -68 12 -81 12 -46 0 -167 43 -249 88 -187 105 -309 272 -370 508 -14 54 -14 225 0 278 23 89 33 121 39 131 4 6 13 26 20 45 22 58 109 177 170 233 122 112 319 197 456 197 37 0 50 5 72 29 35 37 38 37 45 2z m6459 -1698 c-2 -17 -12 -55 -23 -84 -10 -30 -19 -61 -19 -71 0 -17 -36 -35 -48 -23 -11 11 -1 89 19 144 26 71 27 73 52 69 18 -2 21 -9 19 -35z m-128 -344 c-2 -51 -61 -172 -82 -164 -7 3 -18 5 -24 5 -16 0 -1 45 43 139 44 90 65 97 63 20z m-1249 -836 c116 -30 240 -99 329 -183 144 -136 222 -306 233 -505 7 -132 -12 -229 -68 -350 -63 -137 -196 -277 -327 -343 -42 -21 -88 -42 -102 -46 -116 -33 -144 -37 -257 -37 -112 0 -167 8 -215 32 -10 5 -24 9 -32 9 -35 0 -179 88 -260 160 -29 26 -103 120 -122 155 -11 22 -10 22 -111 4 -78 -14 -88 -11 -79 19 6 18 40 32 110 47 31 7 31 5 0 110 -14 46 -18 95 -18 210 0 132 2 158 23 215 73 204 204 356 381 441 47 23 93 45 102 50 10 5 30 9 45 9 16 0 35 5 43 10 19 13 270 7 325 -7z m-3441 -14 c282 -53 489 -217 594 -469 29 -69 52 -194 52 -278 0 -83 -25 -197 -61 -279 -11 -24 -19 -45 -19 -48 0 -13 -87 -134 -130 -179 -140 -150 -375 -247 -561 -232 -109 8 -163 17 -173 27 -6 5 -18 9 -28 9 -10 0 -26 4 -36 9 -9 5 -46 23 -82 41 -107 54 -219 155 -284 255 -88 136 -140 351 -116 482 17 99 38 166 81 268 22 50 39 95 39 101 0 5 -16 25 -35 44 -19 19 -35 38 -35 43 0 5 -13 22 -30 37 -55 51 -33 70 23 20 19 -16 40 -30 46 -30 16 0 51 -60 51 -87 0 -30 14 -29 33 1 46 69 178 170 273 208 153 61 279 79 398 57z m2163 -1136 c-4 -3 -10 -3 -14 0 -3 4 0 7 7 7 7 0 10 -3 7 -7z m-592 -53 c0 -25 -1 -25 -85 -25 -80 0 -85 1 -98 25 l-14 25 6 -27 c5 -21 3 -26 -8 -22 -7 3 -13 15 -13 28 0 22 2 23 106 22 l106 -1 0 -25z"/>
<path d="M5870 2725 c0 -8 5 -15 10 -15 6 0 10 7 10 15 0 8 -4 15 -10 15 -5 0 -10 -7 -10 -15z"/>
</g>
<g id="layer104" fill="#5092b9" stroke="none">
<path d="M0 6000 l0 -6000 6000 0 6000 0 0 6000 0 6000 -6000 0 -6000 0 0 -6000z m7861 3611 c13 -5 44 -15 69 -22 101 -30 206 -97 296 -191 110 -113 162 -211 195 -362 32 -151 22 -267 -38 -431 -41 -113 -42 -107 21 -177 31 -35 56 -69 56 -75 0 -27 -41 -11 -83 32 -25 25 -54 45 -65 45 -11 0 -46 -26 -78 -59 -162 -161 -326 -231 -543 -231 -294 1 -548 164 -674 433 -54 115 -62 157 -61 312 1 152 14 220 60 309 15 28 31 61 38 73 6 13 14 23 19 23 4 0 7 6 7 14 0 21 129 150 195 194 97 64 216 113 310 126 48 7 250 -2 276 -13z m-3404 -22 c198 -45 309 -110 444 -260 61 -67 73 -77 92 -70 12 5 42 14 67 21 25 7 56 16 69 22 47 18 57 -32 11 -57 -14 -7 -45 -19 -70 -26 -25 -7 -48 -15 -53 -19 -4 -4 0 -31 9 -61 68 -231 70 -345 11 -524 -57 -175 -196 -339 -357 -420 -59 -30 -180 -70 -254 -85 -107 -22 -308 15 -436 80 -47 24 -149 98 -185 135 -156 159 -246 412 -215 603 15 96 46 205 72 256 104 203 294 348 533 404 57 13 206 14 262 1z m1781 -201 l-3 -33 -65 -3 c-36 -1 -83 1 -105 6 -34 6 -41 12 -43 35 l-3 27 111 0 111 0 -3 -32z m347 -14 c9 -9 15 -24 13 -33 -5 -25 -162 -16 -200 11 -16 11 -28 24 -28 29 0 5 45 9 99 9 79 0 103 -3 116 -16z m-1055 -19 c7 -9 11 -17 9 -18 -14 -10 -86 -28 -152 -38 -67 -11 -80 -11 -87 1 -6 8 -10 20 -10 27 0 34 215 58 240 28z m1380 -54 c30 -14 56 -32 58 -38 8 -26 -170 -9 -215 20 -7 5 -13 19 -13 32 0 23 2 23 58 18 31 -3 82 -17 112 -32z m-3511 -1233 c-52 -103 -123 -172 -143 -139 -7 10 16 71 26 71 4 0 8 5 8 11 0 6 14 31 32 55 26 37 37 44 65 44 l33 0 -21 -42z m5426 -144 c27 -29 85 -139 85 -161 0 -47 -84 29 -125 113 -22 46 -25 58 -14 65 21 13 28 11 54 -17z m-5615 -119 c0 -11 -45 -102 -73 -147 -29 -48 -40 -55 -66 -39 -12 8 -7 26 29 100 42 88 45 91 77 91 18 0 33 -2 33 -5z m5829 -247 c56 -118 58 -128 27 -128 -29 0 -48 25 -95 124 -25 54 -29 71 -19 77 33 21 48 8 87 -73z m-6014 -90 c-7 -38 -17 -66 -58 -161 -7 -16 -17 -25 -25 -22 -8 3 -18 5 -24 5 -14 0 1 77 25 125 18 37 69 95 83 95 3 0 3 -19 -1 -42z m6157 -243 c15 -44 27 -93 26 -110 l-3 -30 -31 31 c-16 18 -36 52 -44 75 -7 24 -17 48 -22 54 -4 5 -8 22 -8 38 0 25 3 28 26 25 24 -3 30 -13 56 -83z m-6282 -67 c0 -22 -39 -167 -50 -188 -6 -12 -21 -20 -35 -20 -20 0 -25 5 -25 25 0 13 4 34 9 47 5 13 14 41 21 63 7 22 20 50 28 63 15 23 52 30 52 10z m6371 -240 c20 -42 39 -100 39 -120 0 -21 21 -28 85 -28 30 0 64 -4 77 -9 13 -5 43 -14 68 -21 78 -21 203 -88 268 -143 166 -142 254 -327 269 -566 3 -51 1 -100 -7 -125 -6 -23 -16 -57 -21 -76 -11 -36 -24 -71 -40 -102 -5 -10 -9 -22 -9 -28 0 -20 -90 -147 -142 -199 -86 -88 -215 -163 -328 -193 -80 -20 -251 -38 -270 -28 -10 5 -32 10 -48 10 -38 0 -141 34 -217 72 -133 67 -250 183 -320 319 -32 62 -40 79 -65 147 -8 19 -13 87 -13 170 -1 149 21 266 68 364 80 167 244 308 425 367 116 38 126 41 143 41 19 0 22 26 7 66 -10 26 -3 127 9 120 3 -3 13 -19 22 -38z m-6478 -117 c6 -29 10 -31 105 -48 18 -3 35 -9 38 -14 3 -5 16 -9 29 -9 13 0 27 -4 30 -10 3 -5 14 -10 22 -10 34 0 161 -87 234 -160 127 -127 184 -244 213 -437 14 -97 -1 -246 -34 -328 -87 -219 -202 -346 -397 -437 -36 -17 -82 -35 -102 -39 -108 -24 -106 -22 -106 -60 1 -18 4 -44 9 -57 7 -21 5 -23 -20 -20 -28 3 -34 11 -54 64 -9 26 -18 32 -69 42 -31 7 -68 12 -81 12 -46 0 -167 43 -249 88 -187 105 -309 272 -370 508 -14 54 -14 225 0 278 23 89 33 121 39 131 4 6 13 26 20 45 22 58 109 177 170 233 122 112 319 197 456 197 37 0 50 5 72 29 35 37 38 37 45 2z m6459 -1698 c-2 -17 -12 -55 -23 -84 -10 -30 -19 -61 -19 -71 0 -17 -36 -35 -48 -23 -11 11 -1 89 19 144 26 71 27 73 52 69 18 -2 21 -9 19 -35z m-6402 -97 c0 -3 -5 -8 -12 -12 -7 -4 -8 -3 -4 4 7 12 16 16 16 8z m40 -41 c0 -9 -9 -15 -22 -15 -22 1 -23 1 -4 15 25 19 26 19 26 0z m23 -37 c11 -34 -28 -54 -40 -20 -4 9 -11 20 -17 24 -6 4 3 8 21 8 17 0 33 -6 36 -12z m14 -85 c-4 -3 -10 -3 -14 0 -3 4 0 7 7 7 7 0 10 -3 7 -7z m6197 -84 c-2 -51 -61 -172 -82 -164 -7 3 -18 5 -24 5 -16 0 -1 45 43 139 44 90 65 97 63 20z m-5875 -493 c22 -47 27 -86 13 -86 -17 0 -85 76 -103 115 -10 22 -18 56 -18 75 l0 35 43 -47 c24 -26 53 -67 65 -92z m4626 -343 c116 -30 240 -99 329 -183 144 -136 222 -306 233 -505 7 -132 -12 -229 -68 -350 -63 -137 -196 -277 -327 -343 -42 -21 -88 -42 -102 -46 -116 -33 -144 -37 -257 -37 -112 0 -167 8 -215 32 -10 5 -24 9 -32 9 -35 0 -179 88 -260 160 -29 26 -103 120 -122 155 -11 22 -10 22 -111 4 -78 -14 -88 -11 -79 19 6 18 40 32 110 47 31 7 31 5 0 110 -14 46 -18 95 -18 210 0 132 2 158 23 215 73 204 204 356 381 441 47 23 93 45 102 50 10 5 30 9 45 9 16 0 35 5 43 10 19 13 270 7 325 -7z m-3441 -14 c282 -53 489 -217 594 -469 29 -69 52 -194 52 -278 0 -83 -25 -197 -61 -279 -11 -24 -19 -45 -19 -48 0 -13 -87 -134 -130 -179 -140 -150 -375 -247 -561 -232 -109 8 -163 17 -173 27 -6 5 -18 9 -28 9 -10 0 -26 4 -36 9 -9 5 -46 23 -82 41 -107 54 -219 155 -284 255 -88 136 -140 351 -116 482 17 99 38 166 81 268 22 50 39 94 39 99 0 4 -31 43 -70 86 -38 43 -70 80 -70 84 0 17 42 3 70 -24 18 -16 36 -30 41 -30 14 0 49 -62 49 -87 0 -30 14 -29 33 1 46 69 178 170 273 208 153 61 279 79 398 57z m702 -1038 c16 -5 56 -15 89 -22 62 -13 75 -22 75 -52 0 -16 -6 -17 -52 -11 -29 3 -78 12 -108 18 -51 12 -55 14 -58 44 -4 35 4 38 54 23z m1594 -71 c0 -32 -41 -50 -136 -59 -49 -4 -91 -7 -93 -5 -2 2 -1 10 3 19 11 28 85 51 214 64 6 0 12 -8 12 -19z m-1220 -32 c0 -18 26 -26 32 -9 6 17 42 17 46 0 4 -19 -22 -28 -65 -22 -22 4 -32 11 -35 27 -3 14 0 23 9 23 7 0 13 -9 13 -19z m-49 -21 c-10 -9 -11 -8 -5 6 3 10 9 15 12 12 3 -3 0 -11 -7 -18z m172 3 c3 -11 1 -18 -4 -14 -5 3 -9 12 -9 20 0 20 7 17 13 -6z m744 -7 c4 -10 -2 -23 -16 -35 -19 -14 -41 -18 -110 -18 -89 0 -111 8 -111 41 0 21 24 25 148 27 69 2 84 -1 89 -15z m-372 -23 l0 -25 -105 0 -105 0 -3 28 -3 28 108 -3 c108 -3 108 -3 108 -28z"/>
</g>
<g id="layer105" fill="#da9531" stroke="none">
<path d="M0 6000 l0 -6000 6000 0 6000 0 0 6000 0 6000 -6000 0 -6000 0 0 -6000z m7861 3611 c13 -5 44 -15 69 -22 101 -30 206 -97 296 -191 110 -113 162 -211 195 -362 32 -151 22 -267 -38 -431 -42 -115 -43 -107 31 -185 36 -39 66 -75 66 -80 0 -6 -12 -10 -27 -10 -19 0 -40 14 -73 50 -27 29 -55 50 -67 50 -12 0 -46 -25 -79 -59 -162 -161 -326 -231 -543 -231 -294 1 -548 164 -674 433 -54 115 -62 157 -61 312 1 152 14 220 60 309 15 28 31 61 38 73 6 13 14 23 19 23 4 0 7 6 7 14 0 21 129 150 195 194 97 64 216 113 310 126 48 7 250 -2 276 -13z m-3404 -22 c198 -45 309 -110 444 -260 61 -67 73 -77 92 -70 12 5 42 14 67 21 25 7 56 16 69 22 47 18 57 -32 11 -57 -14 -7 -45 -19 -70 -26 -25 -7 -48 -15 -53 -19 -4 -4 0 -31 9 -61 68 -231 70 -345 11 -524 -57 -175 -196 -339 -357 -420 -59 -30 -180 -70 -254 -85 -107 -22 -308 15 -436 80 -47 24 -149 98 -185 135 -156 159 -246 412 -215 603 15 96 46 205 72 256 104 203 294 348 533 404 57 13 206 14 262 1z m1431 -192 c8 -38 -15 -47 -123 -47 -80 0 -105 3 -115 15 -8 10 -10 19 -4 25 17 17 88 28 164 27 63 -2 75 -5 78 -20z m350 -9 l-3 -33 -65 -3 c-36 -1 -83 1 -105 6 -34 6 -41 12 -43 35 l-3 27 111 0 111 0 -3 -32z m347 -14 c9 -9 15 -24 13 -33 -5 -25 -162 -16 -200 11 -16 11 -28 24 -28 29 0 5 45 9 99 9 79 0 103 -3 116 -16z m-1055 -19 c7 -9 11 -17 9 -18 -14 -10 -86 -28 -152 -38 -67 -11 -80 -11 -87 1 -6 8 -10 20 -10 27 0 34 215 58 240 28z m1380 -54 c30 -14 56 -32 58 -38 8 -26 -170 -9 -215 20 -7 5 -13 19 -13 32 0 23 2 23 58 18 31 -3 82 -17 112 -32z m-3261 -927 c17 -16 -120 -174 -150 -174 -25 0 -35 25 -21 53 5 12 34 48 62 80 46 51 56 58 79 52 14 -4 28 -9 30 -11z m4995 -194 c61 -78 85 -140 53 -140 -22 0 -84 58 -122 115 -35 53 -36 57 -20 75 21 24 36 15 89 -50z m-5245 -112 c-52 -103 -123 -172 -143 -139 -7 10 16 71 26 71 4 0 8 5 8 11 0 6 14 31 32 55 26 37 37 44 65 44 l33 0 -21 -42z m5413 -130 c24 -20 56 -72 83 -133 23 -52 24 -55 6 -55 -46 0 -162 171 -130 191 19 12 22 11 41 -3z m-5602 -133 c0 -11 -45 -102 -73 -147 -29 -48 -40 -55 -66 -39 -12 8 -7 26 29 100 42 88 45 91 77 91 18 0 33 -2 33 -5z m5829 -247 c56 -118 58 -128 27 -128 -29 0 -48 25 -95 124 -25 54 -29 71 -19 77 33 21 48 8 87 -73z m-6014 -90 c-7 -38 -17 -66 -58 -161 -7 -16 -17 -25 -25 -22 -8 3 -18 5 -24 5 -14 0 1 77 25 125 18 37 69 95 83 95 3 0 3 -19 -1 -42z m6157 -243 c15 -44 27 -93 26 -110 l-3 -30 -31 31 c-16 18 -36 52 -44 75 -7 24 -17 48 -22 54 -4 5 -8 22 -8 38 0 25 3 28 26 25 24 -3 30 -13 56 -83z m-6282 -67 c0 -22 -39 -167 -50 -188 -6 -12 -21 -20 -35 -20 -20 0 -25 5 -25 25 0 13 4 34 9 47 5 13 14 41 21 63 7 22 20 50 28 63 15 23 52 30 52 10z m6371 -224 c9 -16 19 -43 22 -59 13 -67 21 -90 31 -97 6 -4 37 -8 68 -8 31 0 67 -4 80 -9 13 -5 43 -14 68 -21 78 -21 203 -88 268 -143 166 -142 254 -327 269 -566 3 -51 1 -100 -7 -125 -6 -23 -16 -57 -21 -76 -11 -36 -24 -71 -40 -102 -5 -10 -9 -22 -9 -28 0 -20 -90 -147 -142 -199 -86 -88 -215 -163 -328 -193 -80 -20 -251 -38 -270 -28 -10 5 -32 10 -48 10 -38 0 -141 34 -217 72 -133 67 -250 183 -320 319 -32 62 -40 79 -65 147 -8 19 -13 87 -13 170 -1 149 21 266 68 364 80 167 244 308 425 367 116 38 126 41 144 41 15 0 17 5 12 33 -4 17 -10 63 -13 101 -6 76 6 86 38 30z m-6478 -133 c6 -29 10 -31 105 -48 18 -3 35 -9 38 -14 3 -5 16 -9 29 -9 13 0 27 -4 30 -10 3 -5 14 -10 22 -10 34 0 161 -87 234 -160 127 -127 184 -244 213 -437 14 -97 -1 -246 -34 -328 -87 -219 -202 -346 -397 -437 -36 -17 -82 -35 -102 -39 -108 -24 -106 -22 -106 -60 1 -18 4 -44 9 -57 7 -21 5 -23 -20 -20 -28 3 -34 11 -54 64 -9 26 -18 32 -69 42 -31 7 -68 12 -81 12 -46 0 -167 43 -249 88 -187 105 -309 272 -370 508 -14 54 -14 225 0 278 23 89 33 121 39 131 4 6 13 26 20 45 22 58 109 177 170 233 122 112 319 197 456 197 37 0 50 5 72 29 35 37 38 37 45 2z m6459 -1698 c-2 -17 -12 -55 -23 -84 -10 -30 -19 -61 -19 -71 0 -17 -36 -35 -48 -23 -11 11 -1 89 19 144 26 71 27 73 52 69 18 -2 21 -9 19 -35z m-6358 -95 c34 -93 46 -134 46 -160 0 -31 0 -31 -32 -19 -18 7 -29 24 -42 68 -10 32 -23 68 -27 81 -18 46 -9 69 28 71 6 1 18 -18 27 -41z m6230 -249 c-2 -51 -61 -172 -82 -164 -7 3 -18 5 -24 5 -16 0 -1 45 43 139 44 90 65 97 63 20z m-6090 -101 c33 -48 66 -151 54 -163 -3 -3 -17 -1 -31 4 -27 10 -63 70 -87 144 -26 81 14 90 64 15z m5935 -201 c11 -20 7 -32 -35 -105 -41 -73 -49 -82 -75 -82 -32 0 -36 12 -16 57 19 46 91 152 103 153 6 0 16 -10 23 -23z m-5720 -191 c22 -47 27 -86 13 -86 -17 0 -85 76 -103 115 -10 22 -18 56 -18 75 l0 35 43 -47 c24 -26 53 -67 65 -92z m5541 -114 c0 -23 -47 -98 -95 -151 -30 -33 -40 -39 -51 -30 -8 6 -14 19 -14 28 0 17 58 110 93 149 25 27 67 30 67 4z m-5384 -99 c9 -16 35 -49 56 -74 71 -84 35 -124 -45 -50 -42 39 -87 110 -87 137 0 27 56 17 76 -13z m4469 -130 c116 -30 240 -99 329 -183 144 -136 222 -306 233 -505 7 -132 -12 -229 -68 -350 -63 -137 -196 -277 -327 -343 -42 -21 -88 -42 -102 -46 -116 -33 -144 -37 -257 -37 -112 0 -167 8 -215 32 -10 5 -24 9 -32 9 -35 0 -179 88 -260 160 -29 26 -103 120 -122 155 -11 22 -10 22 -111 4 -78 -14 -88 -11 -79 19 6 18 40 32 110 47 31 7 31 5 0 110 -14 46 -18 95 -18 210 0 132 2 158 23 215 73 204 204 356 381 441 47 23 93 45 102 50 10 5 30 9 45 9 16 0 35 5 43 10 19 13 270 7 325 -7z m-3441 -14 c282 -53 489 -217 594 -469 29 -69 52 -194 52 -278 0 -83 -25 -197 -61 -279 -11 -24 -19 -45 -19 -48 0 -13 -87 -134 -130 -179 -140 -150 -375 -247 -561 -232 -109 8 -163 17 -173 27 -6 5 -18 9 -28 9 -10 0 -26 4 -36 9 -9 5 -46 23 -82 41 -107 54 -219 155 -284 255 -88 136 -140 351 -116 482 17 99 38 166 81 268 22 50 39 95 39 100 0 6 -32 42 -71 80 -90 89 -99 105 -62 105 19 0 44 -15 80 -48 55 -50 73 -78 73 -111 0 -28 14 -26 33 3 46 69 178 170 273 208 153 61 279 79 398 57z m4136 -32 c0 -21 -54 -99 -98 -141 -30 -29 -45 -36 -61 -31 -36 11 -25 47 32 102 68 67 127 100 127 70z m-3434 -1006 c16 -5 56 -15 89 -22 62 -13 75 -22 75 -52 0 -16 -6 -17 -52 -11 -29 3 -78 12 -108 18 -51 12 -55 14 -58 44 -4 35 4 38 54 23z m1594 -71 c0 -32 -41 -50 -136 -59 -49 -4 -91 -7 -93 -5 -2 2 -1 10 3 19 11 28 85 51 214 64 6 0 12 -8 12 -19z m-1111 -27 c32 -19 45 -38 35 -54 -8 -13 -70 -11 -135 5 -68 16 -99 32 -99 51 0 23 158 21 199 -2z m758 -30 c4 -10 -2 -23 -16 -35 -19 -14 -41 -18 -110 -18 -89 0 -111 8 -111 41 0 21 24 25 148 27 69 2 84 -1 89 -15z m-372 -23 l0 -25 -105 0 -105 0 -3 28 -3 28 108 -3 c108 -3 108 -3 108 -28z"/>
</g>
<g id="layer106" fill="#e29f34" stroke="none">
<path d="M0 6000 l0 -6000 6000 0 6000 0 0 6000 0 6000 -6000 0 -6000 0 0 -6000z m7861 3611 c13 -5 44 -15 69 -22 101 -30 206 -97 296 -191 110 -113 162 -211 195 -362 32 -151 22 -267 -38 -431 -42 -115 -43 -107 31 -185 36 -39 66 -75 66 -80 0 -6 -12 -10 -27 -10 -19 0 -40 14 -73 50 -27 29 -55 50 -67 50 -12 0 -46 -25 -79 -59 -162 -161 -326 -231 -543 -231 -294 1 -548 164 -674 433 -54 115 -62 157 -61 312 1 152 14 220 60 309 15 28 31 61 38 73 6 13 14 23 19 23 4 0 7 6 7 14 0 21 129 150 195 194 97 64 216 113 310 126 48 7 250 -2 276 -13z m-3404 -22 c198 -45 309 -110 444 -260 61 -67 73 -77 92 -70 12 5 42 14 67 21 25 7 56 16 69 22 47 18 57 -32 11 -57 -14 -7 -45 -19 -70 -26 -25 -7 -48 -15 -53 -19 -4 -4 0 -31 9 -61 68 -231 70 -345 11 -524 -57 -175 -196 -339 -357 -420 -59 -30 -180 -70 -254 -85 -107 -22 -308 15 -436 80 -47 24 -149 98 -185 135 -156 159 -246 412 -215 603 15 96 46 205 72 256 104 203 294 348 533 404 57 13 206 14 262 1z m1431 -192 c8 -38 -15 -47 -123 -47 -80 0 -105 3 -115 15 -8 10 -10 19 -4 25 17 17 88 28 164 27 63 -2 75 -5 78 -20z m350 -9 l-3 -33 -65 -3 c-36 -1 -83 1 -105 6 -34 6 -41 12 -43 35 l-3 27 111 0 111 0 -3 -32z m347 -14 c9 -9 15 -24 13 -33 -5 -25 -162 -16 -200 11 -16 11 -28 24 -28 29 0 5 45 9 99 9 79 0 103 -3 116 -16z m-1055 -19 c7 -9 11 -17 9 -18 -14 -10 -86 -28 -152 -38 -67 -11 -80 -11 -87 1 -6 8 -10 20 -10 27 0 34 215 58 240 28z m1380 -54 c30 -14 56 -32 58 -38 8 -26 -170 -9 -215 20 -7 5 -13 19 -13 32 0 23 2 23 58 18 31 -3 82 -17 112 -32z m-3261 -927 c17 -16 -120 -174 -150 -174 -25 0 -35 25 -21 53 5 12 34 48 62 80 46 51 56 58 79 52 14 -4 28 -9 30 -11z m4995 -194 c61 -78 85 -140 53 -140 -22 0 -84 58 -122 115 -35 53 -36 57 -20 75 21 24 36 15 89 -50z m-5245 -112 c-52 -103 -123 -172 -143 -139 -7 10 16 71 26 71 4 0 8 5 8 11 0 6 14 31 32 55 26 37 37 44 65 44 l33 0 -21 -42z m5413 -130 c24 -20 56 -72 83 -133 23 -52 24 -55 6 -55 -46 0 -162 171 -130 191 19 12 22 11 41 -3z m-5602 -133 c0 -11 -45 -102 -73 -147 -29 -48 -40 -55 -66 -39 -12 8 -7 26 29 100 42 88 45 91 77 91 18 0 33 -2 33 -5z m5829 -247 c56 -118 58 -128 27 -128 -29 0 -48 25 -95 124 -25 54 -29 71 -19 77 33 21 48 8 87 -73z m-1579 -240 c0 -117 3 -223 6 -235 6 -22 10 -23 130 -23 119 0 146 -5 180 -35 33 -31 34 -48 34 -834 l0 -781 -22 -34 -22 -33 -361 -7 c-198 -3 -406 -9 -462 -12 -69 -4 -103 -3 -103 4 0 6 8 13 18 15 9 3 0 5 -20 6 l-38 1 0 58 c0 404 -14 1101 -21 1117 -6 11 -22 29 -37 40 -26 20 -43 20 -734 20 -389 0 -710 4 -714 8 -4 3 -6 86 -5 182 2 196 9 225 65 263 l32 22 740 0 c852 0 742 -14 897 119 49 42 109 92 132 111 23 19 82 69 130 110 108 92 156 130 167 130 4 0 8 -96 8 -212z m-4435 150 c-7 -38 -17 -66 -58 -161 -7 -16 -17 -25 -25 -22 -8 3 -18 5 -24 5 -14 0 1 77 25 125 18 37 69 95 83 95 3 0 3 -19 -1 -42z m6157 -243 c15 -44 27 -93 26 -110 l-3 -30 -31 31 c-16 18 -36 52 -44 75 -7 24 -17 48 -22 54 -4 5 -8 22 -8 38 0 25 3 28 26 25 24 -3 30 -13 56 -83z m-6282 -67 c0 -22 -39 -167 -50 -188 -6 -12 -21 -20 -35 -20 -20 0 -25 5 -25 25 0 13 4 34 9 47 5 13 14 41 21 63 7 22 20 50 28 63 15 23 52 30 52 10z m6371 -224 c9 -16 19 -43 22 -59 13 -67 21 -90 31 -97 6 -4 37 -8 68 -8 31 0 67 -4 80 -9 13 -5 43 -14 68 -21 78 -21 203 -88 268 -143 166 -142 254 -327 269 -566 3 -51 1 -100 -7 -125 -6 -23 -16 -57 -21 -76 -11 -36 -24 -71 -40 -102 -5 -10 -9 -22 -9 -28 0 -20 -90 -147 -142 -199 -86 -88 -215 -163 -328 -193 -80 -20 -251 -38 -270 -28 -10 5 -32 10 -48 10 -38 0 -141 34 -217 72 -133 67 -250 183 -320 319 -32 62 -40 79 -65 147 -8 19 -13 87 -13 170 -1 149 21 266 68 364 80 167 244 308 425 367 116 38 126 41 144 41 15 0 17 5 12 33 -4 17 -10 63 -13 101 -6 76 6 86 38 30z m-6478 -133 c6 -29 10 -31 105 -48 18 -3 35 -9 38 -14 3 -5 16 -9 29 -9 13 0 27 -4 30 -10 3 -5 14 -10 22 -10 34 0 161 -87 234 -160 127 -127 184 -244 213 -437 14 -97 -1 -246 -34 -328 -87 -219 -202 -346 -397 -437 -36 -17 -82 -35 -102 -39 -108 -24 -106 -22 -106 -60 1 -18 4 -44 9 -57 7 -21 5 -23 -20 -20 -28 3 -34 11 -54 64 -9 26 -18 32 -69 42 -31 7 -68 12 -81 12 -46 0 -167 43 -249 88 -187 105 -309 272 -370 508 -14 54 -14 225 0 278 23 89 33 121 39 131 4 6 13 26 20 45 22 58 109 177 170 233 122 112 319 197 456 197 37 0 50 5 72 29 35 37 38 37 45 2z m6459 -1698 c-2 -17 -12 -55 -23 -84 -10 -30 -19 -61 -19 -71 0 -17 -36 -35 -48 -23 -11 11 -1 89 19 144 26 71 27 73 52 69 18 -2 21 -9 19 -35z m-6358 -95 c34 -93 46 -134 46 -160 0 -31 0 -31 -32 -19 -18 7 -29 24 -42 68 -10 32 -23 68 -27 81 -18 46 -9 69 28 71 6 1 18 -18 27 -41z m6230 -249 c-2 -51 -61 -172 -82 -164 -7 3 -18 5 -24 5 -16 0 -1 45 43 139 44 90 65 97 63 20z m-6090 -101 c33 -48 66 -151 54 -163 -3 -3 -17 -1 -31 4 -27 10 -63 70 -87 144 -26 81 14 90 64 15z m5935 -201 c11 -20 7 -32 -35 -105 -41 -73 -49 -82 -75 -82 -32 0 -36 12 -16 57 19 46 91 152 103 153 6 0 16 -10 23 -23z m-5720 -191 c22 -47 27 -86 13 -86 -17 0 -85 76 -103 115 -10 22 -18 56 -18 75 l0 35 43 -47 c24 -26 53 -67 65 -92z m5541 -114 c0 -23 -47 -98 -95 -151 -30 -33 -40 -39 -51 -30 -8 6 -14 19 -14 28 0 17 58 110 93 149 25 27 67 30 67 4z m-5384 -99 c9 -16 35 -49 56 -74 71 -84 35 -124 -45 -50 -42 39 -87 110 -87 137 0 27 56 17 76 -13z m4469 -130 c116 -30 240 -99 329 -183 144 -136 222 -306 233 -505 7 -132 -12 -229 -68 -350 -63 -137 -196 -277 -327 -343 -42 -21 -88 -42 -102 -46 -116 -33 -144 -37 -257 -37 -112 0 -167 8 -215 32 -10 5 -24 9 -32 9 -35 0 -179 88 -260 160 -29 26 -103 120 -122 155 -11 22 -10 22 -111 4 -78 -14 -88 -11 -79 19 6 18 40 32 110 47 31 7 31 5 0 110 -14 46 -18 95 -18 210 0 132 2 158 23 215 73 204 204 356 381 441 47 23 93 45 102 50 10 5 30 9 45 9 16 0 35 5 43 10 19 13 270 7 325 -7z m-3441 -14 c282 -53 489 -217 594 -469 29 -69 52 -194 52 -278 0 -83 -25 -197 -61 -279 -11 -24 -19 -45 -19 -48 0 -13 -87 -134 -130 -179 -140 -150 -375 -247 -561 -232 -109 8 -163 17 -173 27 -6 5 -18 9 -28 9 -10 0 -26 4 -36 9 -9 5 -46 23 -82 41 -107 54 -219 155 -284 255 -88 136 -140 351 -116 482 17 99 38 166 81 268 22 50 39 95 39 100 0 6 -32 42 -71 80 -90 89 -99 105 -62 105 19 0 44 -15 80 -48 55 -50 73 -78 73 -111 0 -28 14 -26 33 3 46 69 178 170 273 208 153 61 279 79 398 57z m4136 -32 c0 -21 -54 -99 -98 -141 -30 -29 -45 -36 -61 -31 -36 11 -25 47 32 102 68 67 127 100 127 70z m-3434 -1006 c16 -5 56 -15 89 -22 62 -13 75 -22 75 -52 0 -16 -6 -17 -52 -11 -29 3 -78 12 -108 18 -51 12 -55 14 -58 44 -4 35 4 38 54 23z m1594 -71 c0 -32 -41 -50 -136 -59 -49 -4 -91 -7 -93 -5 -2 2 -1 10 3 19 11 28 85 51 214 64 6 0 12 -8 12 -19z m-1111 -27 c32 -19 45 -38 35 -54 -8 -13 -70 -11 -135 5 -68 16 -99 32 -99 51 0 23 158 21 199 -2z m758 -30 c4 -10 -2 -23 -16 -35 -19 -14 -41 -18 -110 -18 -89 0 -111 8 -111 41 0 21 24 25 148 27 69 2 84 -1 89 -15z m-372 -23 l0 -25 -105 0 -105 0 -3 28 -3 28 108 -3 c108 -3 108 -3 108 -28z"/>
</g>
<g id="layer107" fill="#f6b73b" stroke="none">
<path d="M0 6000 l0 -6000 6000 0 6000 0 0 6000 0 6000 -6000 0 -6000 0 0 -6000z m7861 3611 c13 -5 44 -15 69 -22 101 -30 206 -97 296 -191 110 -113 162 -211 195 -362 32 -151 22 -267 -38 -431 -42 -115 -43 -107 31 -185 36 -39 66 -75 66 -80 0 -6 -12 -10 -27 -10 -19 0 -40 14 -73 50 -27 29 -55 50 -67 50 -12 0 -46 -25 -79 -59 -162 -161 -326 -231 -543 -231 -294 1 -548 164 -674 433 -54 115 -62 157 -61 312 1 152 14 220 60 309 15 28 31 61 38 73 6 13 14 23 19 23 4 0 7 6 7 14 0 21 129 150 195 194 97 64 216 113 310 126 48 7 250 -2 276 -13z m-3404 -22 c198 -45 309 -110 444 -260 61 -67 73 -77 92 -70 12 5 42 14 67 21 25 7 56 16 69 22 47 18 57 -32 11 -57 -14 -7 -45 -19 -70 -26 -25 -7 -48 -15 -53 -19 -4 -4 0 -31 9 -61 68 -231 70 -345 11 -524 -57 -175 -196 -339 -357 -420 -59 -30 -180 -70 -254 -85 -107 -22 -308 15 -436 80 -47 24 -149 98 -185 135 -156 159 -246 412 -215 603 15 96 46 205 72 256 104 203 294 348 533 404 57 13 206 14 262 1z m1431 -192 c8 -38 -15 -47 -123 -47 -80 0 -105 3 -115 15 -8 10 -10 19 -4 25 17 17 88 28 164 27 63 -2 75 -5 78 -20z m350 -9 l-3 -33 -65 -3 c-36 -1 -83 1 -105 6 -34 6 -41 12 -43 35 l-3 27 111 0 111 0 -3 -32z m347 -14 c9 -9 15 -24 13 -33 -5 -25 -162 -16 -200 11 -16 11 -28 24 -28 29 0 5 45 9 99 9 79 0 103 -3 116 -16z m-1055 -19 c7 -9 11 -17 9 -18 -14 -10 -86 -28 -152 -38 -67 -11 -80 -11 -87 1 -6 8 -10 20 -10 27 0 34 215 58 240 28z m1380 -54 c30 -14 56 -32 58 -38 8 -26 -170 -9 -215 20 -7 5 -13 19 -13 32 0 23 2 23 58 18 31 -3 82 -17 112 -32z m-3261 -927 c17 -16 -120 -174 -150 -174 -25 0 -35 25 -21 53 5 12 34 48 62 80 46 51 56 58 79 52 14 -4 28 -9 30 -11z m4995 -194 c61 -78 85 -140 53 -140 -22 0 -84 58 -122 115 -35 53 -36 57 -20 75 21 24 36 15 89 -50z m-5245 -112 c-52 -103 -123 -172 -143 -139 -7 10 16 71 26 71 4 0 8 5 8 11 0 6 14 31 32 55 26 37 37 44 65 44 l33 0 -21 -42z m5413 -130 c24 -20 56 -72 83 -133 23 -52 24 -55 6 -55 -46 0 -162 171 -130 191 19 12 22 11 41 -3z m-5602 -133 c0 -11 -45 -102 -73 -147 -29 -48 -40 -55 -66 -39 -12 8 -7 26 29 100 42 88 45 91 77 91 18 0 33 -2 33 -5z m5829 -247 c56 -118 58 -128 27 -128 -29 0 -48 25 -95 124 -25 54 -29 71 -19 77 33 21 48 8 87 -73z m-1579 -240 c0 -117 3 -223 6 -235 6 -22 10 -23 130 -23 119 0 146 -5 180 -35 33 -31 34 -48 34 -834 l0 -781 -22 -34 -22 -33 -361 -7 c-198 -3 -406 -9 -462 -12 -69 -4 -103 -3 -103 4 0 6 8 13 18 15 9 3 1 5 -19 6 l-36 1 -6 317 c-4 174 -7 436 -7 583 l0 268 -31 30 c-24 23 -43 32 -87 37 -31 4 -352 6 -714 4 -361 -2 -660 -1 -664 3 -4 4 -6 87 -5 183 2 196 9 225 65 263 l32 22 740 0 c852 0 742 -14 897 119 49 42 109 92 132 111 23 19 82 69 130 110 108 92 156 130 167 130 4 0 8 -96 8 -212z m-4435 150 c-7 -38 -17 -66 -58 -161 -7 -16 -17 -25 -25 -22 -8 3 -18 5 -24 5 -14 0 1 77 25 125 18 37 69 95 83 95 3 0 3 -19 -1 -42z m6157 -243 c15 -44 27 -93 26 -110 l-3 -30 -31 31 c-16 18 -36 52 -44 75 -7 24 -17 48 -22 54 -4 5 -8 22 -8 38 0 25 3 28 26 25 24 -3 30 -13 56 -83z m-6282 -67 c0 -22 -39 -167 -50 -188 -6 -12 -21 -20 -35 -20 -20 0 -25 5 -25 25 0 13 4 34 9 47 5 13 14 41 21 63 7 22 20 50 28 63 15 23 52 30 52 10z m6371 -224 c9 -16 19 -43 22 -59 13 -67 21 -90 31 -97 6 -4 37 -8 68 -8 31 0 67 -4 80 -9 13 -5 43 -14 68 -21 78 -21 203 -88 268 -143 166 -142 254 -327 269 -566 3 -51 1 -100 -7 -125 -6 -23 -16 -57 -21 -76 -11 -36 -24 -71 -40 -102 -5 -10 -9 -22 -9 -28 0 -20 -90 -147 -142 -199 -86 -88 -215 -163 -328 -193 -80 -20 -251 -38 -270 -28 -10 5 -32 10 -48 10 -38 0 -141 34 -217 72 -133 67 -250 183 -320 319 -32 62 -40 79 -65 147 -8 19 -13 87 -13 170 -1 149 21 266 68 364 80 167 244 308 425 367 116 38 126 41 144 41 15 0 17 5 12 33 -4 17 -10 63 -13 101 -6 76 6 86 38 30z m-6478 -133 c6 -29 10 -31 105 -48 18 -3 35 -9 38 -14 3 -5 16 -9 29 -9 13 0 27 -4 30 -10 3 -5 14 -10 22 -10 34 0 161 -87 234 -160 127 -127 184 -244 213 -437 14 -97 -1 -246 -34 -328 -87 -219 -202 -346 -397 -437 -36 -17 -82 -35 -102 -39 -108 -24 -106 -22 -106 -60 1 -18 4 -44 9 -57 7 -21 5 -23 -20 -20 -28 3 -34 11 -54 64 -9 26 -18 32 -69 42 -31 7 -68 12 -81 12 -46 0 -167 43 -249 88 -187 105 -309 272 -370 508 -14 54 -14 225 0 278 23 89 33 121 39 131 4 6 13 26 20 45 22 58 109 177 170 233 122 112 319 197 456 197 37 0 50 5 72 29 35 37 38 37 45 2z m6459 -1698 c-2 -17 -12 -55 -23 -84 -10 -30 -19 -61 -19 -71 0 -17 -36 -35 -48 -23 -11 11 -1 89 19 144 26 71 27 73 52 69 18 -2 21 -9 19 -35z m-6358 -95 c34 -93 46 -134 46 -160 0 -31 0 -31 -32 -19 -18 7 -29 24 -42 68 -10 32 -23 68 -27 81 -18 46 -9 69 28 71 6 1 18 -18 27 -41z m6230 -249 c-2 -51 -61 -172 -82 -164 -7 3 -18 5 -24 5 -16 0 -1 45 43 139 44 90 65 97 63 20z m-6090 -101 c33 -48 66 -151 54 -163 -3 -3 -17 -1 -31 4 -27 10 -63 70 -87 144 -26 81 14 90 64 15z m5935 -201 c11 -20 7 -32 -35 -105 -41 -73 -49 -82 -75 -82 -32 0 -36 12 -16 57 19 46 91 152 103 153 6 0 16 -10 23 -23z m-5720 -191 c22 -47 27 -86 13 -86 -17 0 -85 76 -103 115 -10 22 -18 56 -18 75 l0 35 43 -47 c24 -26 53 -67 65 -92z m5541 -114 c0 -23 -47 -98 -95 -151 -30 -33 -40 -39 -51 -30 -8 6 -14 19 -14 28 0 17 58 110 93 149 25 27 67 30 67 4z m-5384 -99 c9 -16 35 -49 56 -74 71 -84 35 -124 -45 -50 -42 39 -87 110 -87 137 0 27 56 17 76 -13z m4469 -130 c116 -30 240 -99 329 -183 144 -136 222 -306 233 -505 7 -132 -12 -229 -68 -350 -63 -137 -196 -277 -327 -343 -42 -21 -88 -42 -102 -46 -116 -33 -144 -37 -257 -37 -112 0 -167 8 -215 32 -10 5 -24 9 -32 9 -35 0 -179 88 -260 160 -29 26 -103 120 -122 155 -11 22 -10 22 -111 4 -78 -14 -88 -11 -79 19 6 18 40 32 110 47 31 7 31 5 0 110 -14 46 -18 95 -18 210 0 132 2 158 23 215 73 204 204 356 381 441 47 23 93 45 102 50 10 5 30 9 45 9 16 0 35 5 43 10 19 13 270 7 325 -7z m-3441 -14 c282 -53 489 -217 594 -469 29 -69 52 -194 52 -278 0 -83 -25 -197 -61 -279 -11 -24 -19 -45 -19 -48 0 -13 -87 -134 -130 -179 -140 -150 -375 -247 -561 -232 -109 8 -163 17 -173 27 -6 5 -18 9 -28 9 -10 0 -26 4 -36 9 -9 5 -46 23 -82 41 -107 54 -219 155 -284 255 -88 136 -140 351 -116 482 17 99 38 166 81 268 22 50 39 95 39 100 0 6 -32 42 -71 80 -90 89 -99 105 -62 105 19 0 44 -15 80 -48 55 -50 73 -78 73 -111 0 -28 14 -26 33 3 46 69 178 170 273 208 153 61 279 79 398 57z m4136 -32 c0 -21 -54 -99 -98 -141 -30 -29 -45 -36 -61 -31 -36 11 -25 47 32 102 68 67 127 100 127 70z m-3434 -1006 c16 -5 56 -15 89 -22 62 -13 75 -22 75 -52 0 -16 -6 -17 -52 -11 -29 3 -78 12 -108 18 -51 12 -55 14 -58 44 -4 35 4 38 54 23z m1594 -71 c0 -32 -41 -50 -136 -59 -49 -4 -91 -7 -93 -5 -2 2 -1 10 3 19 11 28 85 51 214 64 6 0 12 -8 12 -19z m-1111 -27 c32 -19 45 -38 35 -54 -8 -13 -70 -11 -135 5 -68 16 -99 32 -99 51 0 23 158 21 199 -2z m758 -30 c4 -10 -2 -23 -16 -35 -19 -14 -41 -18 -110 -18 -89 0 -111 8 -111 41 0 21 24 25 148 27 69 2 84 -1 89 -15z m-372 -23 l0 -25 -105 0 -105 0 -3 28 -3 28 108 -3 c108 -3 108 -3 108 -28z"/>
</g>
<g id="layer108" fill="#f9c459" stroke="none">
</g>
<g id="layer109" fill="#c8dde9" stroke="none">
<path d="M0 6000 l0 -6000 6000 0 6000 0 0 6000 0 6000 -6000 0 -6000 0 0 -6000z m7861 3611 c13 -5 44 -15 69 -22 101 -30 206 -97 296 -191 110 -113 162 -211 195 -362 32 -151 22 -267 -38 -431 -42 -115 -43 -107 31 -185 36 -39 66 -75 66 -80 0 -6 -12 -10 -27 -10 -19 0 -40 14 -73 50 -27 29 -55 50 -67 50 -12 0 -46 -25 -79 -59 -162 -161 -326 -231 -543 -231 -294 1 -548 164 -674 433 -54 115 -62 157 -61 312 1 152 14 220 60 309 15 28 31 61 38 73 6 13 14 23 19 23 4 0 7 6 7 14 0 21 129 150 195 194 97 64 216 113 310 126 48 7 250 -2 276 -13z m-3404 -22 c198 -45 309 -110 444 -260 61 -67 73 -77 92 -70 12 5 42 14 67 21 25 7 56 16 69 22 47 18 57 -32 11 -57 -14 -7 -45 -19 -70 -26 -25 -7 -48 -15 -53 -19 -4 -4 0 -31 9 -61 68 -231 70 -345 11 -524 -57 -175 -196 -339 -357 -420 -59 -30 -180 -70 -254 -85 -107 -22 -308 15 -436 80 -47 24 -149 98 -185 135 -156 159 -246 412 -215 603 15 96 46 205 72 256 104 203 294 348 533 404 57 13 206 14 262 1z m1431 -192 c8 -38 -15 -47 -123 -47 -80 0 -105 3 -115 15 -8 10 -10 19 -4 25 17 17 88 28 164 27 63 -2 75 -5 78 -20z m350 -9 l-3 -33 -65 -3 c-36 -1 -83 1 -105 6 -34 6 -41 12 -43 35 l-3 27 111 0 111 0 -3 -32z m347 -14 c9 -9 15 -24 13 -33 -5 -25 -162 -16 -200 11 -16 11 -28 24 -28 29 0 5 45 9 99 9 79 0 103 -3 116 -16z m-1055 -19 c7 -9 11 -17 9 -18 -14 -10 -86 -28 -152 -38 -67 -11 -80 -11 -87 1 -6 8 -10 20 -10 27 0 34 215 58 240 28z m1380 -54 c30 -14 56 -32 58 -38 8 -26 -170 -9 -215 20 -7 5 -13 19 -13 32 0 23 2 23 58 18 31 -3 82 -17 112 -32z m-3261 -927 c17 -16 -120 -174 -150 -174 -25 0 -35 25 -21 53 5 12 34 48 62 80 46 51 56 58 79 52 14 -4 28 -9 30 -11z m4995 -194 c61 -78 85 -140 53 -140 -22 0 -84 58 -122 115 -35 53 -36 57 -20 75 21 24 36 15 89 -50z m-5245 -112 c-52 -103 -123 -172 -143 -139 -7 10 16 71 26 71 4 0 8 5 8 11 0 6 14 31 32 55 26 37 37 44 65 44 l33 0 -21 -42z m5413 -130 c24 -20 56 -72 83 -133 23 -52 24 -55 6 -55 -46 0 -162 171 -130 191 19 12 22 11 41 -3z m-5602 -133 c0 -11 -45 -102 -73 -147 -29 -48 -40 -55 -66 -39 -12 8 -7 26 29 100 42 88 45 91 77 91 18 0 33 -2 33 -5z m5829 -247 c56 -118 58 -128 27 -128 -29 0 -48 25 -95 124 -25 54 -29 71 -19 77 33 21 48 8 87 -73z m-1579 -240 c0 -117 3 -223 6 -235 6 -22 10 -23 130 -23 119 0 146 -5 180 -35 33 -31 34 -48 34 -834 l0 -781 -22 -34 -22 -34 -386 -7 c-212 -4 -425 -10 -475 -13 l-90 -7 -3 -182 -2 -181 -45 -48 -45 -47 -212 6 c-116 4 -651 7 -1188 7 l-978 0 -36 37 -36 37 0 786 0 786 33 31 c31 30 36 31 142 38 61 3 127 8 148 11 l37 6 0 229 c0 126 3 229 8 229 10 0 65 -45 200 -165 63 -55 135 -117 160 -138 26 -21 59 -50 74 -63 15 -13 32 -24 37 -24 5 0 11 -4 13 -8 10 -25 80 -63 120 -65 l43 -2 3 175 c3 196 11 230 66 268 l32 22 740 0 c852 0 742 -14 897 119 49 42 109 92 132 111 23 19 82 69 130 110 108 92 156 130 167 130 4 0 8 -96 8 -212z m-4435 150 c-7 -38 -17 -66 -58 -161 -7 -16 -17 -25 -25 -22 -8 3 -18 5 -24 5 -14 0 1 77 25 125 18 37 69 95 83 95 3 0 3 -19 -1 -42z m6157 -243 c15 -44 27 -93 26 -110 l-3 -30 -31 31 c-16 18 -36 52 -44 75 -7 24 -17 48 -22 54 -4 5 -8 22 -8 38 0 25 3 28 26 25 24 -3 30 -13 56 -83z m-6282 -67 c0 -22 -39 -167 -50 -188 -6 -12 -21 -20 -35 -20 -20 0 -25 5 -25 25 0 13 4 34 9 47 5 13 14 41 21 63 7 22 20 50 28 63 15 23 52 30 52 10z m6371 -224 c9 -16 19 -43 22 -59 13 -67 21 -90 31 -97 6 -4 37 -8 68 -8 31 0 67 -4 80 -9 13 -5 43 -14 68 -21 78 -21 203 -88 268 -143 166 -142 254 -327 269 -566 3 -51 1 -100 -7 -125 -6 -23 -16 -57 -21 -76 -11 -36 -24 -71 -40 -102 -5 -10 -9 -22 -9 -28 0 -20 -90 -147 -142 -199 -86 -88 -215 -163 -328 -193 -80 -20 -251 -38 -270 -28 -10 5 -32 10 -48 10 -38 0 -141 34 -217 72 -133 67 -250 183 -320 319 -32 62 -40 79 -65 147 -8 19 -13 87 -13 170 -1 149 21 266 68 364 80 167 244 308 425 367 116 38 126 41 144 41 15 0 17 5 12 33 -4 17 -10 63 -13 101 -6 76 6 86 38 30z m-6478 -133 c6 -29 10 -31 105 -48 18 -3 35 -9 38 -14 3 -5 16 -9 29 -9 13 0 27 -4 30 -10 3 -5 14 -10 22 -10 34 0 161 -87 234 -160 127 -127 184 -244 213 -437 14 -97 -1 -246 -34 -328 -87 -219 -202 -346 -397 -437 -36 -17 -82 -35 -102 -39 -108 -24 -106 -22 -106 -60 1 -18 4 -44 9 -57 7 -21 5 -23 -20 -20 -28 3 -34 11 -54 64 -9 26 -18 32 -69 42 -31 7 -68 12 -81 12 -46 0 -167 43 -249 88 -187 105 -309 272 -370 508 -14 54 -14 225 0 278 23 89 33 121 39 131 4 6 13 26 20 45 22 58 109 177 170 233 122 112 319 197 456 197 37 0 50 5 72 29 35 37 38 37 45 2z m6459 -1698 c-2 -17 -12 -55 -23 -84 -10 -30 -19 -61 -19 -71 0 -17 -36 -35 -48 -23 -11 11 -1 89 19 144 26 71 27 73 52 69 18 -2 21 -9 19 -35z m-6358 -95 c34 -93 46 -134 46 -160 0 -31 0 -31 -32 -19 -18 7 -29 24 -42 68 -10 32 -23 68 -27 81 -18 46 -9 69 28 71 6 1 18 -18 27 -41z m6230 -249 c-2 -51 -61 -172 -82 -164 -7 3 -18 5 -24 5 -16 0 -1 45 43 139 44 90 65 97 63 20z m-6090 -101 c33 -48 66 -151 54 -163 -3 -3 -17 -1 -31 4 -27 10 -63 70 -87 144 -26 81 14 90 64 15z m5935 -201 c11 -20 7 -32 -35 -105 -41 -73 -49 -82 -75 -82 -32 0 -36 12 -16 57 19 46 91 152 103 153 6 0 16 -10 23 -23z m-5720 -191 c22 -47 27 -86 13 -86 -17 0 -85 76 -103 115 -10 22 -18 56 -18 75 l0 35 43 -47 c24 -26 53 -67 65 -92z m5541 -114 c0 -23 -47 -98 -95 -151 -30 -33 -40 -39 -51 -30 -8 6 -14 19 -14 28 0 17 58 110 93 149 25 27 67 30 67 4z m-5384 -99 c9 -16 35 -49 56 -74 71 -84 35 -124 -45 -50 -42 39 -87 110 -87 137 0 27 56 17 76 -13z m4469 -130 c116 -30 240 -99 329 -183 144 -136 222 -306 233 -505 7 -132 -12 -229 -68 -350 -63 -137 -196 -277 -327 -343 -42 -21 -88 -42 -102 -46 -116 -33 -144 -37 -257 -37 -112 0 -167 8 -215 32 -10 5 -24 9 -32 9 -35 0 -179 88 -260 160 -29 26 -103 120 -122 155 -11 22 -10 22 -111 4 -78 -14 -88 -11 -79 19 6 18 40 32 110 47 31 7 31 5 0 110 -14 46 -18 95 -18 210 0 132 2 158 23 215 73 204 204 356 381 441 47 23 93 45 102 50 10 5 30 9 45 9 16 0 35 5 43 10 19 13 270 7 325 -7z m-3441 -14 c282 -53 489 -217 594 -469 29 -69 52 -194 52 -278 0 -83 -25 -197 -61 -279 -11 -24 -19 -45 -19 -48 0 -13 -87 -134 -130 -179 -140 -150 -375 -247 -561 -232 -109 8 -163 17 -173 27 -6 5 -18 9 -28 9 -10 0 -26 4 -36 9 -9 5 -46 23 -82 41 -107 54 -219 155 -284 255 -88 136 -140 351 -116 482 17 99 38 166 81 268 22 50 39 95 39 100 0 6 -32 42 -71 80 -90 89 -99 105 -62 105 19 0 44 -15 80 -48 55 -50 73 -78 73 -111 0 -28 14 -26 33 3 46 69 178 170 273 208 153 61 279 79 398 57z m4136 -32 c0 -21 -54 -99 -98 -141 -30 -29 -45 -36 -61 -31 -36 11 -25 47 32 102 68 67 127 100 127 70z m-3434 -1006 c16 -5 56 -15 89 -22 62 -13 75 -22 75 -52 0 -16 -6 -17 -52 -11 -29 3 -78 12 -108 18 -51 12 -55 14 -58 44 -4 35 4 38 54 23z m1594 -71 c0 -32 -41 -50 -136 -59 -49 -4 -91 -7 -93 -5 -2 2 -1 10 3 19 11 28 85 51 214 64 6 0 12 -8 12 -19z m-1111 -27 c32 -19 45 -38 35 -54 -8 -13 -70 -11 -135 5 -68 16 -99 32 -99 51 0 23 158 21 199 -2z m758 -30 c4 -10 -2 -23 -16 -35 -19 -14 -41 -18 -110 -18 -89 0 -111 8 -111 41 0 21 24 25 148 27 69 2 84 -1 89 -15z m-372 -23 l0 -25 -105 0 -105 0 -3 28 -3 28 108 -3 c108 -3 108 -3 108 -28z"/>
</g>
<g id="layer110" fill="#dcddde" stroke="none">
<path d="M0 6000 l0 -6000 6000 0 6000 0 0 6000 0 6000 -6000 0 -6000 0 0 -6000z m7861 3611 c13 -5 44 -15 69 -22 101 -30 206 -97 296 -191 110 -113 162 -211 195 -362 32 -152 22 -268 -38 -431 -40 -108 -40 -115 1 -154 20 -19 36 -31 36 -27 0 4 16 -11 35 -34 41 -49 41 -64 -3 -68 -27 -3 -34 2 -56 37 -28 43 -61 71 -87 71 -9 0 -43 -26 -75 -59 -162 -161 -326 -231 -543 -231 -294 1 -548 164 -674 433 -54 115 -62 157 -61 312 1 152 14 220 60 309 15 28 31 61 38 73 6 13 14 23 19 23 4 0 7 6 7 14 0 21 129 150 195 194 97 64 216 113 310 126 48 7 250 -2 276 -13z m-3404 -22 c198 -45 309 -110 444 -260 61 -67 73 -77 92 -70 12 5 42 14 67 21 25 7 56 16 69 22 47 18 57 -32 11 -57 -14 -7 -45 -19 -70 -26 -25 -7 -48 -15 -53 -19 -4 -4 0 -31 9 -61 68 -231 70 -345 11 -524 -57 -175 -196 -339 -357 -420 -59 -30 -180 -70 -254 -85 -107 -22 -308 15 -436 80 -47 24 -149 98 -185 135 -156 159 -246 412 -215 603 15 96 46 205 72 256 104 203 294 348 533 404 57 13 206 14 262 1z m1431 -192 c8 -38 -15 -47 -123 -47 -80 0 -105 3 -115 15 -8 10 -10 19 -4 25 17 17 88 28 164 27 63 -2 75 -5 78 -20z m350 -9 l-3 -33 -65 -3 c-36 -1 -83 1 -105 6 -34 6 -41 12 -43 35 l-3 27 111 0 111 0 -3 -32z m347 -14 c9 -9 15 -24 13 -33 -5 -25 -162 -16 -200 11 -16 11 -28 24 -28 29 0 5 45 9 99 9 79 0 103 -3 116 -16z m-1055 -19 c7 -9 11 -17 9 -18 -14 -10 -86 -28 -152 -38 -67 -11 -80 -11 -87 1 -6 8 -10 20 -10 27 0 34 215 58 240 28z m1380 -54 c30 -14 56 -32 58 -38 8 -26 -170 -9 -215 20 -7 5 -13 19 -13 32 0 23 2 23 58 18 31 -3 82 -17 112 -32z m-3261 -927 c17 -16 -120 -174 -150 -174 -25 0 -35 25 -21 53 5 12 34 48 62 80 46 51 56 58 79 52 14 -4 28 -9 30 -11z m4995 -194 c61 -78 85 -140 53 -140 -22 0 -84 58 -122 115 -35 53 -36 57 -20 75 21 24 36 15 89 -50z m-5245 -112 c-52 -103 -123 -172 -143 -139 -7 10 16 71 26 71 4 0 8 5 8 11 0 6 14 31 32 55 26 37 37 44 65 44 l33 0 -21 -42z m5426 -144 c14 -15 38 -54 55 -87 16 -33 35 -66 41 -74 9 -10 9 -17 1 -25 -9 -9 -12 -9 -12 0 0 7 -6 12 -14 12 -42 0 -155 172 -125 191 21 13 28 11 54 -17z m-5615 -119 c0 -11 -45 -102 -73 -147 -29 -48 -40 -55 -66 -39 -12 8 -7 26 29 100 42 88 45 91 77 91 18 0 33 -2 33 -5z m5829 -247 c56 -118 58 -128 27 -128 -29 0 -48 25 -95 124 -25 54 -29 71 -19 77 33 21 48 8 87 -73z m-1579 -240 c0 -117 3 -223 6 -235 6 -22 10 -23 130 -23 119 0 146 -5 180 -35 33 -31 34 -48 34 -834 l0 -781 -22 -34 -22 -34 -386 -7 c-212 -4 -425 -10 -475 -13 l-90 -7 -3 -182 -2 -181 -45 -48 -45 -47 -212 6 c-116 4 -651 7 -1188 7 l-978 0 -36 37 -36 37 0 786 0 786 33 31 c31 30 36 31 142 38 61 3 127 8 148 11 l37 6 0 229 c0 126 3 229 8 229 10 0 65 -45 200 -165 63 -55 135 -117 160 -138 26 -21 59 -50 74 -63 15 -13 32 -24 37 -24 5 0 11 -4 13 -8 10 -25 80 -63 120 -65 l43 -2 3 175 c3 196 11 230 66 268 l32 22 740 0 c852 0 742 -14 897 119 49 42 109 92 132 111 23 19 82 69 130 110 108 92 156 130 167 130 4 0 8 -96 8 -212z m-4435 150 c-7 -38 -17 -66 -58 -161 -7 -16 -17 -25 -25 -22 -8 3 -18 5 -24 5 -14 0 1 77 25 125 18 37 69 95 83 95 3 0 3 -19 -1 -42z m6157 -243 c15 -44 27 -93 26 -110 l-3 -30 -31 31 c-16 18 -36 52 -44 75 -7 24 -17 48 -22 54 -4 5 -8 22 -8 38 0 25 3 28 26 25 24 -3 30 -13 56 -83z m-6282 -67 c0 -22 -39 -167 -50 -188 -6 -12 -21 -20 -35 -20 -20 0 -25 5 -25 25 0 13 4 34 9 47 5 13 14 41 21 63 7 22 20 50 28 63 15 23 52 30 52 10z m6363 -200 c14 -18 27 -51 30 -73 8 -62 19 -99 31 -107 6 -4 37 -8 68 -8 31 0 67 -4 80 -9 13 -5 43 -14 68 -21 78 -21 203 -88 268 -143 166 -142 254 -327 269 -566 3 -51 1 -100 -7 -125 -6 -23 -16 -57 -21 -76 -11 -36 -24 -71 -40 -102 -5 -10 -9 -22 -9 -28 0 -20 -90 -147 -142 -199 -86 -88 -215 -163 -328 -193 -80 -20 -251 -38 -270 -28 -10 5 -32 10 -48 10 -38 0 -141 34 -217 72 -133 67 -250 183 -320 319 -32 62 -40 79 -65 147 -8 19 -13 87 -13 170 -1 149 21 266 68 364 80 167 244 308 425 367 116 38 126 41 143 41 19 0 22 25 8 62 -5 13 -12 54 -16 91 -8 77 1 85 38 35z m-6470 -157 c6 -29 10 -31 105 -48 18 -3 35 -9 38 -14 3 -5 16 -9 29 -9 13 0 27 -4 30 -10 3 -5 14 -10 22 -10 34 0 161 -87 234 -160 127 -127 184 -244 213 -437 14 -97 -1 -246 -34 -328 -87 -219 -202 -346 -397 -437 -36 -17 -82 -35 -102 -39 -108 -24 -106 -22 -106 -60 1 -18 4 -44 9 -57 7 -21 5 -23 -20 -20 -28 3 -34 11 -54 64 -9 26 -18 32 -69 42 -31 7 -68 12 -81 12 -46 0 -167 43 -249 88 -187 105 -309 272 -370 508 -14 54 -14 225 0 278 23 89 33 121 39 131 4 6 13 26 20 45 22 58 109 177 170 233 122 112 319 197 456 197 37 0 50 5 72 29 35 37 38 37 45 2z m6459 -1698 c-2 -17 -12 -55 -23 -84 -10 -30 -19 -61 -19 -71 0 -17 -36 -35 -48 -23 -11 11 -1 89 19 144 26 71 27 73 52 69 18 -2 21 -9 19 -35z m-6358 -95 c34 -93 46 -134 46 -160 0 -31 0 -31 -32 -19 -18 7 -29 24 -42 68 -10 32 -23 68 -27 81 -18 46 -9 69 28 71 6 1 18 -18 27 -41z m6223 -175 c-4 -3 -10 -3 -14 0 -3 4 0 7 7 7 7 0 10 -3 7 -7z m7 -74 c-2 -51 -61 -172 -82 -164 -7 3 -18 5 -24 5 -16 0 -1 45 43 139 44 90 65 97 63 20z m-6090 -101 c33 -48 66 -151 54 -163 -3 -3 -17 -1 -31 4 -27 10 -63 70 -87 144 -26 81 14 90 64 15z m5935 -201 c11 -20 7 -32 -35 -105 -41 -73 -49 -82 -75 -82 -32 0 -36 12 -16 57 19 46 91 152 103 153 6 0 16 -10 23 -23z m-5720 -191 c22 -47 27 -86 13 -86 -17 0 -85 76 -103 115 -10 22 -18 56 -18 75 l0 35 43 -47 c24 -26 53 -67 65 -92z m5541 -114 c0 -23 -47 -98 -95 -151 -30 -33 -40 -39 -51 -30 -8 6 -14 19 -14 28 0 17 58 110 93 149 25 27 67 30 67 4z m-5384 -99 c9 -16 35 -49 56 -74 71 -84 35 -124 -45 -50 -42 39 -87 110 -87 137 0 27 56 17 76 -13z m4469 -130 c116 -30 240 -99 329 -183 144 -136 222 -306 233 -505 7 -132 -12 -229 -68 -350 -63 -137 -196 -277 -327 -343 -42 -21 -88 -42 -102 -46 -116 -33 -144 -37 -257 -37 -112 0 -167 8 -215 32 -10 5 -24 9 -32 9 -35 0 -179 88 -260 160 -29 26 -103 120 -122 155 -11 22 -10 22 -111 4 -78 -14 -88 -11 -79 19 6 18 40 32 110 47 31 7 31 5 0 110 -14 46 -18 95 -18 210 0 132 2 158 23 215 73 204 204 356 381 441 47 23 93 45 102 50 10 5 30 9 45 9 16 0 35 5 43 10 19 13 270 7 325 -7z m-3441 -14 c282 -53 489 -217 594 -469 29 -69 52 -194 52 -278 0 -83 -25 -197 -61 -279 -11 -24 -19 -45 -19 -48 0 -13 -87 -134 -130 -179 -140 -150 -375 -247 -561 -232 -109 8 -163 17 -173 27 -6 5 -18 9 -28 9 -10 0 -26 4 -36 9 -9 5 -46 23 -82 41 -107 54 -219 155 -284 255 -88 136 -140 351 -116 482 17 99 38 166 81 268 22 50 39 94 39 100 0 5 -38 46 -85 90 -47 44 -85 86 -85 93 0 7 14 12 35 12 27 0 44 -9 74 -37 47 -47 81 -101 81 -130 0 -30 14 -29 33 1 46 69 178 170 273 208 153 61 279 79 398 57z m4136 -32 c0 -21 -54 -99 -98 -141 -30 -29 -45 -36 -61 -31 -36 11 -25 47 32 102 68 67 127 100 127 70z m-3434 -1006 c16 -5 56 -15 89 -22 62 -13 75 -22 75 -52 0 -16 -6 -17 -52 -11 -29 3 -78 12 -108 18 -51 12 -55 14 -58 44 -4 35 4 38 54 23z m1594 -71 c0 -32 -41 -50 -136 -59 -49 -4 -91 -7 -93 -5 -2 2 -1 10 3 19 11 28 85 51 214 64 6 0 12 -8 12 -19z m-1111 -27 c32 -19 45 -38 35 -54 -8 -13 -70 -11 -135 5 -68 16 -99 32 -99 51 0 23 158 21 199 -2z m758 -30 c4 -10 -2 -23 -16 -35 -19 -14 -41 -18 -110 -18 -89 0 -111 8 -111 41 0 21 24 25 148 27 69 2 84 -1 89 -15z m-372 -23 l0 -25 -105 0 -105 0 -3 28 -3 28 108 -3 c108 -3 108 -3 108 -28z"/>
</g>
<g id="layer111" fill="#d8e6ef" stroke="none">
<path d="M20 11945 c0 -30 -4 -55 -10 -55 -6 0 -10 -33 -10 -80 0 -47 4 -80 10 -80 6 0 10 -32 10 -75 0 -43 -4 -75 -10 -75 -6 0 -10 -33 -10 -80 0 -47 4 -80 10 -80 6 0 10 -32 10 -75 0 -43 -4 -75 -10 -75 -6 0 -10 -33 -10 -80 0 -47 4 -80 10 -80 6 0 10 -32 10 -75 0 -43 -4 -75 -10 -75 -13 0 -13 -147 0 -155 13 -8 13 -142 0 -150 -13 -8 -13 -152 0 -160 13 -8 13 -142 0 -150 -6 -3 -10 -39 -10 -80 0 -41 4 -77 10 -80 13 -8 13 -145 0 -145 -6 0 -10 -33 -10 -80 0 -47 4 -80 10 -80 6 0 10 -32 10 -75 0 -43 -4 -75 -10 -75 -6 0 -10 -33 -10 -80 0 -47 4 -80 10 -80 6 0 10 -32 10 -75 0 -43 -4 -75 -10 -75 -6 0 -10 -33 -10 -80 0 -47 4 -80 10 -80 13 0 13 -137 0 -145 -6 -3 -10 -39 -10 -80 0 -41 4 -77 10 -80 13 -8 13 -142 0 -150 -13 -8 -13 -152 0 -160 13 -8 13 -145 0 -145 -6 0 -10 -33 -10 -80 0 -47 4 -80 10 -80 6 0 10 -32 10 -75 0 -43 -4 -75 -10 -75 -6 0 -10 -33 -10 -80 0 -47 4 -80 10 -80 6 0 10 -32 10 -75 0 -43 -4 -75 -10 -75 -6 0 -10 -33 -10 -80 0 -47 4 -80 10 -80 6 0 10 -32 10 -75 0 -43 -4 -75 -10 -75 -13 0 -13 -147 0 -155 5 -3 10 -37 10 -75 0 -38 -5 -72 -10 -75 -6 -3 -10 -39 -10 -80 0 -41 4 -77 10 -80 5 -3 10 -37 10 -75 0 -38 -5 -72 -10 -75 -6 -3 -10 -39 -10 -80 0 -41 4 -77 10 -80 13 -8 13 -145 0 -145 -6 0 -10 -33 -10 -80 0 -47 4 -80 10 -80 6 0 10 -32 10 -75 0 -43 -4 -75 -10 -75 -6 0 -10 -33 -10 -80 0 -47 4 -80 10 -80 6 0 10 -32 10 -75 0 -43 -4 -75 -10 -75 -6 0 -10 -33 -10 -80 0 -47 4 -80 10 -80 13 0 13 -137 0 -145 -13 -8 -13 -152 0 -160 13 -8 13 -142 0 -150 -13 -8 -13 -152 0 -160 13 -8 13 -142 0 -150 -13 -8 -13 -155 0 -155 6 0 10 -32 10 -75 0 -43 -4 -75 -10 -75 -6 0 -10 -33 -10 -80 0 -47 4 -80 10 -80 6 0 10 -32 10 -75 0 -43 -4 -75 -10 -75 -6 0 -10 -33 -10 -80 0 -47 4 -80 10 -80 6 0 10 -32 10 -75 0 -43 -4 -75 -10 -75 -13 0 -13 -147 0 -155 13 -8 13 -142 0 -150 -13 -8 -13 -152 0 -160 13 -8 13 -142 0 -150 -13 -8 -13 -152 0 -160 13 -8 13 -145 0 -145 -6 0 -10 -33 -10 -80 0 -47 4 -80 10 -80 6 0 10 -32 10 -75 0 -43 -4 -75 -10 -75 -6 0 -10 -33 -10 -80 0 -47 4 -80 10 -80 6 0 10 -32 10 -75 0 -43 -4 -75 -10 -75 -6 0 -10 -33 -10 -80 0 -47 4 -80 10 -80 13 0 13 -137 0 -145 -6 -3 -10 -39 -10 -80 0 -41 4 -77 10 -80 13 -8 13 -142 0 -150 -13 -8 -13 -152 0 -160 13 -8 13 -142 0 -150 -13 -8 -13 -155 0 -155 6 0 10 -32 10 -75 0 -43 -4 -75 -10 -75 -6 0 -10 -33 -10 -80 0 -47 4 -80 10 -80 6 0 10 -32 10 -75 0 -43 -4 -75 -10 -75 -6 0 -10 -33 -10 -80 0 -47 4 -80 10 -80 6 0 10 -32 10 -75 0 -43 -4 -75 -10 -75 -13 0 -13 -147 0 -155 13 -8 13 -142 0 -150 -13 -8 -13 -152 0 -160 5 -3 10 -37 10 -75 0 -38 -5 -72 -10 -75 -6 -3 -10 -39 -10 -80 0 -60 3 -74 18 -81 18 -8 11856 -15 11935 -6 l47 5 0 5993 0 5994 -5990 0 -5990 0 0 -55z m7841 -2334 c13 -5 44 -15 69 -22 101 -30 206 -97 296 -191 110 -113 162 -211 195 -362 32 -152 22 -268 -38 -431 -40 -108 -40 -115 1 -154 20 -19 36 -31 36 -27 0 4 16 -11 35 -34 41 -49 41 -64 -3 -68 -27 -3 -34 2 -56 37 -28 43 -61 71 -87 71 -9 0 -43 -26 -75 -59 -162 -161 -326 -231 -543 -231 -294 1 -548 164 -674 433 -54 115 -62 157 -61 312 1 152 14 220 60 309 15 28 31 61 38 73 6 13 14 23 19 23 4 0 7 6 7 14 0 21 129 150 195 194 97 64 216 113 310 126 48 7 250 -2 276 -13z m-3404 -22 c198 -45 309 -110 444 -260 61 -67 73 -77 92 -70 12 5 42 14 67 21 25 7 56 16 69 22 47 18 57 -32 11 -57 -14 -7 -45 -19 -70 -26 -25 -7 -48 -15 -53 -19 -4 -4 0 -31 9 -61 68 -231 70 -345 11 -524 -57 -175 -196 -339 -357 -420 -59 -30 -180 -70 -254 -85 -107 -22 -308 15 -436 80 -47 24 -149 98 -185 135 -156 159 -246 412 -215 603 15 96 46 205 72 256 104 203 294 348 533 404 57 13 206 14 262 1z m1431 -192 c8 -38 -15 -47 -123 -47 -80 0 -105 3 -115 15 -8 10 -10 19 -4 25 17 17 88 28 164 27 63 -2 75 -5 78 -20z m350 -9 l-3 -33 -65 -3 c-36 -1 -83 1 -105 6 -34 6 -41 12 -43 35 l-3 27 111 0 111 0 -3 -32z m347 -14 c9 -9 15 -24 13 -33 -5 -25 -162 -16 -200 11 -16 11 -28 24 -28 29 0 5 45 9 99 9 79 0 103 -3 116 -16z m-1055 -19 c7 -9 11 -17 9 -18 -14 -10 -86 -28 -152 -38 -67 -11 -80 -11 -87 1 -6 8 -10 20 -10 27 0 34 215 58 240 28z m1380 -54 c30 -14 56 -32 58 -38 8 -26 -170 -9 -215 20 -7 5 -13 19 -13 32 0 23 2 23 58 18 31 -3 82 -17 112 -32z m-3261 -927 c17 -16 -120 -174 -150 -174 -25 0 -35 25 -21 53 5 12 34 48 62 80 46 51 56 58 79 52 14 -4 28 -9 30 -11z m4995 -194 c61 -78 85 -140 53 -140 -22 0 -84 58 -122 115 -35 53 -36 57 -20 75 21 24 36 15 89 -50z m-2374 -148 c0 -92 4 -172 8 -178 4 -7 58 -17 120 -24 105 -12 114 -15 137 -42 25 -29 25 -31 25 -236 0 -114 3 -271 7 -349 l6 -143 146 0 c170 0 163 -3 304 119 49 42 109 92 132 111 23 19 82 69 130 110 108 92 156 130 167 130 4 0 8 -96 8 -212 0 -117 3 -223 6 -235 6 -22 10 -23 130 -23 119 0 146 -5 180 -35 32 -29 34 -55 34 -426 l0 -371 23 7 c45 14 249 24 482 23 293 -1 307 3 339 80 73 174 247 329 436 391 116 38 126 41 144 41 15 0 17 6 12 33 -19 102 -28 178 -22 185 15 14 64 -59 69 -102 8 -61 19 -100 31 -108 6 -4 37 -8 68 -8 31 0 67 -4 80 -9 13 -5 43 -14 68 -21 78 -21 203 -88 268 -143 166 -142 254 -327 269 -566 3 -51 1 -100 -7 -125 -6 -23 -16 -57 -21 -76 -11 -36 -24 -71 -40 -102 -5 -10 -9 -22 -9 -28 0 -14 -76 -130 -113 -170 l-32 -35 3 -289 c2 -204 0 -298 -9 -318 -23 -55 -39 -57 -405 -58 -204 -1 -334 -5 -334 -11 0 -5 4 -9 9 -9 5 0 7 -21 5 -47 -3 -46 -58 -173 -75 -173 -5 0 -9 -7 -9 -15 0 -31 -51 -117 -65 -111 -12 4 -12 2 -4 -12 8 -13 1 -34 -36 -99 -42 -74 -50 -83 -76 -83 -20 0 -29 5 -29 15 0 18 27 76 53 116 l18 27 -33 7 c-18 5 -432 9 -920 11 -488 1 -903 5 -923 8 -68 13 -69 20 -75 464 l-5 392 105 2 105 1 -95 6 c-52 3 -129 4 -170 1 l-75 -5 -3 -182 -2 -181 -45 -48 -45 -47 -212 6 c-116 4 -651 7 -1188 7 l-978 0 -36 37 -36 37 -1 566 c-1 311 -4 556 -6 544 -4 -20 -13 -21 -131 -27 -377 -20 -459 -3 -476 96 -11 58 -8 1175 3 1231 6 32 17 55 32 67 29 22 120 33 131 16 5 -8 8 -7 8 6 0 14 9 17 49 17 l48 0 7 53 c3 28 6 79 6 112 0 92 12 195 22 195 5 0 19 -9 31 -21 12 -12 38 -33 57 -47 19 -15 37 -29 40 -32 23 -26 235 -202 270 -226 55 -36 99 -59 103 -53 2 2 8 74 14 159 10 167 19 196 69 218 18 9 193 12 622 12 544 1 600 2 634 18 21 9 99 69 174 132 209 175 278 229 286 224 4 -3 8 -80 8 -172z m-2871 36 c-52 -103 -123 -172 -143 -139 -7 10 16 71 26 71 4 0 8 5 8 11 0 6 14 31 32 55 26 37 37 44 65 44 l33 0 -21 -42z m5426 -144 c14 -15 38 -54 55 -87 16 -33 35 -66 41 -74 9 -10 9 -17 1 -25 -9 -9 -12 -9 -12 0 0 7 -6 12 -14 12 -42 0 -155 172 -125 191 21 13 28 11 54 -17z m-5615 -119 c0 -11 -45 -102 -73 -147 -29 -48 -40 -55 -66 -39 -12 8 -7 26 29 100 42 88 45 91 77 91 18 0 33 -2 33 -5z m5829 -247 c56 -118 58 -128 27 -128 -29 0 -48 25 -95 124 -25 54 -29 71 -19 77 33 21 48 8 87 -73z m-6014 -90 c-7 -38 -17 -66 -58 -161 -7 -16 -17 -25 -25 -22 -8 3 -18 5 -24 5 -14 0 1 77 25 125 18 37 69 95 83 95 3 0 3 -19 -1 -42z m6157 -243 c15 -44 27 -93 26 -110 l-3 -30 -31 31 c-16 18 -36 52 -44 75 -7 24 -17 48 -22 54 -4 5 -8 22 -8 38 0 25 3 28 26 25 24 -3 30 -13 56 -83z m-6282 -67 c0 -22 -39 -167 -50 -188 -6 -12 -21 -20 -35 -20 -20 0 -25 5 -25 25 0 13 4 34 9 47 5 13 14 41 21 63 7 22 20 50 28 63 15 23 52 30 52 10z m-107 -357 c6 -29 10 -31 105 -48 18 -3 35 -9 38 -14 3 -5 16 -9 29 -9 13 0 27 -4 30 -10 3 -5 14 -10 22 -10 34 0 161 -87 234 -160 127 -127 184 -244 213 -437 14 -97 -1 -246 -34 -328 -87 -219 -202 -346 -397 -437 -36 -17 -82 -35 -102 -39 -108 -24 -106 -22 -106 -60 1 -18 4 -44 9 -57 7 -21 5 -23 -20 -20 -28 3 -34 11 -54 64 -9 26 -18 32 -69 42 -31 7 -68 12 -81 12 -46 0 -167 43 -249 88 -187 105 -309 272 -370 508 -14 54 -14 225 0 278 23 89 33 121 39 131 4 6 13 26 20 45 22 58 109 177 170 233 122 112 319 197 456 197 37 0 50 5 72 29 35 37 38 37 45 2z m101 -1793 c34 -93 46 -134 46 -160 0 -31 0 -31 -32 -19 -18 7 -29 24 -42 68 -10 32 -23 68 -27 81 -18 46 -9 69 28 71 6 1 18 -18 27 -41z m140 -350 c33 -48 66 -151 54 -163 -3 -3 -17 -1 -31 4 -27 10 -63 70 -87 144 -26 81 14 90 64 15z m215 -392 c22 -47 27 -86 13 -86 -17 0 -85 76 -103 115 -10 22 -18 56 -18 75 l0 35 43 -47 c24 -26 53 -67 65 -92z m5541 -114 c0 -23 -47 -98 -95 -151 -30 -33 -40 -39 -51 -30 -8 6 -14 19 -14 28 0 17 58 110 93 149 25 27 67 30 67 4z m-5384 -99 c9 -16 35 -49 56 -74 71 -84 35 -124 -45 -50 -42 39 -87 110 -87 137 0 27 56 17 76 -13z m4469 -130 c116 -30 240 -99 329 -183 144 -136 222 -306 233 -505 7 -132 -12 -229 -68 -350 -63 -137 -196 -277 -327 -343 -42 -21 -88 -42 -102 -46 -116 -33 -144 -37 -257 -37 -112 0 -167 8 -215 32 -10 5 -24 9 -32 9 -35 0 -179 88 -260 160 -29 26 -103 120 -122 155 -11 22 -10 22 -111 4 -78 -14 -88 -11 -79 19 6 18 40 32 110 47 31 7 31 5 0 110 -14 46 -18 95 -18 210 0 132 2 158 23 215 73 204 204 356 381 441 47 23 93 45 102 50 10 5 30 9 45 9 16 0 35 5 43 10 19 13 270 7 325 -7z m-3441 -14 c282 -53 489 -217 594 -469 29 -69 52 -194 52 -278 0 -83 -25 -197 -61 -279 -11 -24 -19 -45 -19 -48 0 -13 -87 -134 -130 -179 -140 -150 -375 -247 -561 -232 -109 8 -163 17 -173 27 -6 5 -18 9 -28 9 -10 0 -26 4 -36 9 -9 5 -46 23 -82 41 -107 54 -219 155 -284 255 -88 136 -140 351 -116 482 17 99 38 166 81 268 22 50 39 94 39 100 0 5 -38 46 -85 90 -47 44 -85 86 -85 93 0 7 14 12 35 12 27 0 44 -9 74 -37 47 -47 81 -101 81 -130 0 -30 14 -29 33 1 46 69 178 170 273 208 153 61 279 79 398 57z m4136 -32 c0 -21 -54 -99 -98 -141 -30 -29 -45 -36 -61 -31 -36 11 -25 47 32 102 68 67 127 100 127 70z m-3434 -1006 c16 -5 56 -15 89 -22 62 -13 75 -22 75 -52 0 -16 -6 -17 -52 -11 -29 3 -78 12 -108 18 -51 12 -55 14 -58 44 -4 35 4 38 54 23z m1594 -71 c0 -32 -41 -50 -136 -59 -49 -4 -91 -7 -93 -5 -2 2 -1 10 3 19 11 28 85 51 214 64 6 0 12 -8 12 -19z m-1111 -27 c32 -19 45 -38 35 -54 -8 -13 -70 -11 -135 5 -68 16 -99 32 -99 51 0 23 158 21 199 -2z m758 -30 c4 -10 -2 -23 -16 -35 -19 -14 -41 -18 -110 -18 -89 0 -111 8 -111 41 0 21 24 25 148 27 69 2 84 -1 89 -15z m-372 -23 l0 -25 -105 0 -105 0 -3 28 -3 28 108 -3 c108 -3 108 -3 108 -28z"/>
</g>
<g id="layer112" fill="#f8eacf" stroke="none">
<path d="M20 11945 c0 -30 -4 -55 -10 -55 -6 0 -10 -33 -10 -80 0 -47 4 -80 10 -80 6 0 10 -32 10 -75 0 -43 -4 -75 -10 -75 -6 0 -10 -33 -10 -80 0 -47 4 -80 10 -80 6 0 10 -32 10 -75 0 -43 -4 -75 -10 -75 -6 0 -10 -33 -10 -80 0 -47 4 -80 10 -80 6 0 10 -32 10 -75 0 -43 -4 -75 -10 -75 -13 0 -13 -147 0 -155 13 -8 13 -142 0 -150 -13 -8 -13 -152 0 -160 13 -8 13 -142 0 -150 -6 -3 -10 -39 -10 -80 0 -41 4 -77 10 -80 13 -8 13 -145 0 -145 -6 0 -10 -33 -10 -80 0 -47 4 -80 10 -80 6 0 10 -32 10 -75 0 -43 -4 -75 -10 -75 -6 0 -10 -33 -10 -80 0 -47 4 -80 10 -80 6 0 10 -32 10 -75 0 -43 -4 -75 -10 -75 -6 0 -10 -33 -10 -80 0 -47 4 -80 10 -80 13 0 13 -137 0 -145 -6 -3 -10 -39 -10 -80 0 -41 4 -77 10 -80 13 -8 13 -142 0 -150 -13 -8 -13 -152 0 -160 13 -8 13 -145 0 -145 -6 0 -10 -33 -10 -80 0 -47 4 -80 10 -80 6 0 10 -32 10 -75 0 -43 -4 -75 -10 -75 -6 0 -10 -33 -10 -80 0 -47 4 -80 10 -80 6 0 10 -32 10 -75 0 -43 -4 -75 -10 -75 -6 0 -10 -33 -10 -80 0 -47 4 -80 10 -80 6 0 10 -32 10 -75 0 -43 -4 -75 -10 -75 -13 0 -13 -147 0 -155 5 -3 10 -37 10 -75 0 -38 -5 -72 -10 -75 -6 -3 -10 -39 -10 -80 0 -41 4 -77 10 -80 5 -3 10 -37 10 -75 0 -38 -5 -72 -10 -75 -6 -3 -10 -39 -10 -80 0 -41 4 -77 10 -80 13 -8 13 -145 0 -145 -6 0 -10 -33 -10 -80 0 -47 4 -80 10 -80 6 0 10 -32 10 -75 0 -43 -4 -75 -10 -75 -6 0 -10 -33 -10 -80 0 -47 4 -80 10 -80 6 0 10 -32 10 -75 0 -43 -4 -75 -10 -75 -6 0 -10 -33 -10 -80 0 -47 4 -80 10 -80 13 0 13 -137 0 -145 -13 -8 -13 -152 0 -160 13 -8 13 -142 0 -150 -13 -8 -13 -152 0 -160 13 -8 13 -142 0 -150 -13 -8 -13 -155 0 -155 6 0 10 -32 10 -75 0 -43 -4 -75 -10 -75 -6 0 -10 -33 -10 -80 0 -47 4 -80 10 -80 6 0 10 -32 10 -75 0 -43 -4 -75 -10 -75 -6 0 -10 -33 -10 -80 0 -47 4 -80 10 -80 6 0 10 -32 10 -75 0 -43 -4 -75 -10 -75 -13 0 -13 -147 0 -155 13 -8 13 -142 0 -150 -13 -8 -13 -152 0 -160 13 -8 13 -142 0 -150 -13 -8 -13 -152 0 -160 13 -8 13 -145 0 -145 -6 0 -10 -33 -10 -80 0 -47 4 -80 10 -80 6 0 10 -32 10 -75 0 -43 -4 -75 -10 -75 -6 0 -10 -33 -10 -80 0 -47 4 -80 10 -80 6 0 10 -32 10 -75 0 -43 -4 -75 -10 -75 -6 0 -10 -33 -10 -80 0 -47 4 -80 10 -80 13 0 13 -137 0 -145 -6 -3 -10 -39 -10 -80 0 -41 4 -77 10 -80 13 -8 13 -142 0 -150 -13 -8 -13 -152 0 -160 13 -8 13 -142 0 -150 -13 -8 -13 -155 0 -155 6 0 10 -32 10 -75 0 -43 -4 -75 -10 -75 -6 0 -10 -33 -10 -80 0 -47 4 -80 10 -80 6 0 10 -32 10 -75 0 -43 -4 -75 -10 -75 -6 0 -10 -33 -10 -80 0 -47 4 -80 10 -80 6 0 10 -32 10 -75 0 -43 -4 -75 -10 -75 -13 0 -13 -147 0 -155 13 -8 13 -142 0 -150 -13 -8 -13 -152 0 -160 5 -3 10 -37 10 -75 0 -38 -5 -72 -10 -75 -6 -3 -10 -39 -10 -80 0 -60 3 -74 18 -81 18 -8 11856 -15 11935 -6 l47 5 0 5993 0 5994 -5990 0 -5990 0 0 -55z m7841 -2334 c13 -5 44 -15 69 -22 101 -30 206 -97 296 -191 110 -113 162 -211 195 -362 32 -151 22 -267 -38 -431 -40 -110 -40 -112 -3 -150 18 -19 36 -32 40 -30 11 7 81 -76 77 -89 -4 -13 -97 -21 -98 -9 -3 34 -12 52 -39 76 -16 15 -39 27 -49 27 -10 0 -45 -26 -77 -59 -162 -161 -326 -231 -543 -231 -294 1 -548 164 -674 433 -54 115 -62 157 -61 312 1 152 14 220 60 309 15 28 31 61 38 73 6 13 14 23 19 23 4 0 7 6 7 14 0 21 129 150 195 194 97 64 216 113 310 126 48 7 250 -2 276 -13z m-3404 -22 c198 -45 309 -110 444 -260 61 -67 73 -77 92 -70 12 5 42 14 67 21 25 7 56 16 69 22 47 18 57 -32 11 -57 -14 -7 -45 -19 -70 -26 -25 -7 -48 -15 -53 -19 -4 -4 0 -31 9 -61 68 -231 70 -345 11 -524 -57 -175 -196 -339 -357 -420 -59 -30 -180 -70 -254 -85 -107 -22 -308 15 -436 80 -47 24 -149 98 -185 135 -156 159 -246 412 -215 603 15 96 46 205 72 256 104 203 294 348 533 404 57 13 206 14 262 1z m1431 -192 c8 -38 -15 -47 -123 -47 -80 0 -105 3 -115 15 -8 10 -10 19 -4 25 17 17 88 28 164 27 63 -2 75 -5 78 -20z m350 -9 l-3 -33 -65 -3 c-36 -1 -83 1 -105 6 -34 6 -41 12 -43 35 l-3 27 111 0 111 0 -3 -32z m347 -14 c9 -9 15 -24 13 -33 -5 -25 -162 -16 -200 11 -16 11 -28 24 -28 29 0 5 45 9 99 9 79 0 103 -3 116 -16z m-1055 -19 c7 -9 11 -17 9 -18 -14 -10 -86 -28 -152 -38 -67 -11 -80 -11 -87 1 -6 8 -10 20 -10 27 0 34 215 58 240 28z m27 -22 c-4 -3 -7 0 -7 7 0 7 3 10 7 7 3 -4 3 -10 0 -14z m1353 -32 c30 -14 56 -32 58 -38 8 -26 -170 -9 -215 20 -7 5 -13 19 -13 32 0 23 2 23 58 18 31 -3 82 -17 112 -32z m-3261 -927 c17 -16 -120 -174 -150 -174 -25 0 -35 25 -21 53 5 12 34 48 62 80 46 51 56 58 79 52 14 -4 28 -9 30 -11z m4995 -194 c61 -78 85 -140 53 -140 -22 0 -84 58 -122 115 -35 53 -36 57 -20 75 21 24 36 15 89 -50z m-2374 -148 c0 -92 4 -172 8 -178 4 -7 58 -17 120 -24 105 -12 114 -15 137 -42 25 -29 25 -31 25 -236 0 -114 3 -271 7 -349 l6 -143 146 0 c170 0 163 -3 304 119 49 42 109 92 132 111 23 19 82 69 130 110 108 92 156 130 167 130 4 0 8 -96 8 -212 0 -117 3 -223 6 -235 6 -22 10 -23 130 -23 119 0 146 -5 180 -35 32 -29 34 -55 34 -426 l0 -371 23 7 c45 14 249 24 482 23 293 -1 307 3 339 80 73 174 247 329 436 391 116 38 126 41 143 41 22 0 21 18 -3 105 -32 116 -22 156 27 103 25 -29 35 -54 38 -98 4 -50 16 -94 29 -102 6 -4 37 -8 68 -8 31 0 67 -4 80 -9 13 -5 43 -14 68 -21 78 -21 203 -88 268 -143 166 -142 254 -327 269 -566 3 -51 1 -100 -7 -125 -6 -23 -16 -57 -21 -76 -11 -36 -24 -71 -40 -102 -5 -10 -9 -22 -9 -28 0 -14 -76 -130 -113 -170 l-32 -35 3 -289 c2 -204 0 -298 -9 -318 -23 -55 -39 -57 -405 -58 -204 -1 -334 -5 -334 -11 0 -5 4 -9 9 -9 5 0 7 -21 5 -47 -3 -46 -58 -173 -75 -173 -5 0 -9 -7 -9 -15 0 -31 -51 -117 -65 -111 -12 4 -12 2 -4 -12 8 -13 1 -34 -36 -99 -42 -74 -50 -83 -76 -83 -20 0 -29 5 -29 15 0 18 27 76 53 116 l18 27 -33 7 c-18 5 -432 9 -920 11 -488 1 -903 5 -923 8 -68 13 -69 20 -75 464 l-5 392 105 2 105 1 -95 6 c-52 3 -129 4 -170 1 l-75 -5 -3 -182 -2 -181 -45 -48 -45 -47 -212 6 c-116 4 -651 7 -1188 7 l-978 0 -36 37 -36 37 -1 566 c-1 311 -4 556 -6 544 -4 -20 -13 -21 -131 -27 -377 -20 -459 -3 -476 96 -11 58 -8 1175 3 1231 6 32 17 55 32 67 29 22 120 33 131 16 5 -8 8 -7 8 6 0 14 9 17 49 17 l48 0 7 53 c3 28 6 79 6 112 0 92 12 195 22 195 5 0 19 -9 31 -21 12 -12 38 -33 57 -47 19 -15 37 -29 40 -32 23 -26 235 -202 270 -226 55 -36 99 -59 103 -53 2 2 8 74 14 159 10 167 19 196 69 218 18 9 193 12 622 12 544 1 600 2 634 18 21 9 99 69 174 132 209 175 278 229 286 224 4 -3 8 -80 8 -172z m-2871 36 c-52 -103 -123 -172 -143 -139 -7 10 16 71 26 71 4 0 8 5 8 11 0 6 14 31 32 55 26 37 37 44 65 44 l33 0 -21 -42z m5427 -145 c13 -14 36 -52 52 -84 15 -32 33 -58 40 -58 8 -1 12 -11 10 -26 -2 -14 -7 -24 -13 -23 -5 2 -9 6 -7 11 1 4 -4 7 -12 7 -42 0 -155 172 -125 191 21 13 28 11 55 -18z m-5616 -118 c0 -11 -45 -102 -73 -147 -29 -48 -40 -55 -66 -39 -12 8 -7 26 29 100 42 88 45 91 77 91 18 0 33 -2 33 -5z m5829 -247 c56 -118 58 -128 27 -128 -29 0 -48 25 -95 124 -25 54 -29 71 -19 77 33 21 48 8 87 -73z m-6014 -90 c-7 -38 -17 -66 -58 -161 -7 -16 -17 -25 -25 -22 -8 3 -18 5 -24 5 -14 0 1 77 25 125 18 37 69 95 83 95 3 0 3 -19 -1 -42z m6157 -243 c15 -44 27 -93 26 -110 l-3 -30 -31 31 c-16 18 -36 52 -44 75 -7 24 -17 48 -22 54 -4 5 -8 22 -8 38 0 25 3 28 26 25 24 -3 30 -13 56 -83z m-6282 -67 c0 -22 -39 -167 -50 -188 -6 -12 -21 -20 -35 -20 -20 0 -25 5 -25 25 0 13 4 34 9 47 5 13 14 41 21 63 7 22 20 50 28 63 15 23 52 30 52 10z m-107 -357 c6 -29 10 -31 105 -48 18 -3 35 -9 38 -14 3 -5 16 -9 29 -9 13 0 27 -4 30 -10 3 -5 14 -10 22 -10 34 0 161 -87 234 -160 127 -127 184 -244 213 -437 14 -97 -1 -246 -34 -328 -87 -219 -202 -346 -397 -437 -36 -17 -82 -35 -102 -39 -108 -24 -106 -22 -106 -60 1 -18 4 -44 9 -57 7 -21 5 -23 -20 -20 -28 3 -34 11 -54 64 -9 26 -18 32 -69 42 -31 7 -68 12 -81 12 -46 0 -167 43 -249 88 -187 105 -309 272 -370 508 -14 54 -14 225 0 278 23 89 33 121 39 131 4 6 13 26 20 45 22 58 109 177 170 233 122 112 319 197 456 197 37 0 50 5 72 29 35 37 38 37 45 2z m101 -1793 c34 -93 46 -134 46 -160 0 -31 0 -31 -32 -19 -18 7 -29 24 -42 68 -10 32 -23 68 -27 81 -18 46 -9 69 28 71 6 1 18 -18 27 -41z m140 -350 c33 -48 66 -151 54 -163 -3 -3 -17 -1 -31 4 -27 10 -63 70 -87 144 -26 81 14 90 64 15z m215 -392 c22 -47 27 -86 13 -86 -17 0 -85 76 -103 115 -10 22 -18 56 -18 75 l0 35 43 -47 c24 -26 53 -67 65 -92z m5541 -114 c0 -23 -47 -98 -95 -151 -30 -33 -40 -39 -51 -30 -8 6 -14 19 -14 28 0 17 58 110 93 149 25 27 67 30 67 4z m-5384 -99 c9 -16 35 -49 56 -74 71 -84 35 -124 -45 -50 -42 39 -87 110 -87 137 0 27 56 17 76 -13z m4469 -130 c116 -30 240 -99 329 -183 144 -136 222 -306 233 -505 7 -132 -12 -229 -68 -350 -63 -137 -196 -277 -327 -343 -42 -21 -88 -42 -102 -46 -116 -33 -144 -37 -257 -37 -112 0 -167 8 -215 32 -10 5 -24 9 -32 9 -35 0 -179 88 -260 160 -29 26 -103 120 -122 155 -11 22 -10 22 -111 4 -78 -14 -88 -11 -79 19 6 18 40 32 110 47 31 7 31 5 0 110 -14 46 -18 95 -18 210 0 132 2 158 23 215 73 204 204 356 381 441 47 23 93 45 102 50 10 5 30 9 45 9 16 0 35 5 43 10 19 13 270 7 325 -7z m-3441 -14 c282 -53 489 -217 594 -469 29 -69 52 -194 52 -278 0 -83 -25 -197 -61 -279 -11 -24 -19 -45 -19 -48 0 -13 -87 -134 -130 -179 -140 -150 -375 -247 -561 -232 -109 8 -163 17 -173 27 -6 5 -18 9 -28 9 -10 0 -26 4 -36 9 -9 5 -46 23 -82 41 -107 54 -219 155 -284 255 -88 136 -140 351 -116 482 17 99 38 166 81 268 22 50 39 95 39 101 0 5 -16 25 -35 44 -19 19 -35 30 -35 25 0 -11 -66 51 -92 89 -17 23 -18 30 -7 37 31 19 64 8 113 -36 26 -25 46 -45 42 -45 -3 0 3 -15 14 -32 11 -18 20 -43 20 -55 0 -30 14 -29 33 1 46 69 178 170 273 208 153 61 279 79 398 57z m4136 -32 c0 -21 -54 -99 -98 -141 -30 -29 -45 -36 -61 -31 -36 11 -25 47 32 102 68 67 127 100 127 70z m-3434 -1006 c16 -5 56 -15 89 -22 62 -13 75 -22 75 -52 0 -16 -6 -17 -52 -11 -29 3 -78 12 -108 18 -51 12 -55 14 -58 44 -4 35 4 38 54 23z m1594 -71 c0 -32 -41 -50 -136 -59 -49 -4 -91 -7 -93 -5 -2 2 -1 10 3 19 11 28 85 51 214 64 6 0 12 -8 12 -19z m-1111 -27 c32 -19 45 -38 35 -54 -8 -13 -70 -11 -135 5 -68 16 -99 32 -99 51 0 23 158 21 199 -2z m758 -30 c4 -10 -2 -23 -16 -35 -19 -14 -41 -18 -110 -18 -89 0 -111 8 -111 41 0 21 24 25 148 27 69 2 84 -1 89 -15z m-372 -23 l0 -25 -105 0 -105 0 -3 28 -3 28 108 -3 c108 -3 108 -3 108 -28z m392 13 c-4 -3 -7 0 -7 7 0 7 3 10 7 7 3 -4 3 -10 0 -14z"/>
</g>
<g id="layer113" fill="#fefefe" stroke="none">
<path d="M20 11945 c0 -30 -4 -55 -10 -55 -6 0 -10 -33 -10 -80 0 -47 4 -80 10 -80 6 0 10 -32 10 -75 0 -43 -4 -75 -10 -75 -6 0 -10 -33 -10 -80 0 -47 4 -80 10 -80 6 0 10 -32 10 -75 0 -43 -4 -75 -10 -75 -6 0 -10 -33 -10 -80 0 -47 4 -80 10 -80 6 0 10 -32 10 -75 0 -43 -4 -75 -10 -75 -13 0 -13 -147 0 -155 13 -8 13 -142 0 -150 -13 -8 -13 -152 0 -160 13 -8 13 -142 0 -150 -6 -3 -10 -39 -10 -80 0 -41 4 -77 10 -80 13 -8 13 -145 0 -145 -6 0 -10 -33 -10 -80 0 -47 4 -80 10 -80 6 0 10 -32 10 -75 0 -43 -4 -75 -10 -75 -6 0 -10 -33 -10 -80 0 -47 4 -80 10 -80 6 0 10 -32 10 -75 0 -43 -4 -75 -10 -75 -6 0 -10 -33 -10 -80 0 -47 4 -80 10 -80 13 0 13 -137 0 -145 -6 -3 -10 -39 -10 -80 0 -41 4 -77 10 -80 13 -8 13 -142 0 -150 -13 -8 -13 -152 0 -160 13 -8 13 -145 0 -145 -6 0 -10 -33 -10 -80 0 -47 4 -80 10 -80 6 0 10 -32 10 -75 0 -43 -4 -75 -10 -75 -6 0 -10 -33 -10 -80 0 -47 4 -80 10 -80 6 0 10 -32 10 -75 0 -43 -4 -75 -10 -75 -6 0 -10 -33 -10 -80 0 -47 4 -80 10 -80 6 0 10 -32 10 -75 0 -43 -4 -75 -10 -75 -13 0 -13 -147 0 -155 5 -3 10 -37 10 -75 0 -38 -5 -72 -10 -75 -6 -3 -10 -39 -10 -80 0 -41 4 -77 10 -80 5 -3 10 -37 10 -75 0 -38 -5 -72 -10 -75 -6 -3 -10 -39 -10 -80 0 -41 4 -77 10 -80 13 -8 13 -145 0 -145 -6 0 -10 -33 -10 -80 0 -47 4 -80 10 -80 6 0 10 -32 10 -75 0 -43 -4 -75 -10 -75 -6 0 -10 -33 -10 -80 0 -47 4 -80 10 -80 6 0 10 -32 10 -75 0 -43 -4 -75 -10 -75 -6 0 -10 -33 -10 -80 0 -47 4 -80 10 -80 13 0 13 -137 0 -145 -13 -8 -13 -152 0 -160 13 -8 13 -142 0 -150 -13 -8 -13 -152 0 -160 13 -8 13 -142 0 -150 -13 -8 -13 -155 0 -155 6 0 10 -32 10 -75 0 -43 -4 -75 -10 -75 -6 0 -10 -33 -10 -80 0 -47 4 -80 10 -80 6 0 10 -32 10 -75 0 -43 -4 -75 -10 -75 -6 0 -10 -33 -10 -80 0 -47 4 -80 10 -80 6 0 10 -32 10 -75 0 -43 -4 -75 -10 -75 -13 0 -13 -147 0 -155 13 -8 13 -142 0 -150 -13 -8 -13 -152 0 -160 13 -8 13 -142 0 -150 -13 -8 -13 -152 0 -160 13 -8 13 -145 0 -145 -6 0 -10 -33 -10 -80 0 -47 4 -80 10 -80 6 0 10 -32 10 -75 0 -43 -4 -75 -10 -75 -6 0 -10 -33 -10 -80 0 -47 4 -80 10 -80 6 0 10 -32 10 -75 0 -43 -4 -75 -10 -75 -6 0 -10 -33 -10 -80 0 -47 4 -80 10 -80 13 0 13 -137 0 -145 -6 -3 -10 -39 -10 -80 0 -41 4 -77 10 -80 13 -8 13 -142 0 -150 -13 -8 -13 -152 0 -160 13 -8 13 -142 0 -150 -13 -8 -13 -155 0 -155 6 0 10 -32 10 -75 0 -43 -4 -75 -10 -75 -6 0 -10 -33 -10 -80 0 -47 4 -80 10 -80 6 0 10 -32 10 -75 0 -43 -4 -75 -10 -75 -6 0 -10 -33 -10 -80 0 -47 4 -80 10 -80 6 0 10 -32 10 -75 0 -43 -4 -75 -10 -75 -13 0 -13 -147 0 -155 13 -8 13 -142 0 -150 -13 -8 -13 -152 0 -160 5 -3 10 -37 10 -75 0 -38 -5 -72 -10 -75 -6 -3 -10 -39 -10 -80 0 -60 3 -74 18 -81 18 -8 11856 -15 11935 -6 l47 5 0 5993 0 5994 -5990 0 -5990 0 0 -55z m7841 -2334 c13 -5 44 -15 69 -22 101 -30 206 -97 296 -191 110 -113 162 -211 195 -362 32 -151 22 -267 -38 -431 -40 -110 -40 -112 -3 -150 18 -19 36 -32 40 -30 11 7 81 -76 77 -89 -4 -13 -97 -21 -98 -9 -3 34 -12 52 -39 76 -16 15 -39 27 -49 27 -10 0 -45 -26 -77 -59 -162 -161 -326 -231 -543 -231 -294 1 -548 164 -674 433 -54 115 -62 157 -61 312 1 152 14 220 60 309 15 28 31 61 38 73 6 13 14 23 19 23 4 0 7 6 7 14 0 21 129 150 195 194 97 64 216 113 310 126 48 7 250 -2 276 -13z m-3404 -22 c198 -45 309 -110 444 -260 61 -67 73 -77 92 -70 12 5 42 14 67 21 25 7 56 16 69 22 47 18 57 -32 11 -57 -14 -7 -45 -19 -70 -26 -25 -7 -48 -15 -53 -19 -4 -4 0 -31 9 -61 68 -231 70 -345 11 -524 -57 -175 -196 -339 -357 -420 -59 -30 -180 -70 -254 -85 -107 -22 -308 15 -436 80 -47 24 -149 98 -185 135 -156 159 -246 412 -215 603 15 96 46 205 72 256 104 203 294 348 533 404 57 13 206 14 262 1z m1431 -192 c8 -38 -15 -47 -123 -47 -80 0 -105 3 -115 15 -8 10 -10 19 -4 25 17 17 88 28 164 27 63 -2 75 -5 78 -20z m350 -9 l-3 -33 -65 -3 c-36 -1 -83 1 -105 6 -34 6 -41 12 -43 35 l-3 27 111 0 111 0 -3 -32z m347 -14 c9 -9 15 -24 13 -33 -5 -25 -162 -16 -200 11 -16 11 -28 24 -28 29 0 5 45 9 99 9 79 0 103 -3 116 -16z m-1055 -19 c7 -9 11 -17 9 -18 -14 -10 -86 -28 -152 -38 -67 -11 -80 -11 -87 1 -6 8 -10 20 -10 27 0 34 215 58 240 28z m27 -22 c-4 -3 -7 0 -7 7 0 7 3 10 7 7 3 -4 3 -10 0 -14z m1353 -32 c30 -14 56 -32 58 -38 8 -26 -170 -9 -215 20 -7 5 -13 19 -13 32 0 23 2 23 58 18 31 -3 82 -17 112 -32z m-3261 -927 c17 -16 -120 -174 -150 -174 -25 0 -35 25 -21 53 5 12 34 48 62 80 46 51 56 58 79 52 14 -4 28 -9 30 -11z m4995 -194 c61 -78 85 -140 53 -140 -22 0 -84 58 -122 115 -35 53 -36 57 -20 75 21 24 36 15 89 -50z m-2374 -148 c0 -92 4 -172 8 -178 4 -7 58 -17 120 -24 105 -12 114 -15 137 -42 25 -29 25 -31 25 -236 0 -114 3 -271 7 -349 l6 -143 146 0 c170 0 163 -3 304 119 49 42 109 92 132 111 23 19 82 69 130 110 108 92 156 130 167 130 4 0 8 -96 8 -212 0 -117 3 -223 6 -235 6 -22 10 -23 130 -23 119 0 146 -5 180 -35 32 -29 34 -55 34 -426 l0 -371 23 7 c45 14 249 24 482 23 293 -1 307 3 339 80 73 174 247 329 436 391 116 38 126 41 143 41 22 0 21 18 -3 105 -32 116 -22 156 27 103 25 -29 35 -54 38 -98 4 -50 16 -94 29 -102 6 -4 37 -8 68 -8 31 0 67 -4 80 -9 13 -5 43 -14 68 -21 78 -21 203 -88 268 -143 166 -142 254 -327 269 -566 3 -51 1 -100 -7 -125 -6 -23 -16 -57 -21 -76 -11 -36 -24 -71 -40 -102 -5 -10 -9 -22 -9 -28 0 -14 -76 -130 -113 -170 l-32 -35 3 -289 c2 -204 0 -298 -9 -318 -23 -55 -39 -57 -405 -58 -204 -1 -334 -5 -334 -11 0 -5 4 -9 9 -9 5 0 7 -21 5 -47 -3 -46 -58 -173 -75 -173 -5 0 -9 -7 -9 -15 0 -31 -51 -117 -65 -111 -12 4 -12 2 -4 -12 8 -13 1 -34 -36 -99 -42 -74 -50 -83 -76 -83 -20 0 -29 5 -29 15 0 18 27 76 53 116 l18 27 -33 7 c-18 5 -432 9 -920 11 -488 1 -903 5 -923 8 -68 13 -69 20 -75 464 l-5 392 45 1 c40 1 42 2 15 8 -16 4 -66 5 -110 2 l-80 -6 -3 -182 -2 -181 -45 -48 -45 -47 -212 6 c-116 4 -651 7 -1188 7 l-978 0 -36 37 -36 37 -1 566 c-1 311 -4 556 -6 544 -4 -20 -13 -21 -131 -27 -377 -20 -459 -3 -476 96 -11 58 -8 1175 3 1231 6 32 17 55 32 67 29 22 120 33 131 16 5 -8 8 -7 8 6 0 14 9 17 49 17 l48 0 7 53 c3 28 6 79 6 112 0 92 12 195 22 195 5 0 19 -9 31 -21 12 -12 38 -33 57 -47 19 -15 37 -29 40 -32 23 -26 235 -202 270 -226 55 -36 99 -59 103 -53 2 2 8 74 14 159 10 167 19 196 69 218 18 9 193 12 622 12 544 1 600 2 634 18 21 9 99 69 174 132 209 175 278 229 286 224 4 -3 8 -80 8 -172z m-2871 36 c-52 -103 -123 -172 -143 -139 -7 10 16 71 26 71 4 0 8 5 8 11 0 6 14 31 32 55 26 37 37 44 65 44 l33 0 -21 -42z m5427 -145 c13 -14 36 -52 52 -84 15 -32 33 -58 40 -58 8 -1 12 -11 10 -26 -2 -14 -7 -24 -13 -23 -5 2 -9 6 -7 11 1 4 -4 7 -12 7 -42 0 -155 172 -125 191 21 13 28 11 55 -18z m-5616 -118 c0 -11 -45 -102 -73 -147 -29 -48 -40 -55 -66 -39 -12 8 -7 26 29 100 42 88 45 91 77 91 18 0 33 -2 33 -5z m5829 -247 c56 -118 58 -128 27 -128 -29 0 -48 25 -95 124 -25 54 -29 71 -19 77 33 21 48 8 87 -73z m-6014 -90 c-7 -38 -17 -66 -58 -161 -7 -16 -17 -25 -25 -22 -8 3 -18 5 -24 5 -14 0 1 77 25 125 18 37 69 95 83 95 3 0 3 -19 -1 -42z m6157 -243 c15 -44 27 -93 26 -110 l-3 -30 -31 31 c-16 18 -36 52 -44 75 -7 24 -17 48 -22 54 -4 5 -8 22 -8 38 0 25 3 28 26 25 24 -3 30 -13 56 -83z m-6282 -67 c0 -22 -39 -167 -50 -188 -6 -12 -21 -20 -35 -20 -20 0 -25 5 -25 25 0 13 4 34 9 47 5 13 14 41 21 63 7 22 20 50 28 63 15 23 52 30 52 10z m-107 -357 c6 -29 10 -31 105 -48 18 -3 35 -9 38 -14 3 -5 16 -9 29 -9 13 0 27 -4 30 -10 3 -5 14 -10 22 -10 34 0 161 -87 234 -160 127 -127 184 -244 213 -437 14 -97 -1 -246 -34 -328 -87 -219 -202 -346 -397 -437 -36 -17 -82 -35 -102 -39 -108 -24 -106 -22 -106 -60 1 -18 4 -44 9 -57 7 -21 5 -23 -20 -20 -28 3 -34 11 -54 64 -9 26 -18 32 -69 42 -31 7 -68 12 -81 12 -46 0 -167 43 -249 88 -187 105 -309 272 -370 508 -14 54 -14 225 0 278 23 89 33 121 39 131 4 6 13 26 20 45 22 58 109 177 170 233 122 112 319 197 456 197 37 0 50 5 72 29 35 37 38 37 45 2z m101 -1793 c34 -93 46 -134 46 -160 0 -31 0 -31 -32 -19 -18 7 -29 24 -42 68 -10 32 -23 68 -27 81 -18 46 -9 69 28 71 6 1 18 -18 27 -41z m140 -350 c33 -48 66 -151 54 -163 -3 -3 -17 -1 -31 4 -27 10 -63 70 -87 144 -26 81 14 90 64 15z m215 -392 c22 -47 27 -86 13 -86 -17 0 -85 76 -103 115 -10 22 -18 56 -18 75 l0 35 43 -47 c24 -26 53 -67 65 -92z m5541 -114 c0 -23 -47 -98 -95 -151 -30 -33 -40 -39 -51 -30 -8 6 -14 19 -14 28 0 17 58 110 93 149 25 27 67 30 67 4z m-5384 -99 c9 -16 35 -49 56 -74 71 -84 35 -124 -45 -50 -42 39 -87 110 -87 137 0 27 56 17 76 -13z m4469 -130 c116 -30 240 -99 329 -183 144 -136 222 -306 233 -505 7 -132 -12 -229 -68 -350 -63 -137 -196 -277 -327 -343 -42 -21 -88 -42 -102 -46 -116 -33 -144 -37 -257 -37 -112 0 -167 8 -215 32 -10 5 -24 9 -32 9 -35 0 -179 88 -260 160 -29 26 -103 120 -122 155 -11 22 -10 22 -111 4 -78 -14 -88 -11 -79 19 6 18 40 32 110 47 31 7 31 5 0 110 -14 46 -18 95 -18 210 0 132 2 158 23 215 73 204 204 356 381 441 47 23 93 45 102 50 10 5 30 9 45 9 16 0 35 5 43 10 19 13 270 7 325 -7z m-3441 -14 c282 -53 489 -217 594 -469 29 -69 52 -194 52 -278 0 -83 -25 -197 -61 -279 -11 -24 -19 -45 -19 -48 0 -13 -87 -134 -130 -179 -140 -150 -375 -247 -561 -232 -109 8 -163 17 -173 27 -6 5 -18 9 -28 9 -10 0 -26 4 -36 9 -9 5 -46 23 -82 41 -107 54 -219 155 -284 255 -88 136 -140 351 -116 482 17 99 38 166 81 268 22 50 39 95 39 101 0 5 -16 25 -35 44 -19 19 -35 30 -35 25 0 -11 -66 51 -92 89 -17 23 -18 30 -7 37 31 19 64 8 113 -36 26 -25 46 -45 42 -45 -3 0 3 -15 14 -32 11 -18 20 -43 20 -55 0 -30 14 -29 33 1 46 69 178 170 273 208 153 61 279 79 398 57z m4136 -32 c0 -21 -54 -99 -98 -141 -30 -29 -45 -36 -61 -31 -36 11 -25 47 32 102 68 67 127 100 127 70z m-3434 -1006 c16 -5 56 -15 89 -22 62 -13 75 -22 75 -52 0 -16 -6 -17 -52 -11 -29 3 -78 12 -108 18 -51 12 -55 14 -58 44 -4 35 4 38 54 23z m1594 -71 c0 -32 -41 -50 -136 -59 -49 -4 -91 -7 -93 -5 -2 2 -1 10 3 19 11 28 85 51 214 64 6 0 12 -8 12 -19z m-1111 -27 c32 -19 45 -38 35 -54 -8 -13 -70 -11 -135 5 -68 16 -99 32 -99 51 0 23 158 21 199 -2z m758 -30 c4 -10 -2 -23 -16 -35 -19 -14 -41 -18 -110 -18 -89 0 -111 8 -111 41 0 21 24 25 148 27 69 2 84 -1 89 -15z m-372 -23 l0 -25 -105 0 -105 0 -3 28 -3 28 108 -3 c108 -3 108 -3 108 -28z m392 13 c-4 -3 -7 0 -7 7 0 7 3 10 7 7 3 -4 3 -10 0 -14z"/>
<path d="M7560 9178 c-52 -5 -111 -13 -131 -18 -35 -10 -36 -12 -43 -64 -6 -57 2 -94 25 -113 15 -11 117 -48 162 -58 33 -7 34 -16 2 -93 -23 -55 -24 -70 -19 -154 7 -99 16 -118 66 -144 36 -18 112 -18 148 1 46 24 60 62 60 165 0 49 -4 98 -9 108 -14 27 -29 65 -36 89 -5 19 0 23 48 37 29 9 77 21 105 27 35 9 54 18 58 31 11 36 5 141 -9 155 -12 13 -256 45 -312 41 -11 -1 -63 -5 -115 -10z"/>
<path d="M4105 9138 c-33 -5 -64 -13 -69 -18 -15 -15 -26 -109 -16 -136 10 -26 101 -74 139 -74 10 0 32 -5 50 -11 29 -10 32 -14 25 -43 -3 -17 -17 -57 -30 -88 -21 -50 -23 -64 -15 -126 10 -76 18 -97 50 -126 28 -25 134 -26 184 -2 30 13 35 22 41 61 3 25 9 65 12 89 5 31 0 60 -15 102 -11 33 -22 75 -23 94 -3 33 -1 35 37 43 22 5 67 19 100 31 l60 22 -2 83 c-1 46 -4 85 -6 88 -22 21 -405 30 -522 11z"/>
<path d="M4103 7093 c-114 -3 -143 -6 -143 -18 0 -7 -8 -16 -17 -18 -17 -4 -17 -5 0 -6 11 -1 17 -9 17 -26 0 -14 5 -25 10 -25 6 0 10 -7 10 -15 0 -15 35 -21 42 -7 2 4 139 5 306 2 l302 -5 0 43 c0 23 3 42 7 42 3 0 31 -19 61 -42 l55 -43 94 3 c62 3 93 0 93 -7 0 -17 37 -13 44 4 6 17 56 21 56 5 0 -5 5 -10 10 -10 6 0 10 7 10 15 0 8 9 15 21 15 18 0 20 5 17 43 l-3 42 -201 0 c-146 0 -205 -3 -216 -12 -11 -9 -24 -10 -44 -4 -16 5 -87 12 -159 15 -71 3 -152 8 -180 9 -27 2 -114 2 -192 0z"/>
<path d="M4615 6799 c-5 -7 -59 -8 -174 -3 -92 3 -238 3 -324 -1 l-157 -7 0 -53 0 -52 138 -5 c75 -3 139 -1 140 3 5 13 102 11 102 -1 0 -5 7 -10 15 -10 8 0 15 3 15 8 0 4 54 5 120 3 96 -2 120 0 120 10 0 11 3 11 10 -1 7 -11 10 5 10 53 0 67 -3 77 -15 56z"/>
<path d="M5080 6798 c-14 -5 -46 -8 -73 -6 -26 2 -46 0 -45 -3 2 -4 29 -28 62 -54 58 -48 58 -48 144 -51 61 -3 88 0 94 9 6 9 8 9 8 0 0 -7 5 -13 10 -13 7 0 10 24 8 63 l-3 62 -90 1 c-49 1 -101 -2 -115 -8z"/>
<path d="M4190 6510 c-41 -4 -110 -8 -152 -9 l-78 -1 0 -40 0 -40 65 0 c51 0 65 -3 65 -15 0 -12 16 -15 84 -15 80 0 85 -1 89 -22 2 -13 5 16 6 65 0 48 0 86 -1 85 -2 -1 -37 -4 -78 -8z"/>
<path d="M9140 6315 c-117 -18 -121 -22 -118 -108 l3 -72 54 -26 c30 -15 72 -29 93 -32 66 -9 70 -18 41 -100 -14 -42 -27 -106 -30 -153 l-6 -80 44 -37 c40 -35 46 -37 114 -37 66 0 73 2 101 31 28 30 29 33 29 133 0 88 -3 108 -24 147 -36 68 -27 80 79 109 69 19 104 33 112 44 11 16 9 138 -2 156 -21 34 -333 50 -490 25z"/>
<path d="M4703 6153 l-63 -4 0 -35 c0 -19 5 -44 10 -55 10 -18 29 -19 695 -19 l685 0 0 23 c0 12 -3 39 -6 60 l-7 37 -626 -2 c-344 -1 -654 -3 -688 -5z"/>
<path d="M4661 5791 c-6 -10 -13 -37 -17 -60 l-7 -41 892 0 891 0 0 48 c0 26 -5 53 -12 60 -9 9 -217 12 -875 12 -833 0 -863 -1 -872 -19z"/>
<path d="M7811 5470 c-1 -38 -6 -72 -13 -79 -11 -11 -10 -12 0 -7 7 5 82 7 167 7 117 -2 154 1 158 11 4 10 6 10 6 1 1 -20 101 -17 101 2 0 12 16 15 81 15 l80 0 -3 43 -3 42 -80 8 c-44 5 -171 6 -282 3 -152 -4 -203 -2 -207 7 -2 7 -5 -17 -5 -53z"/>
<path d="M4688 5447 l-48 -10 0 -49 0 -48 890 0 890 0 0 50 c0 38 -4 52 -19 60 -27 14 -1648 11 -1713 -3z"/>
<path d="M7440 5224 c-25 -2 -78 -6 -118 -10 l-73 -6 3 -36 c3 -32 7 -37 31 -40 15 -2 27 -9 27 -18 0 -12 88 -14 620 -14 407 0 620 3 620 10 0 6 7 10 15 10 8 0 15 -4 15 -10 0 -6 28 -10 64 -10 70 0 76 6 76 76 0 29 -3 32 -37 38 -41 7 -1168 16 -1243 10z"/>
<path d="M7252 4888 c3 -39 6 -43 31 -46 15 -2 27 -9 27 -18 0 -8 7 -14 15 -14 8 0 15 5 15 10 0 7 175 10 540 10 328 -1 540 -5 540 -11 0 -5 23 -9 50 -9 37 0 50 4 50 15 0 11 20 15 103 17 l102 3 0 40 0 40 -738 3 -738 2 3 -42z"/>
<path d="M9038 4775 c-1 -30 0 -55 4 -55 11 0 40 59 33 70 -3 5 0 12 6 16 8 5 9 3 4 -6 -5 -9 -4 -11 3 -6 23 14 13 36 -17 36 -28 0 -29 -2 -33 -55z"/>
<path d="M2545 6316 c-111 -17 -122 -24 -130 -90 -5 -35 -3 -61 5 -76 12 -23 106 -70 141 -70 11 0 33 -7 49 -15 27 -14 29 -18 18 -43 -6 -15 -14 -36 -18 -47 -4 -11 -13 -33 -19 -48 -6 -15 -11 -63 -11 -105 0 -77 0 -78 38 -115 36 -36 41 -37 108 -37 61 0 74 3 103 28 31 25 33 32 38 107 5 70 2 90 -21 155 -15 41 -28 79 -29 84 -4 16 39 33 166 66 l47 13 0 82 c0 54 -4 86 -12 93 -31 24 -353 37 -473 18z"/>
<path d="M7549 3496 c-3 -4 -39 -10 -80 -14 l-74 -7 -7 -63 c-4 -34 -9 -70 -12 -80 -6 -19 35 -41 129 -69 111 -33 111 -32 64 -126 -30 -57 -31 -65 -20 -105 6 -23 11 -61 11 -83 0 -22 4 -49 10 -59 11 -21 74 -46 139 -55 41 -5 46 -3 82 35 l39 41 0 93 c0 76 -4 104 -26 155 -14 35 -24 64 -22 66 2 1 32 13 68 25 106 37 150 60 155 84 3 11 2 48 -2 81 l-8 60 -50 8 c-62 10 -388 21 -396 13z"/>
<path d="M4160 3460 c-106 -8 -127 -19 -135 -68 -3 -20 -8 -47 -11 -60 -6 -31 40 -74 97 -91 24 -7 54 -17 67 -22 13 -5 34 -9 47 -9 14 0 25 -1 25 -3 0 -2 -15 -41 -34 -88 -34 -83 -34 -87 -25 -164 14 -111 50 -145 153 -145 72 0 116 33 116 88 0 20 5 61 12 93 10 48 9 62 -4 90 -50 107 -54 129 -21 129 49 0 169 54 190 86 12 19 12 32 2 83 -8 36 -19 63 -28 66 -24 9 -227 25 -301 23 -36 0 -103 -4 -150 -8z"/>
</g>


</svg>