<?xml version="1.0" encoding="utf-8"?>
<svg viewBox="104.981 41.931 296.34 250.626" width="296.34" height="250.626" xmlns="http://www.w3.org/2000/svg">
  <defs>
    <linearGradient x1="0" y1="0.5" x2="1" y2="0.5" id="linearGradientSkdgxjez3gv5">
      <stop offset="0" stop-color="#f2af58"/>
      <stop offset="1" stop-color="#f2af58"/>
    </linearGradient>
    <linearGradient x1="0" y1="0.5" x2="1" y2="0.5" id="linearGradientSkdgxjez3gv2">
      <stop offset="0" stop-color="#ffffff"/>
      <stop offset="1" stop-color="#ffffff"/>
    </linearGradient>
    <linearGradient x1="0" y1="0.5" x2="1" y2="0.5" id="linearGradientSkdgxjez3gs8">
      <stop offset="0" stop-color="#8a25b1"/>
      <stop offset="1" stop-color="#8a25b1"/>
    </linearGradient>
    <linearGradient x1="0" y1="0.5" x2="1" y2="0.5" id="linearGradientSkdgxjez3gsb">
      <stop offset="0" stop-color="#ec4c4c"/>
      <stop offset="1" stop-color="#ec4c4c"/>
    </linearGradient>
    <linearGradient x1="0" y1="0.5" x2="1" y2="0.5" id="linearGradientSkdgxjez3gse">
      <stop offset="0" stop-color="#8a25b1"/>
      <stop offset="1" stop-color="#8a25b1"/>
    </linearGradient>
    <linearGradient x1="0" y1="0.5" x2="1" y2="0.5" id="linearGradientSkdgxjez3gsh">
      <stop offset="0" stop-color="#f2af58"/>
      <stop offset="1" stop-color="#f2af58"/>
    </linearGradient>
    <linearGradient x1="0" y1="0.5" x2="1" y2="0.5" id="linearGradientSkdgxjez3gsk">
      <stop offset="0" stop-color="#1572eb"/>
      <stop offset="1" stop-color="#1572eb"/>
    </linearGradient>
    <linearGradient x1="0" y1="0.5" x2="1" y2="0.5" id="linearGradientSkdgxjez3gsn">
      <stop offset="0" stop-color="#cf1717"/>
      <stop offset="1" stop-color="#cf1717"/>
    </linearGradient>
    <linearGradient x1="0" y1="0.5" x2="1" y2="0.5" id="linearGradientSkdgxjez3gsq">
      <stop offset="0" stop-color="#1572eb"/>
      <stop offset="1" stop-color="#1572eb"/>
    </linearGradient>
    <linearGradient x1="0" y1="0.5" x2="1" y2="0.5" id="linearGradientSkdgxjez3gst">
      <stop offset="0" stop-color="#1572eb"/>
      <stop offset="1" stop-color="#1572eb"/>
    </linearGradient>
    <linearGradient x1="0" y1="0.5" x2="1" y2="0.5" id="linearGradientSkdgxjez3gsw">
      <stop offset="0" stop-color="#1572eb"/>
      <stop offset="1" stop-color="#1572eb"/>
    </linearGradient>
    <linearGradient x1="0" y1="0.5" x2="1" y2="0.5" id="linearGradientSkdgxjez3gsz">
      <stop offset="0" stop-color="#8a25b1"/>
      <stop offset="1" stop-color="#8a25b1"/>
    </linearGradient>
    <linearGradient x1="0" y1="0.5" x2="1" y2="0.5" id="linearGradientSkdgxjez3gt2">
      <stop offset="0" stop-color="#8a25b1"/>
      <stop offset="1" stop-color="#8a25b1"/>
    </linearGradient>
    <linearGradient x1="0" y1="0.5" x2="1" y2="0.5" id="linearGradientSkdgxjez3gt5">
      <stop offset="0" stop-color="#8a25b1"/>
      <stop offset="1" stop-color="#8a25b1"/>
    </linearGradient>
    <linearGradient x1="0" y1="0.5" x2="1" y2="0.5" id="linearGradientSkdgxjez3gt8">
      <stop offset="0" stop-color="#ec4c4c"/>
      <stop offset="1" stop-color="#ec4c4c"/>
    </linearGradient>
    <linearGradient x1="0" y1="0.5" x2="1" y2="0.5" id="linearGradientSkdgxjez3gtb">
      <stop offset="0" stop-color="#ec4c4c"/>
      <stop offset="1" stop-color="#ec4c4c"/>
    </linearGradient>
    <linearGradient x1="0" y1="0.5" x2="1" y2="0.5" id="linearGradientSkdgxjez3gte">
      <stop offset="0" stop-color="#ec4c4c"/>
      <stop offset="1" stop-color="#ec4c4c"/>
    </linearGradient>
    <linearGradient x1="0" y1="0.5" x2="1" y2="0.5" id="linearGradientSkdgxjez3gth">
      <stop offset="0" stop-color="#ec4c4c"/>
      <stop offset="1" stop-color="#ec4c4c"/>
    </linearGradient>
    <linearGradient x1="0" y1="0.5" x2="1" y2="0.5" id="linearGradientSkdgxjez3gtk">
      <stop offset="0" stop-color="#ec4c4c"/>
      <stop offset="1" stop-color="#ec4c4c"/>
    </linearGradient>
    <linearGradient x1="0" y1="0.5" x2="1" y2="0.5" id="linearGradientSkdgxjez3gtn">
      <stop offset="0" stop-color="#ec4c4c"/>
      <stop offset="1" stop-color="#ec4c4c"/>
    </linearGradient>
    <linearGradient x1="0" y1="0.5" x2="1" y2="0.5" id="linearGradientSkdgxjez3gtq">
      <stop offset="0" stop-color="#ec4c4c"/>
      <stop offset="1" stop-color="#ec4c4c"/>
    </linearGradient>
    <linearGradient x1="0" y1="0.5" x2="1" y2="0.5" id="linearGradientSkdgxjez3gtt">
      <stop offset="0" stop-color="#ec4c4c"/>
      <stop offset="1" stop-color="#ec4c4c"/>
    </linearGradient>
    <linearGradient x1="0" y1="0.5" x2="1" y2="0.5" id="linearGradientSkdgxjez3gtw">
      <stop offset="0" stop-color="#ec4c4c"/>
      <stop offset="1" stop-color="#ec4c4c"/>
    </linearGradient>
    <linearGradient x1="0" y1="0.5" x2="1" y2="0.5" id="linearGradientSkdgxjez3gtz">
      <stop offset="0" stop-color="#ec4c4c"/>
      <stop offset="1" stop-color="#ec4c4c"/>
    </linearGradient>
    <linearGradient x1="0" y1="0.5" x2="1" y2="0.5" id="linearGradientSkdgxjez3gu2">
      <stop offset="0" stop-color="#ec4c4c"/>
      <stop offset="1" stop-color="#ec4c4c"/>
    </linearGradient>
    <linearGradient x1="0" y1="0.5" x2="1" y2="0.5" id="linearGradientSkdgxjez3gu5">
      <stop offset="0" stop-color="#ec4c4c"/>
      <stop offset="1" stop-color="#ec4c4c"/>
    </linearGradient>
    <linearGradient x1="0" y1="0.5" x2="1" y2="0.5" id="linearGradientSkdgxjez3gu8">
      <stop offset="0" stop-color="#ffedb2"/>
      <stop offset="1" stop-color="#ffedb2"/>
    </linearGradient>
    <linearGradient x1="0" y1="0.5" x2="1" y2="0.5" id="linearGradientSkdgxjez3guz">
      <stop offset="0" stop-color="#e78200"/>
      <stop offset="1" stop-color="#e78200"/>
    </linearGradient>
    <linearGradient x1="0" y1="0.5" x2="1" y2="0.5" id="linearGradientSkdgxjez3gue">
      <stop offset="0" stop-color="#8a25b1"/>
      <stop offset="1" stop-color="#8a25b1"/>
    </linearGradient>
    <linearGradient x1="0" y1="0.5" x2="1" y2="0.5" id="linearGradientSkdgxjez3gvb">
      <stop offset="0" stop-color="#e78200"/>
      <stop offset="1" stop-color="#e78200"/>
    </linearGradient>
  </defs>
  <g style="cursor: move; opacity: 1;" class="svg-clip svg-visible" transform="matrix(0.3849, 0, 0, 0.3863, 156.219269, 41.931164)">
    <rect x="0" y="0" width="504" height="504" class="svg-hitbox" style="" fill="none"/>
    <svg width="504" height="504.00100000000003" viewBox="-2,-1.3330000000000002,504,504.00100000000003">
      <desc>Created with Snap</desc>
      <g/>
      <g/>
      <g>
        <path d="M 497 430.182 C 495.392 480.835 500.648 500.05 429.514 497.668 L 70.486 497.668 C -3.352 497.331 4.569 482.03 3 430.182 L 3.492 52.421 C 3.492 15.15 5.471 1.14 44.704 3.575 L 456.894 5.51 C 494.166 5.51 496.3 11.002 496.783 56.647 L 497 430.182 Z" stroke="none" fill="url('#linearGradientSkdgxjez3gv5')" style=""/>
      </g>
    </svg>
  </g>
  <g class="svg-clip svg-visible" style="cursor: move; opacity: 1;" transform="matrix(0.3751, 0, 0, 0.3751, 159.05687, 44.761364)">
    <rect x="0" y="0" width="504" height="504" class="svg-hitbox" style="" fill="none"/>
    <svg width="504" height="504.00100000000003" viewBox="-2,-1.3330000000000002,504,504.00100000000003">
      <desc>Created with Snap</desc>
      <g/>
      <g/>
      <g>
        <path d="M 497 430.182 C 497.824 500.326 484.666 497.897 429.514 497.668 L 70.486 497.668 C 0.889 495.557 4.456 488.686 3 430.182 L 3 71.153 C 3.565 -6.711 0.939 4.286 70.486 3.667 L 429.513 3.667 C 502.568 3.576 494.182 0.816 497 71.153 L 497 430.182 Z" stroke="none" fill="url('#linearGradientSkdgxjez3gv2')" style=""/>
      </g>
    </svg>
  </g>
  <g class="svg-clip svg-visible" transform="matrix(-0.155, -0.1605, 0.1794, -0.1733, 182.227966, 83.786568)" style="cursor: move; opacity: 1;">
    <rect x="0" y="0" width="99" height="99" class="svg-hitbox" style="" fill="none"/>
    <svg width="99.97810022797792" height="99.94572873935746" viewBox="-0.00310022797791909,0.027135630321268422,99.97810022797792,99.94572873935746">
      <desc>Created with Snap</desc>
      <g/>
      <g>
        <path fill="url('#linearGradientSkdgxjez3gs8')" d="M5.1,90.8l7.6-32.9c0.3-1.4,1.5-2.5,3-2.7l42.5-4.4c1.2-0.1,1.2-1.9,0-2.1l-42.5-4.1c-1.5-0.1-2.7-1.2-3-2.6  L5.1,9.2C4.4,6.4,7.4,4.1,10,5.4l83.1,41.6c2.5,1.3,2.5,4.9,0,6.2L10,94.6C7.4,95.9,4.4,93.6,5.1,90.8z" stroke="none" style=""/>
      </g>
    </svg>
  </g>
  <g class="svg-clip svg-visible" transform="matrix(1.4201, 0, 0, 1.3386, 230.835861, 139.619858)" style="cursor: move; opacity: 1;">
    <rect x="0" y="0" width="22" height="18" class="svg-hitbox" style="" fill="none"/>
    <svg width="22" height="18" viewBox="12,31,22,18">
      <desc>Created with Snap</desc>
      <g/>
      <g>
        <path d="M21,44h4c2.206,0,4-1.794,4-4v-4h-8c-2.206,0-4,1.794-4,4S18.794,44,21,44z M23,39h2v2h-2V39z M19,39h2v2h-2V39z" stroke="none" fill="url('#linearGradientSkdgxjez3gsb')" style=""/>
      </g>
    </svg>
  </g>
  <g class="svg-clip svg-visible" transform="matrix(1.4201, 0, 0, 1.3386, 219.340866, 93.93837)" style="cursor: move; opacity: 1;">
    <rect x="0" y="0" width="44" height="70" class="svg-hitbox" style="" fill="none"/>
    <svg width="44" height="70" viewBox="4,-3,44,70">
      <desc>Created with Snap</desc>
      <g/>
      <g>
        <path d="M43,32h-2v19c0,0.553-0.448,1-1,1H12c-0.552,0-1-0.447-1-1V9c0-0.553,0.448-1,1-1h28c0.552,0,1,0.447,1,1v3h2V5   c0-1.654-1.346-3-3-3H12c-1.654,0-3,1.346-3,3v54c0,1.654,1.346,3,3,3h28c1.654,0,3-1.346,3-3V32z M22,4h8v2h-8V4z M26,60   c-1.654,0-3-1.346-3-3s1.346-3,3-3s3,1.346,3,3S27.654,60,26,60z" stroke="none" fill="url('#linearGradientSkdgxjez3gse')" style=""/>
      </g>
    </svg>
  </g>
  <g class="svg-clip svg-visible" transform="matrix(1.4201, 0, 0, 1.3386, 225.021255, 104.69857)" style="cursor: move; opacity: 1;">
    <rect x="0" y="0" width="36" height="50" class="svg-hitbox" style="" fill="none"/>
    <svg width="36" height="50" viewBox="8,5,36,50">
      <desc>Created with Snap</desc>
      <g/>
      <g>
        <path d="M13,50h26V32H28c-0.552,0-1-0.447-1-1V13c0-0.553,0.448-1,1-1h11v-2H13V50z M21,34h9c0.552,0,1,0.447,1,1v5   c0,3.309-2.691,6-6,6h-4c-3.309,0-6-2.691-6-6S17.691,34,21,34z" stroke="none" fill="url('#linearGradientSkdgxjez3gsh')" style=""/>
      </g>
    </svg>
  </g>
  <g class="svg-clip svg-visible" transform="matrix(1.4201, 0, 0, 1.3386, 274.147583, 111.765968)" style="cursor: move; opacity: 1;">
    <rect x="0" y="0" width="17" height="23" class="svg-hitbox" style="" fill="none"/>
    <svg width="17.222" height="23.412" viewBox="42.778,10.174,17.222,23.412">
      <desc>Created with Snap</desc>
      <g/>
      <g>
        <polygon points="47.778,21.364 55,28.586 55,15.174  " stroke="none" fill="url('#linearGradientSkdgxjez3gsk')" style=""/>
      </g>
    </svg>
  </g>
  <g class="svg-clip svg-visible" transform="matrix(1.4201, 0, 0, 1.3386, 242.062561, 166.142059)" style="cursor: move; opacity: 1;">
    <rect x="0" y="0" width="12" height="12" class="svg-hitbox" style="" fill="none"/>
    <svg width="12.002983784606286" height="12" viewBox="19.998508107696857,51,12.002983784606286,12">
      <desc>Created with Snap</desc>
      <g/>
      <g>
        <circle cx="26" cy="57" r="1" stroke="none" fill="url('#linearGradientSkdgxjez3gsn')" style=""/>
      </g>
    </svg>
  </g>
  <g class="svg-clip svg-visible" transform="matrix(1.4201, 0, 0, 1.3386, 249.992874, 110.316971)" style="cursor: move; opacity: 1;">
    <rect x="0" y="0" width="32" height="19" class="svg-hitbox" style="" fill="none"/>
    <svg width="32.593999999999994" height="19.683" viewBox="25.703,9,32.593999999999994,19.683">
      <desc>Created with Snap</desc>
      <g/>
      <g>
        <polygon points="30.703,14 42,23.683 53.297,14  " stroke="none" fill="url('#linearGradientSkdgxjez3gsq')" style=""/>
      </g>
    </svg>
  </g>
  <g class="svg-clip svg-visible" transform="matrix(1.4201, 0, 0, 1.3386, 248.139771, 111.765968)" style="cursor: move; opacity: 1;">
    <rect x="0" y="0" width="17" height="23" class="svg-hitbox" style="" fill="none"/>
    <svg width="17.222" height="23.412" viewBox="24,10.174,17.222,23.412">
      <desc>Created with Snap</desc>
      <g/>
      <g>
        <polygon points="29,15.174 29,28.586 36.222,21.364  " stroke="none" fill="url('#linearGradientSkdgxjez3gst')" style=""/>
      </g>
    </svg>
  </g>
  <g class="svg-clip svg-visible" transform="matrix(1.4201, 0, 0, 1.3386, 250.033081, 121.533669)" style="cursor: move; opacity: 1;">
    <rect x="0" y="0" width="33" height="17" class="svg-hitbox" style="" fill="none"/>
    <svg width="33.172" height="17.331" viewBox="25.414,17.669,33.172,17.331" transform="matrix(1, 0, 0, 1, -2.112527370452881, 2.2411474395023845)">
      <desc>Created with Snap</desc>
      <g/>
      <g>
        <path d="M46.255,22.669l-3.604,3.089C42.463,25.92,42.232,26,42,26s-0.463-0.08-0.651-0.241l-3.604-3.089L30.414,30h23.172   L46.255,22.669z" stroke="none" fill="url('#linearGradientSkdgxjez3gsw')" style=""/>
      </g>
    </svg>
  </g>
  <g class="svg-clip svg-visible" transform="matrix(0.1888, -0.176, 0.1831, 0.1963, 304.573456, 68.514168)" style="cursor: move; opacity: 1;">
    <rect x="0" y="0" width="99" height="99" class="svg-hitbox" style="" fill="none"/>
    <svg width="99.97810022797792" height="99.94572873935746" viewBox="-0.00310022797791909,0.027135630321268422,99.97810022797792,99.94572873935746">
      <desc>Created with Snap</desc>
      <g/>
      <g>
        <path fill="url('#linearGradientSkdgxjez3gsz')" d="M5.1,90.8l7.6-32.9c0.3-1.4,1.5-2.5,3-2.7l42.5-4.4c1.2-0.1,1.2-1.9,0-2.1l-42.5-4.1c-1.5-0.1-2.7-1.2-3-2.6  L5.1,9.2C4.4,6.4,7.4,4.1,10,5.4l83.1,41.6c2.5,1.3,2.5,4.9,0,6.2L10,94.6C7.4,95.9,4.4,93.6,5.1,90.8z" stroke="none" style=""/>
      </g>
    </svg>
  </g>
  <g class="svg-clip svg-visible" transform="matrix(0.1795, 0.1674, -0.1948, 0.2089, 325.234467, 191.180466)" style="cursor: move; opacity: 1;">
    <rect x="0" y="0" width="99" height="99" class="svg-hitbox" style="" fill="none"/>
    <svg width="99.97810022797792" height="99.94572873935746" viewBox="-0.00310022797791909,0.027135630321268422,99.97810022797792,99.94572873935746">
      <desc>Created with Snap</desc>
      <g/>
      <g>
        <path fill="url('#linearGradientSkdgxjez3gt2')" d="M5.1,90.8l7.6-32.9c0.3-1.4,1.5-2.5,3-2.7l42.5-4.4c1.2-0.1,1.2-1.9,0-2.1l-42.5-4.1c-1.5-0.1-2.7-1.2-3-2.6  L5.1,9.2C4.4,6.4,7.4,4.1,10,5.4l83.1,41.6c2.5,1.3,2.5,4.9,0,6.2L10,94.6C7.4,95.9,4.4,93.6,5.1,90.8z" stroke="none" style=""/>
      </g>
    </svg>
  </g>
  <g class="svg-clip svg-visible" transform="matrix(-0.1734, 0.1617, -0.1807, -0.1938, 201.344467, 212.522858)" style="cursor: move; opacity: 1;">
    <rect x="0" y="0" width="99" height="99" class="svg-hitbox" style="" fill="none"/>
    <svg width="99.97810022797792" height="99.94572873935746" viewBox="-0.00310022797791909,0.027135630321268422,99.97810022797792,99.94572873935746">
      <desc>Created with Snap</desc>
      <g/>
      <g>
        <path fill="url('#linearGradientSkdgxjez3gt5')" d="M5.1,90.8l7.6-32.9c0.3-1.4,1.5-2.5,3-2.7l42.5-4.4c1.2-0.1,1.2-1.9,0-2.1l-42.5-4.1c-1.5-0.1-2.7-1.2-3-2.6  L5.1,9.2C4.4,6.4,7.4,4.1,10,5.4l83.1,41.6c2.5,1.3,2.5,4.9,0,6.2L10,94.6C7.4,95.9,4.4,93.6,5.1,90.8z" stroke="none" style=""/>
      </g>
    </svg>
  </g>
  <g class="svg-clip svg-visible" transform="matrix(-0.0065, 0.3751, -0.3751, -0.0065, 202.08786, 78.040962)" style="cursor: move; opacity: 1;">
    <rect x="0" y="0" width="25" height="25" class="svg-hitbox" style="" fill="none"/>
    <svg width="25.300000000000008" height="25.299999999999983" viewBox="11.599999999999998,59.900000000000006,25.300000000000008,25.299999999999983">
      <desc>Created with Snap</desc>
      <g/>
      <g>
        <path d="M31.3,65.5c-0.8-0.8-2-0.8-2.8,0L17.2,76.8c-0.8,0.8-0.8,2,0,2.8c0.4,0.4,0.9,0.6,1.4,0.6s1-0.2,1.4-0.6l11.3-11.3    C32.1,67.5,32.1,66.2,31.3,65.5z" stroke="none" fill="url('#linearGradientSkdgxjez3gt8')" style=""/>
      </g>
    </svg>
  </g>
  <g class="svg-clip svg-visible" transform="matrix(-0.0065, 0.3751, -0.3751, -0.0065, 207.714462, 75.415169)" style="cursor: move; opacity: 1;">
    <rect x="0" y="0" width="25" height="25" class="svg-hitbox" style="" fill="none"/>
    <svg width="25.300000000000004" height="25.299999999999983" viewBox="4.6,44.900000000000006,25.300000000000004,25.299999999999983">
      <desc>Created with Snap</desc>
      <g/>
      <g>
        <path d="M24.3,50.5c-0.8-0.8-2-0.8-2.8,0L10.2,61.8c-0.8,0.8-0.8,2,0,2.8c0.4,0.4,0.9,0.6,1.4,0.6s1-0.2,1.4-0.6l11.3-11.3    C25.1,52.5,25.1,51.2,24.3,50.5z" stroke="none" fill="url('#linearGradientSkdgxjez3gtb')" style=""/>
      </g>
    </svg>
  </g>
  <g class="svg-clip svg-visible" transform="matrix(-0.0065, 0.3751, -0.3751, -0.0065, 199.462067, 82.917366)" style="cursor: move; opacity: 1;">
    <rect x="0" y="0" width="25" height="25" class="svg-hitbox" style="" fill="none"/>
    <svg width="25.300000000000004" height="25.299999999999983" viewBox="25.599999999999994,65.9,25.300000000000004,25.299999999999983">
      <desc>Created with Snap</desc>
      <g/>
      <g>
        <path d="M42.5,71.5L31.2,82.8c-0.8,0.8-0.8,2,0,2.8c0.4,0.4,0.9,0.6,1.4,0.6s1-0.2,1.4-0.6l11.3-11.3c0.8-0.8,0.8-2,0-2.8    C44.5,70.7,43.2,70.7,42.5,71.5z" stroke="none" fill="url('#linearGradientSkdgxjez3gte')" style=""/>
      </g>
    </svg>
  </g>
  <g class="svg-clip svg-visible" transform="matrix(-0.3742, -0.0262, 0.0262, -0.3742, 313.075256, 88.026871)" style="cursor: move; opacity: 1;">
    <rect x="0" y="0" width="25" height="25" class="svg-hitbox" style="" fill="none"/>
    <svg width="25.300000000000008" height="25.299999999999983" viewBox="11.599999999999998,59.900000000000006,25.300000000000008,25.299999999999983">
      <desc>Created with Snap</desc>
      <g/>
      <g>
        <path d="M31.3,65.5c-0.8-0.8-2-0.8-2.8,0L17.2,76.8c-0.8,0.8-0.8,2,0,2.8c0.4,0.4,0.9,0.6,1.4,0.6s1-0.2,1.4-0.6l11.3-11.3    C32.1,67.5,32.1,66.2,31.3,65.5z" stroke="none" fill="url('#linearGradientSkdgxjez3gth')" style=""/>
      </g>
    </svg>
  </g>
  <g class="svg-clip svg-visible" transform="matrix(-0.3742, -0.0262, 0.0262, -0.3742, 315.325958, 93.653465)" style="cursor: move; opacity: 1;">
    <rect x="0" y="0" width="25" height="25" class="svg-hitbox" style="" fill="none"/>
    <svg width="25.300000000000004" height="25.299999999999983" viewBox="4.6,44.900000000000006,25.300000000000004,25.299999999999983">
      <desc>Created with Snap</desc>
      <g/>
      <g>
        <path d="M24.3,50.5c-0.8-0.8-2-0.8-2.8,0L10.2,61.8c-0.8,0.8-0.8,2,0,2.8c0.4,0.4,0.9,0.6,1.4,0.6s1-0.2,1.4-0.6l11.3-11.3    C25.1,52.5,25.1,51.2,24.3,50.5z" stroke="none" fill="url('#linearGradientSkdgxjez3gtk')" style=""/>
      </g>
    </svg>
  </g>
  <g class="svg-clip svg-visible" transform="matrix(-0.3742, -0.0262, 0.0262, -0.3742, 307.823761, 85.40107)" style="cursor: move; opacity: 1;">
    <rect x="0" y="0" width="25" height="25" class="svg-hitbox" style="" fill="none"/>
    <svg width="25.300000000000004" height="25.299999999999983" viewBox="25.599999999999994,65.9,25.300000000000004,25.299999999999983">
      <desc>Created with Snap</desc>
      <g/>
      <g>
        <path d="M42.5,71.5L31.2,82.8c-0.8,0.8-0.8,2,0,2.8c0.4,0.4,0.9,0.6,1.4,0.6s1-0.2,1.4-0.6l11.3-11.3c0.8-0.8,0.8-2,0-2.8    C44.5,70.7,43.2,70.7,42.5,71.5z" stroke="none" fill="url('#linearGradientSkdgxjez3gtn')" style=""/>
      </g>
    </svg>
  </g>
  <g class="svg-clip svg-visible" transform="matrix(0.0131, -0.3749, 0.3749, 0.0131, 306.447571, 200.516754)" style="cursor: move; opacity: 1;">
    <rect x="0" y="0" width="25" height="25" class="svg-hitbox" style="" fill="none"/>
    <svg width="25.300000000000008" height="25.299999999999983" viewBox="11.599999999999998,59.900000000000006,25.300000000000008,25.299999999999983">
      <desc>Created with Snap</desc>
      <g/>
      <g>
        <path d="M31.3,65.5c-0.8-0.8-2-0.8-2.8,0L17.2,76.8c-0.8,0.8-0.8,2,0,2.8c0.4,0.4,0.9,0.6,1.4,0.6s1-0.2,1.4-0.6l11.3-11.3    C32.1,67.5,32.1,66.2,31.3,65.5z" stroke="none" fill="url('#linearGradientSkdgxjez3gtq')" style=""/>
      </g>
    </svg>
  </g>
  <g class="svg-clip svg-visible" transform="matrix(0.0131, -0.3749, 0.3749, 0.0131, 300.732758, 202.944565)" style="cursor: move; opacity: 1;">
    <rect x="0" y="0" width="25" height="25" class="svg-hitbox" style="" fill="none"/>
    <svg width="25.300000000000004" height="25.299999999999983" viewBox="4.6,44.900000000000006,25.300000000000004,25.299999999999983">
      <desc>Created with Snap</desc>
      <g/>
      <g>
        <path d="M24.3,50.5c-0.8-0.8-2-0.8-2.8,0L10.2,61.8c-0.8,0.8-0.8,2,0,2.8c0.4,0.4,0.9,0.6,1.4,0.6s1-0.2,1.4-0.6l11.3-11.3    C25.1,52.5,25.1,51.2,24.3,50.5z" stroke="none" fill="url('#linearGradientSkdgxjez3gtt')" style=""/>
      </g>
    </svg>
  </g>
  <g class="svg-clip svg-visible" transform="matrix(0.0131, -0.3749, 0.3749, 0.0131, 308.880157, 195.346954)" style="cursor: move; opacity: 1;">
    <rect x="0" y="0" width="25" height="25" class="svg-hitbox" style="" fill="none"/>
    <svg width="25.300000000000004" height="25.299999999999983" viewBox="25.599999999999994,65.9,25.300000000000004,25.299999999999983">
      <desc>Created with Snap</desc>
      <g/>
      <g>
        <path d="M42.5,71.5L31.2,82.8c-0.8,0.8-0.8,2,0,2.8c0.4,0.4,0.9,0.6,1.4,0.6s1-0.2,1.4-0.6l11.3-11.3c0.8-0.8,0.8-2,0-2.8    C44.5,70.7,43.2,70.7,42.5,71.5z" stroke="none" fill="url('#linearGradientSkdgxjez3gtw')" style=""/>
      </g>
    </svg>
  </g>
  <g class="svg-clip svg-visible" transform="matrix(0.3751, 0, 0, 0.3751, 192.661865, 193.510956)" style="cursor: move; opacity: 1;">
    <rect x="0" y="0" width="25" height="25" class="svg-hitbox" style="" fill="none"/>
    <svg width="25.300000000000008" height="25.299999999999983" viewBox="11.599999999999998,59.900000000000006,25.300000000000008,25.299999999999983">
      <desc>Created with Snap</desc>
      <g/>
      <g>
        <path d="M31.3,65.5c-0.8-0.8-2-0.8-2.8,0L17.2,76.8c-0.8,0.8-0.8,2,0,2.8c0.4,0.4,0.9,0.6,1.4,0.6s1-0.2,1.4-0.6l11.3-11.3    C32.1,67.5,32.1,66.2,31.3,65.5z" stroke="none" fill="url('#linearGradientSkdgxjez3gtz')" style=""/>
      </g>
    </svg>
  </g>
  <g class="svg-clip svg-visible" transform="matrix(0.3751, 0, 0, 0.3751, 189.931763, 187.556061)" style="cursor: move; opacity: 1;">
    <rect x="0" y="0" width="25" height="25" class="svg-hitbox" style="" fill="none"/>
    <svg width="25.300000000000004" height="25.299999999999983" viewBox="4.6,44.900000000000006,25.300000000000004,25.299999999999983">
      <desc>Created with Snap</desc>
      <g/>
      <g>
        <path d="M24.3,50.5c-0.8-0.8-2-0.8-2.8,0L10.2,61.8c-0.8,0.8-0.8,2,0,2.8c0.4,0.4,0.9,0.6,1.4,0.6s1-0.2,1.4-0.6l11.3-11.3    C25.1,52.5,25.1,51.2,24.3,50.5z" stroke="none" fill="url('#linearGradientSkdgxjez3gu2')" style=""/>
      </g>
    </svg>
  </g>
  <g class="svg-clip svg-visible" transform="matrix(0.3751, 0, 0, 0.3751, 197.576859, 195.676163)" style="cursor: move; opacity: 1;">
    <rect x="0" y="0" width="25" height="25" class="svg-hitbox" style="" fill="none"/>
    <svg width="25.300000000000004" height="25.299999999999983" viewBox="25.599999999999994,65.9,25.300000000000004,25.299999999999983">
      <desc>Created with Snap</desc>
      <g/>
      <g>
        <path d="M42.5,71.5L31.2,82.8c-0.8,0.8-0.8,2,0,2.8c0.4,0.4,0.9,0.6,1.4,0.6s1-0.2,1.4-0.6l11.3-11.3c0.8-0.8,0.8-2,0-2.8    C44.5,70.7,43.2,70.7,42.5,71.5z" stroke="none" fill="url('#linearGradientSkdgxjez3gu5')" style=""/>
      </g>
    </svg>
  </g>
  <g class="svg-clip svg-visible" transform="matrix(2.3005, 0, 0, 2.3121, 176.142365, 63.333763)" style="cursor: move; opacity: 1;">
    <rect x="0" y="0" width="67" height="67" class="svg-hitbox" style="" fill="none"/>
    <svg width="67" height="67" viewBox="6.5,6.5,67,67" class="thumb">
      <desc>Created with Snap</desc>
      <g/>
      <g/>
      <g>
        <path d="M40,68.5c-15.7,0-28.5-12.8-28.5-28.5S24.3,11.5,40,11.5S68.5,24.3,68.5,40S55.7,68.5,40,68.5z M40,13.5   c-14.6,0-26.5,11.9-26.5,26.5S25.4,66.5,40,66.5S66.5,54.6,66.5,40S54.6,13.5,40,13.5z" fill="url('#linearGradientSkdgxjez3gu8')" stroke="none" style=""/>
      </g>
    </svg>
  </g>
  <g class="svg-clip svg-visible" transform="matrix(2.3384, 0, 0, 2.3504, 174.873764, 62.050663)" style="cursor: move; opacity: 1;">
    <rect x="0" y="0" width="67" height="67" class="svg-hitbox" style="" fill="none"/>
    <svg width="67" height="67" viewBox="6.5,6.5,67,67" class="thumb">
      <desc>Created with Snap</desc>
      <g/>
      <g/>
      <g>
        <path d="M40,68.5c-15.7,0-28.5-12.8-28.5-28.5S24.3,11.5,40,11.5S68.5,24.3,68.5,40S55.7,68.5,40,68.5z M40,13.5   c-14.6,0-26.5,11.9-26.5,26.5S25.4,66.5,40,66.5S66.5,54.6,66.5,40S54.6,13.5,40,13.5z" fill="url('#linearGradientSkdgxjez3guz')" stroke="none" style=""/>
      </g>
    </svg>
  </g>
  <g class="svg-text svg-visible" transform="matrix(0.3418, 0, 0, 0.3379, 175.084061, 257.671875)" style="pointer-events: fill; cursor: move; opacity: 1;">
    <path style="" d="M-205.10000000000002,101 C-20,100 20,100 205.10000000000002,101" fill="none"/>
    <path d="M-158.8-68.1L-158.8-68.1L-131.8-12.3Q-130.10000000000002-8.9 -130.10000000000002-7.2L-130.10000000000002-7.2Q-130.10000000000002-3.6 -135.90000000000003-0.7L-135.90000000000003-0.7Q-139.3 1 -141.25000000000003 1Q-143.20000000000002 1 -144.45000000000002 0.1Q-145.70000000000002-0.8 -146.25000000000003-1.8Q-146.8-2.8 -147.8-4.8L-147.8-4.8L-153.00000000000003-15.6L-180.70000000000002-15.6L-185.90000000000003-4.8Q-186.90000000000003-2.8 -187.45000000000002-1.9Q-188.00000000000003-1 -189.25000000000003-0.05Q-190.50000000000003 0.9 -192.45000000000002 0.9Q-194.40000000000003 0.9 -197.8-0.8L-197.8-0.8Q-203.60000000000002-3.6 -203.60000000000002-7.2L-203.60000000000002-7.2Q-203.60000000000002-8.9 -201.90000000000003-12.3L-201.90000000000003-12.3L-174.90000000000003-68.2Q-173.8-70.5 -171.55-71.9Q-169.3-73.3 -166.8-73.3L-166.8-73.3Q-161.40000000000003-73.3 -158.8-68.1ZM-160.20000000000002-30.4L-166.90000000000003-44.1L-173.50000000000003-30.4L-160.20000000000002-30.4ZM-95.30000000000003-52.7L-95.30000000000003-52.7Q-85.30000000000003-52.7 -78.65000000000002-45.05Q-72.00000000000003-37.4 -72.00000000000003-26.4L-72.00000000000003-26.4L-72.00000000000003-8.8Q-72.00000000000003-6.5 -72.15000000000002-5.35Q-72.30000000000003-4.2 -73.00000000000003-2.8L-73.00000000000003-2.8Q-74.40000000000002-0.1 -80.80000000000003-0.1L-80.80000000000003-0.1Q-87.90000000000002-0.1 -89.00000000000003-3.8L-89.00000000000003-3.8Q-89.60000000000002-5.5 -89.60000000000002-8.9L-89.60000000000002-8.9L-89.60000000000002-26.5Q-89.60000000000002-30.6 -91.95000000000002-32.9Q-94.30000000000003-35.2 -98.25000000000003-35.2Q-102.20000000000002-35.2 -104.65000000000002-32.8Q-107.10000000000002-30.4 -107.10000000000002-26.5L-107.10000000000002-26.5L-107.10000000000002-8.8Q-107.10000000000002-6.5 -107.25000000000003-5.35Q-107.40000000000002-4.2 -108.20000000000002-2.8L-108.20000000000002-2.8Q-109.50000000000003-0.1 -115.90000000000002-0.1L-115.90000000000002-0.1Q-122.20000000000002-0.1 -123.60000000000002-2.8L-123.60000000000002-2.8Q-124.30000000000003-4.3 -124.45000000000002-5.45Q-124.60000000000002-6.6 -124.60000000000002-8.9L-124.60000000000002-8.9L-124.60000000000002-44.3Q-124.60000000000002-46.5 -124.45000000000002-47.65Q-124.30000000000003-48.8 -123.50000000000003-50.2L-123.50000000000003-50.2Q-122.10000000000002-52.7 -115.80000000000003-52.7L-115.80000000000003-52.7Q-109.70000000000002-52.7 -108.30000000000003-50.4L-108.30000000000003-50.4Q-107.30000000000003-48.7 -107.30000000000003-46.3L-107.30000000000003-46.3Q-106.90000000000002-47 -105.50000000000003-48.3Q-104.10000000000002-49.6 -102.80000000000003-50.4L-102.80000000000003-50.4Q-99.40000000000002-52.7 -95.30000000000003-52.7ZM-28.650000000000013-74.65Q-27.900000000000013-76.1 -26.000000000000014-76.7Q-24.100000000000016-77.3 -20.950000000000017-77.3Q-17.80000000000001-77.3 -15.900000000000013-76.7Q-14.000000000000014-76.1 -13.250000000000014-74.6Q-12.500000000000014-73.1 -12.350000000000016-71.95Q-12.200000000000017-70.8 -12.200000000000017-68.5L-12.200000000000017-68.5L-12.200000000000017-8.8Q-12.200000000000017-6.5 -12.350000000000016-5.35Q-12.500000000000014-4.2 -13.300000000000011-2.8L-13.300000000000011-2.8Q-14.800000000000011-0.1 -21.750000000000014-0.1Q-28.700000000000017-0.1 -29.500000000000014-5L-29.500000000000014-5Q-33.70000000000002-0.2 -41.20000000000002-0.2L-41.20000000000002-0.2Q-50.20000000000002-0.2 -57.600000000000016-8.05Q-65.00000000000001-15.9 -65.00000000000001-26.35Q-65.00000000000001-36.8 -57.55000000000001-44.7Q-50.100000000000016-52.6 -41.20000000000002-52.6L-41.20000000000002-52.6Q-33.80000000000001-52.6 -29.700000000000017-47.6L-29.700000000000017-47.6L-29.700000000000017-68.6Q-29.700000000000017-70.9 -29.55000000000001-72.05Q-29.400000000000013-73.2 -28.650000000000013-74.65ZM-44.90000000000001-20.3Q-42.30000000000001-17.6 -38.600000000000016-17.6Q-34.90000000000001-17.6 -32.45000000000002-20.3Q-30.000000000000014-23 -30.000000000000014-26.25Q-30.000000000000014-29.5 -32.350000000000016-32.3Q-34.70000000000002-35.1 -38.70000000000002-35.1Q-42.70000000000002-35.1 -45.100000000000016-32.35Q-47.500000000000014-29.6 -47.500000000000014-26.3Q-47.500000000000014-23 -44.90000000000001-20.3ZM 31.599999999999998-52.1Q 33.5-51.5  34.75-50.05Q 36-48.6  36-45.4Q 36-42.2  34.099999999999994-38.4Q 32.2-34.6  28.599999999999998-34.6L 28.599999999999998-34.6Q 26.8-34.6  25.150000000000002-35.4Q 23.5-36.2  20.8-36.2Q 18.1-36.2  15.75-34.3Q 13.400000000000002-32.4  13.400000000000002-29.7L 13.400000000000002-29.7L 13.400000000000002-8.7Q 13.400000000000002-6.4  13.25-5.25Q 13.100000000000001-4.1  12.3-2.6L 12.3-2.6Q 10.8 0  4.5 0L 4.5 0Q-0.29999999999999893 0 -2.3999999999999995-1.7L-2.3999999999999995-1.7Q-3.999999999999999-3.1 -4.199999999999999-6L-4.199999999999999-6Q-4.199999999999999-7 -4.199999999999999-8.9L-4.199999999999999-8.9L-4.199999999999999-44Q-4.199999999999999-46.3 -4.049999999999999-47.45Q-3.8999999999999995-48.6 -3.1999999999999993-50L-3.1999999999999993-50Q-1.799999999999999-52.7  4.600000000000001-52.7L 4.600000000000001-52.7Q 10.600000000000001-52.7  12.100000000000001-50.4L 12.100000000000001-50.4Q 13.2-48.8  13.2-47.1L 13.2-47.1Q 13.7-47.8  14.650000000000002-48.8Q 15.600000000000001-49.8  18.7-51.5Q 21.8-53.2  24.150000000000002-53.2Q 26.500000000000004-53.2  28.099999999999998-52.95Q 29.7-52.7  31.599999999999998-52.1ZM 37-26.3Q 37-38.3  45.4-46.1Q 53.8-53.9  64.6-53.9Q 75.4-53.9  83.7-46.15Q 92-38.4  92-26.4L 92-26.4Q 92-18.1  87.7-11.65Q 83.4-5.2  77.25-2.15Q 71.1 0.9  64.5 0.9Q 57.9 0.9  51.7-2.35Q 45.5-5.6  41.25-11.95Q 37-18.3  37-26.3L 37-26.3ZM 57.9-19.15Q 61.1-16.7  64.4-16.7Q 67.7-16.7  71-19.2Q 74.3-21.7  74.3-26.6Q 74.3-31.5  71.2-33.9Q 68.1-36.3  64.5-36.3Q 60.9-36.3  57.8-33.8Q 54.7-31.3  54.7-26.45Q 54.7-21.6  57.9-19.15ZM 98.5-8.8L 98.5-43.9Q 98.5-46.2  98.65-47.35Q 98.8-48.5  99.5-50L 99.5-50Q 100.9-52.6  107.3-52.6L 107.3-52.6Q 112.1-52.6  114.1-50.9L 114.1-50.9Q 115.8-49.5  115.9-46.6L 115.9-46.6Q 116-45.6  116-43.7L 116-43.7L 116-8.7Q 116-6.4  115.85-5.25Q 115.7-4.1  114.9-2.6L 114.9-2.6Q 113.6 0  107.2 0L 107.2 0Q 100.9 0  99.5-2.7L 99.5-2.7Q 98.8-4.2  98.65-5.3Q 98.5-6.4  98.5-8.8L 98.5-8.8ZM 114.95-62.45Q 114.2-61  112.3-60.4Q 110.4-59.8  107.25-59.8Q 104.1-59.8  102.2-60.4Q 100.3-61  99.55-62.5Q 98.8-64  98.65-65.15Q 98.5-66.3  98.5-68.6Q 98.5-70.9  98.65-72.05Q 98.8-73.2  99.5-74.6L 99.5-74.6Q 100.9-77.3  107.3-77.3L 107.3-77.3Q 113.6-77.3  114.9-74.6L 114.9-74.6Q 115.7-73.1  115.85-71.95Q 116-70.8  116-68.5Q 116-66.2  115.85-65.05Q 115.7-63.9  114.95-62.45ZM 159.35-74.65Q 160.1-76.1  162-76.7Q 163.9-77.3  167.05-77.3Q 170.2-77.3  172.1-76.7Q 174-76.1  174.75-74.6Q 175.5-73.1  175.65-71.95Q 175.8-70.8  175.8-68.5L 175.8-68.5L 175.8-8.8Q 175.8-6.5  175.65-5.35Q 175.5-4.2  174.7-2.8L 174.7-2.8Q 173.2-0.1  166.25-0.1Q 159.3-0.1  158.5-5L 158.5-5Q 154.3-0.2  146.8-0.2L 146.8-0.2Q 137.8-0.2  130.4-8.05Q 123-15.9  123-26.35Q 123-36.8  130.45-44.7Q 137.9-52.6  146.8-52.6L 146.8-52.6Q 154.2-52.6  158.3-47.6L 158.3-47.6L 158.3-68.6Q 158.3-70.9  158.45-72.05Q 158.6-73.2  159.35-74.65ZM 143.1-20.3Q 145.7-17.6  149.4-17.6Q 153.1-17.6  155.55-20.3Q 158-23  158-26.25Q 158-29.5  155.65-32.3Q 153.3-35.1  149.3-35.1Q 145.3-35.1  142.9-32.35Q 140.5-29.6  140.5-26.3Q 140.5-23  143.1-20.3Z" data-textpath="Android " data-text-anchor="middle" data-font-size="100" data-letterspacing="0" data-side="left" data-offset="0" data-dx="0" data-dy="90.75" data-href="" data-font="Fredoka One" data-font-src="/Content/clientfonts/fredokaone.woff" data-font-scale="contain" transform="translate(0,90.75)" data-xmlspace="preserve" fill="url('#linearGradientSkdgxjez3gue')"/>
    <rect x="0" y="0" width="0" height="0"/>
  </g>
  <g class="svg-text svg-visible" transform="matrix(0.3553, 0, 0, 0.3553, 323.084076, 256.671875)" style="pointer-events: fill; cursor: move; opacity: 1;">
    <path style="" d="M-220.20000000000002,101 C-20,100 20,100 220.20000000000002,101" fill="none"/>
    <path d="M-164-39.3L-164-39.3Q-158.10000000000002-32.3 -158.10000000000002-23.6L-158.10000000000002-23.6Q-158.3-13.6 -164.95000000000002-6.85Q-171.60000000000002-0.1 -181.10000000000002-0.1L-181.10000000000002-0.1L-207.4-0.1Q-214.4-0.1 -215.60000000000002-3.9L-215.60000000000002-3.9Q-216.20000000000002-5.6 -216.20000000000002-9.1L-216.20000000000002-9.1L-216.20000000000002-64.6Q-216.20000000000002-67 -216.05-68.1Q-215.9-69.2 -215.10000000000002-70.7L-215.10000000000002-70.7Q-213.70000000000002-73.4 -207.3-73.4L-207.3-73.4L-182.10000000000002-73.4Q-172.90000000000003-73.4 -166.70000000000002-67L-166.70000000000002-67Q-160.20000000000002-60.5 -160.20000000000002-51.4L-160.20000000000002-51.4Q-160.20000000000002-44.8 -164-39.3ZM-175.8-24.6L-175.8-24.6Q-175.8-27 -176.35000000000002-28.4Q-176.90000000000003-29.8 -178.20000000000002-30.4L-178.20000000000002-30.4Q-180.20000000000002-31.2 -183.8-31.2Q-187.40000000000003-31.2 -189.20000000000002-32.6Q-191.00000000000003-34 -191.00000000000003-38.35Q-191.00000000000003-42.7 -189.15-44.1Q-187.3-45.5 -183-45.5L-183-45.5Q-179-45.5 -178.20000000000002-47.6L-178.20000000000002-47.6Q-177.90000000000003-48.7 -177.90000000000003-51.2Q-177.90000000000003-53.7 -179.55-54.7Q-181.20000000000002-55.7 -184.5-55.7L-184.5-55.7L-198.50000000000003-55.7L-198.50000000000003-17.8L-182.10000000000002-17.8Q-175.8-17.8 -175.8-24.6ZM-128.20000000000002-0.2L-128.20000000000002-0.2Q-138.3-0.2 -144.95000000000002-7.85Q-151.60000000000002-15.5 -151.60000000000002-26.5L-151.60000000000002-26.5L-151.60000000000002-44Q-151.60000000000002-46.4 -151.45000000000002-47.5Q-151.3-48.6 -150.60000000000002-50.1L-150.60000000000002-50.1Q-149.20000000000002-52.8 -142.8-52.8L-142.8-52.8Q-135.8-52.8 -134.60000000000002-49L-134.60000000000002-49Q-134.00000000000003-47.4 -134.00000000000003-43.9L-134.00000000000003-43.9L-134.00000000000003-26.4Q-134.00000000000003-22.3 -131.65000000000003-20Q-129.3-17.7 -125.35000000000002-17.7Q-121.40000000000002-17.7 -118.95000000000002-20.1Q-116.50000000000003-22.5 -116.50000000000003-26.4L-116.50000000000003-26.4L-116.50000000000003-44.1Q-116.50000000000003-46.4 -116.35000000000002-47.55Q-116.20000000000002-48.7 -115.40000000000002-50.2L-115.40000000000002-50.2Q-114.10000000000002-52.8 -107.70000000000002-52.8L-107.70000000000002-52.8Q-101.40000000000002-52.8 -100.00000000000003-50.1L-100.00000000000003-50.1Q-99.30000000000003-48.6 -99.15000000000002-47.45Q-99.00000000000003-46.3 -99.00000000000003-44L-99.00000000000003-44L-99.00000000000003-8.6Q-99.00000000000003-6.4 -99.15000000000002-5.25Q-99.30000000000003-4.1 -100.10000000000002-2.7L-100.10000000000002-2.7Q-101.60000000000002-0.1 -107.80000000000003-0.1L-107.80000000000003-0.1Q-113.90000000000002-0.1 -115.30000000000003-2.5L-115.30000000000003-2.5Q-116.30000000000003-4.2 -116.30000000000003-6.6L-116.30000000000003-6.6Q-116.70000000000002-5.9 -118.10000000000002-4.6Q-119.50000000000003-3.3 -120.80000000000003-2.4L-120.80000000000003-2.4Q-124.20000000000002-0.2 -128.20000000000002-0.2ZM-91-21.1L-91-68.7Q-91-71 -90.85-72.15Q-90.7-73.3 -90-74.8L-90-74.8Q-88.6-77.5 -82.2-77.5L-82.2-77.5Q-76.1-77.5 -74.6-74.8L-74.6-74.8Q-73.8-73.3 -73.65-72.1Q-73.5-70.9 -73.5-68.6L-73.5-68.6L-73.5-22.3Q-73.5-18.7 -72.9-17.75Q-72.3-16.8 -70.25-16.8Q-68.2-16.8 -67.5-16.65Q-66.8-16.5 -65.8-15.8L-65.8-15.8Q-63.8-14.5 -63.8-8.7L-63.8-8.7Q-63.8-2.4 -65.8-1L-65.8-1Q-68.4 0.8 -78.2-0.4L-78.2-0.4Q-85.9-1.4 -88.2-5.5L-88.2-5.5Q-91-10.4 -91-21.1L-91-21.1ZM-17.400000000000013-34.8L-27.30000000000001-26.4L-14.000000000000014-15.4Q-11.500000000000014-13.3 -10.850000000000009-12.2Q-10.20000000000001-11.1 -10.20000000000001-10.1L-10.20000000000001-10.1Q-10.20000000000001-7.7 -13.300000000000011-3.6L-13.300000000000011-3.6Q-16.70000000000001 0.6 -19.30000000000001 0.6L-19.30000000000001 0.6Q-21.500000000000014 0.6 -25.400000000000013-2.3L-25.400000000000013-2.3L-26.400000000000013-3Q-28.70000000000001-4.9 -33.500000000000014-9.65Q-38.30000000000001-14.4 -40.80000000000001-16.4L-40.80000000000001-16.4L-40.80000000000001-8.7Q-40.80000000000001-6.4 -40.95000000000001-5.25Q-41.10000000000001-4.1 -41.90000000000001-2.6L-41.90000000000001-2.6Q-43.20000000000001 0 -49.60000000000001 0L-49.60000000000001 0Q-55.90000000000001 0 -57.30000000000001-2.7L-57.30000000000001-2.7Q-58.000000000000014-4.2 -58.15000000000001-5.35Q-58.30000000000001-6.5 -58.30000000000001-8.8L-58.30000000000001-8.8L-58.30000000000001-68.7Q-58.30000000000001-71 -58.15000000000001-72.15Q-58.000000000000014-73.3 -57.30000000000001-74.8L-57.30000000000001-74.8Q-55.90000000000001-77.5 -49.500000000000014-77.5L-49.500000000000014-77.5Q-44.70000000000001-77.5 -42.70000000000001-75.8L-42.70000000000001-75.8Q-41.000000000000014-74.4 -40.90000000000001-71.4L-40.90000000000001-71.4Q-40.80000000000001-70.5 -40.80000000000001-68.6L-40.80000000000001-68.6L-40.80000000000001-36.9Q-39.000000000000014-38.4 -35.35000000000001-42Q-31.70000000000001-45.6 -29.900000000000013-47.1L-29.900000000000013-47.1L-28.70000000000001-47.9Q-25.20000000000001-50.6 -22.70000000000001-50.6Q-20.20000000000001-50.6 -16.95000000000001-46.55Q-13.70000000000001-42.5 -13.70000000000001-40.2Q-13.70000000000001-37.9 -17.400000000000013-34.8L-17.400000000000013-34.8ZM 22.600000000000026-9.2L 21.700000000000024-10.3Q 19.100000000000026-13.5  19.100000000000026-16.05Q 19.100000000000026-18.6  23.400000000000027-22.8L 23.400000000000027-22.8Q 25.900000000000027-25.2  28.700000000000024-25.2Q 31.50000000000003-25.2  36.50000000000003-20.2L 36.50000000000003-20.2Q 37.90000000000003-18.5  40.50000000000003-16.95Q 43.10000000000002-15.4  45.300000000000026-15.4L 45.300000000000026-15.4Q 54.60000000000002-15.4  54.60000000000002-23L 54.60000000000002-23Q 54.60000000000002-25.3  52.050000000000026-26.85Q 49.50000000000003-28.4  45.70000000000003-29.1Q 41.90000000000003-29.8  37.50000000000003-31.35Q 33.10000000000002-32.9  29.300000000000026-35Q 25.50000000000003-37.1  22.950000000000024-41.65Q 20.400000000000027-46.2  20.400000000000027-52.6L 20.400000000000027-52.6Q 20.400000000000027-61.4  26.950000000000024-67.95Q 33.50000000000003-74.5  44.800000000000026-74.5L 44.800000000000026-74.5Q 50.800000000000026-74.5  55.75000000000003-72.95Q 60.70000000000003-71.4  62.60000000000002-69.8L 62.60000000000002-69.8L 65.10000000000002-67.9Q 68.20000000000003-65  68.20000000000003-63Q 68.20000000000003-61  65.80000000000003-57.5L 65.80000000000003-57.5Q 62.40000000000002-52.5  58.800000000000026-52.5L 58.800000000000026-52.5Q 56.70000000000003-52.5  53.60000000000002-54.5L 53.60000000000002-54.5Q 53.300000000000026-54.7  52.45000000000003-55.5Q 51.60000000000002-56.3  50.90000000000002-56.8L 50.90000000000002-56.8Q 48.800000000000026-58.1  45.550000000000026-58.1Q 42.300000000000026-58.1  40.15000000000003-56.55Q 38.00000000000003-55  38.00000000000003-52.25Q 38.00000000000003-49.5  40.550000000000026-47.8Q 43.10000000000002-46.1  46.90000000000003-45.5Q 50.70000000000003-44.9  55.20000000000003-43.65Q 59.70000000000003-42.4  63.50000000000003-40.6Q 67.30000000000003-38.8  69.85000000000002-34.35Q 72.40000000000002-29.9  72.40000000000002-23.4Q 72.40000000000002-16.9  69.80000000000003-11.95Q 67.20000000000003-7  63.00000000000003-4.3L 63.00000000000003-4.3Q 54.90000000000002 1  45.70000000000003 1L 45.70000000000003 1Q 41.00000000000003 1  36.800000000000026-0.15Q 32.60000000000002-1.3  30.00000000000003-3L 30.00000000000003-3Q 24.700000000000024-6.2  22.600000000000026-9.2L 22.600000000000026-9.2ZM 156.8-70.5L 156.8-70.5Q 157.60000000000002-69  157.75-67.8Q 157.90000000000003-66.6  157.90000000000003-64.3L 157.90000000000003-64.3L 157.90000000000003-8.8Q 157.90000000000003-1.9  154.10000000000002-0.7L 154.10000000000002-0.7Q 152.20000000000002-0.1  149.3-0.1Q 146.40000000000003-0.1  144.70000000000002-0.6Q 143-1.1  142.10000000000002-1.8Q 141.20000000000002-2.5  140.70000000000002-3.8L 140.70000000000002-3.8Q 140.20000000000002-5.5  140.20000000000002-9L 140.20000000000002-9L 140.20000000000002-42.5Q 137.70000000000002-39.4  132.90000000000003-32.65Q 128.10000000000002-25.9  126.80000000000001-24.2Q 125.50000000000003-22.5  125.00000000000003-21.85Q 124.50000000000003-21.2  122.55000000000001-20.05Q 120.60000000000002-18.9  118.35000000000002-18.9Q 116.10000000000002-18.9  114.25000000000003-19.95Q 112.40000000000002-21  111.60000000000002-22L 111.60000000000002-22L 110.80000000000001-23.1Q 108.80000000000001-25.6  102.90000000000002-33.75Q 97.00000000000003-41.9  96.50000000000003-42.5L 96.50000000000003-42.5L 96.50000000000003-8.8Q 96.50000000000003-6.5  96.35000000000002-5.35Q 96.20000000000002-4.2  95.40000000000002-2.8L 95.40000000000002-2.8Q 93.90000000000002-0.1  87.60000000000002-0.1L 87.60000000000002-0.1Q 81.50000000000001-0.1  80.00000000000001-2.8L 80.00000000000001-2.8Q 79.20000000000002-4.2  79.05000000000003-5.4Q 78.90000000000002-6.6  78.90000000000002-9L 78.90000000000002-9L 78.90000000000002-64.5Q 78.90000000000002-66.8  79.05000000000003-67.95Q 79.20000000000002-69.1  80.00000000000001-70.6L 80.00000000000001-70.6Q 81.50000000000001-73.2  87.80000000000003-73.2L 87.80000000000003-73.2Q 90.50000000000001-73.2  92.45000000000002-72.55Q 94.40000000000002-71.9  95.00000000000003-71.2L 95.00000000000003-71.2L 95.60000000000002-70.6L 118.30000000000001-40.8Q 135.3-63.3  141-70.5L 141-70.5Q 142.70000000000002-73.2  149.05-73.2Q 155.40000000000003-73.2  156.8-70.5ZM 167.9-9.2L 167-10.3Q 164.4-13.5  164.4-16.05Q 164.4-18.6  168.70000000000002-22.8L 168.70000000000002-22.8Q 171.20000000000002-25.2  174-25.2Q 176.8-25.2  181.8-20.2L 181.8-20.2Q 183.20000000000002-18.5  185.8-16.95Q 188.4-15.4  190.6-15.4L 190.6-15.4Q 199.9-15.4  199.9-23L 199.9-23Q 199.9-25.3  197.35000000000002-26.85Q 194.8-28.4  191-29.1Q 187.20000000000002-29.8  182.8-31.35Q 178.4-32.9  174.6-35Q 170.8-37.1  168.25-41.65Q 165.70000000000002-46.2  165.70000000000002-52.6L 165.70000000000002-52.6Q 165.70000000000002-61.4  172.25-67.95Q 178.8-74.5  190.1-74.5L 190.1-74.5Q 196.10000000000002-74.5  201.05-72.95Q 206-71.4  207.9-69.8L 207.9-69.8L 210.4-67.9Q 213.5-65  213.5-63Q 213.5-61  211.10000000000002-57.5L 211.10000000000002-57.5Q 207.7-52.5  204.10000000000002-52.5L 204.10000000000002-52.5Q 202-52.5  198.9-54.5L 198.9-54.5Q 198.60000000000002-54.7  197.75-55.5Q 196.9-56.3  196.2-56.8L 196.2-56.8Q 194.10000000000002-58.1  190.85-58.1Q 187.6-58.1  185.45000000000002-56.55Q 183.3-55  183.3-52.25Q 183.3-49.5  185.85-47.8Q 188.4-46.1  192.20000000000002-45.5Q 196-44.9  200.5-43.65Q 205-42.4  208.8-40.6Q 212.60000000000002-38.8  215.15-34.35Q 217.7-29.9  217.7-23.4Q 217.7-16.9  215.10000000000002-11.95Q 212.5-7  208.3-4.3L 208.3-4.3Q 200.2 1  191 1L 191 1Q 186.3 1  182.1-0.15Q 177.9-1.3  175.3-3L 175.3-3Q 170-6.2  167.9-9.2L 167.9-9.2Z" data-textpath="Bulk SMS" data-text-anchor="middle" data-font-size="100" data-letterspacing="0" data-side="left" data-offset="0" data-dx="0" data-dy="90.75" data-href="" data-font="Fredoka One" data-font-src="/Content/clientfonts/fredokaone.woff" data-font-scale="contain" transform="translate(0,90.75)" data-xmlspace="preserve" fill="url('#linearGradientSkdgxjez3gvb')"/>
    <rect x="0" y="0" width="0" height="0"/>
  </g>
  <g class="selector-part" transform="matrix(1, 0, 0, 1, 245.084076, 246.671875)">
    <rect x="0" y="0" width="0" height="0" stroke="#2390bb" style="stroke-width: 2;" fill="none"/>
    <g transform="matrix(0.5,0,0,0.5,0,0)">
      <svg version="1.1" id="Calque_1" xmlns="http://www.w3.org/2000/svg" x="281.5" y="-71px" width="28.94px" height="30px" viewBox="0 -15 28.94 30" enable-background="new 0 -15 28.94 30" style="cursor: pointer;">
        <g>
          <path fill="rgba(0,0,0,0)" d="M23.355-9.979c-0.352-0.263-0.712-0.511-1.084-0.739L20.34-7.486c0.317,0.195,0.629,0.414,0.929,0.646 L23.355-9.979z" style=""/>
          <path fill="rgba(0,0,0,0)" d="M28.894,0.081L25.092-0.13c0.292,2.317-0.217,4.718-1.539,6.756l-0.037-0.021 c-0.376,0.583-0.821,1.137-1.335,1.648c-3.808,3.809-9.902,3.942-13.871,0.396C8.282,8.623,8.255,8.602,8.227,8.576 C8.143,8.498,8.059,8.421,7.976,8.339c-0.052-0.051-0.104-0.1-0.153-0.152C7.8,8.163,7.776,8.14,7.753,8.115 c-0.084-0.091-0.167-0.18-0.25-0.271v0.002C4.312,4.293,4.087-0.98,6.821-4.782l4.123,4.124l3.401-14.306L0.037-11.566l4.102,4.098 C-0.064-2.14,0.193,5.554,4.917,10.587l0,0c0.012,0.016,0.023,0.025,0.033,0.037c0.091,0.098,0.181,0.199,0.278,0.293 c0.021,0.023,0.047,0.043,0.07,0.068c0.075,0.074,0.148,0.146,0.225,0.22c0.051,0.045,0.099,0.086,0.15,0.133 c0.053,0.047,0.104,0.094,0.156,0.14c0.144,0.13,0.291,0.257,0.439,0.375c0.01,0.012,0.018,0.016,0.027,0.023 c5.574,4.563,13.804,4.115,18.842-1.194C27.94,7.722,29.185,3.851,28.894,0.081z" style=""/>
          <path fill="rgba(0,0,0,0)" d="M24.122-3.353l3.544-1.319c-0.426-0.932-0.962-1.826-1.611-2.662L22.88-5.276 C23.373-4.675,23.79-4.027,24.122-3.353z" style=""/>
        </g>
        <desc>Created with Snap</desc>
        <circle cx="14.5" cy="0" r="15" style="" fill="rgba(0,0,0,0)"/>
      </svg>
    </g>
    <rect x="148" y="-21" width="0" height="21" stroke="#2390bb" style="stroke-width: 1; cursor: pointer;" fill="rgba(255,255,255,0)"/>
    <circle cx="156" cy="52" r="0" stroke="#2390bb" style="stroke-width: 2; cursor: se-resize;" fill="#ffffff"/>
    <circle cx="0" cy="52" r="0" stroke="#2390bb" style="stroke-width: 2; cursor: sw-resize;" fill="#ffffff"/>
    <circle cx="156" cy="0" r="0" stroke="#2390bb" style="stroke-width: 2; cursor: ne-resize;" fill="#ffffff"/>
    <circle cx="0" cy="0" r="0" stroke="#2390bb" style="stroke-width: 2; cursor: nw-resize;" fill="#ffffff"/>
    <circle cx="78" cy="52" r="0" stroke="#2390bb" style="stroke-width: 2; cursor: s-resize;" fill="#ffffff"/>
    <circle cx="78" cy="0" r="0" stroke="#2390bb" style="stroke-width: 2; cursor: n-resize;" fill="#ffffff"/>
    <circle cx="0" cy="26" r="0" stroke="#2390bb" style="stroke-width: 2; cursor: w-resize;" fill="#ffffff"/>
    <circle cx="156" cy="26" r="0" stroke="#2390bb" style="stroke-width: 2; cursor: e-resize;" fill="#ffffff"/>
    <path stroke="#ff0000" style="stroke-width: 3;" fill="none"/>
    <line x1="0" x2="0" y1="0" y2="0" stroke="#2390bb" style="stroke-width: 1;" fill="rgba(255,255,255,0)"/>
    <line x1="0" x2="0" y1="0" y2="0" stroke="#2390bb" style="stroke-width: 1;" fill="rgba(255,255,255,0)"/>
    <circle cx="0" cy="0" r="0" stroke="#2390bb" style="stroke-width: 2; cursor: pointer;" fill="#ff0000"/>
    <circle cx="0" cy="0" r="0" stroke="#2390bb" style="stroke-width: 2; cursor: pointer;" fill="#ffa500"/>
    <circle cx="0" cy="0" r="0" stroke="#2390bb" style="stroke-width: 2; cursor: pointer;" fill="#ffa500"/>
    <circle cx="0" cy="0" r="0" stroke="#2390bb" style="stroke-width: 2; cursor: pointer;" fill="#ff0000"/>
    <g style="cursor: pointer; visibility: hidden; opacity: 0;" transform="matrix(1,0,0,1,-50,-15)">
      <rect x="0" y="0" width="30" height="30" rx="5" ry="5" style="" fill="#2390bb"/>
      <rect x="6" y="6" width="18" height="4" style="" fill="#ffffff"/>
      <rect x="6" y="13" width="18" height="4" style="" fill="#ffffff"/>
      <rect x="6" y="20" width="18" height="4" style="" fill="#ffffff"/>
    </g>
  </g>
</svg>